<svg width="94" height="171" viewBox="0 0 94 171" fill="none" xmlns="http://www.w3.org/2000/svg">
<path d="M8.07639 143.8L37.4975 170.529L94.2246 170.529L94.2246 19C94.2246 19 77.5 -3.38763e-06 61.5 -2.68825e-06C45.5 -1.98887e-06 30.5749 19 30.5749 19L-4.89199e-06 58.6128L30.5749 83.8034L15.5759 104.187L30.5749 120.147L8.07639 143.8Z" fill="#976316"/>
<path d="M41.3434 164.567L18.8448 143.8L41.3434 120.147L26.3443 104.187L41.3434 83.8035L10.7684 58.6128L36.9206 23.8074" stroke="white" stroke-width="2.69213"/>
<path d="M69.0338 163.798C69.803 157.388 74.6488 144.03 87.8787 141.877" stroke="white" stroke-width="2.69213"/>
<path d="M66.5341 27.6534C67.3974 34.8504 72.8366 49.849 87.6865 52.2672" stroke="white" stroke-width="2.69213"/>
<path d="M80.0679 74.2127L81.6769 97.232" stroke="white" stroke-width="3.07672" stroke-linecap="square"/>
<circle cx="62.5849" cy="110.903" r="10.7685" transform="rotate(-93.9982 62.5849 110.903)" stroke="white" stroke-width="3.07672"/>
<circle cx="60.4397" cy="80.211" r="10.7685" transform="rotate(-93.9982 60.4397 80.211)" stroke="white" stroke-width="3.07672"/>
<circle cx="77.4949" cy="158.991" r="1.73066" transform="rotate(-90 77.4949 158.991)" fill="white"/>
<circle cx="83.2637" cy="154.376" r="1.73066" transform="rotate(-90 83.2637 154.376)" fill="white"/>
<circle cx="84.8021" cy="160.529" r="1.73066" transform="rotate(-90 84.8021 160.529)" fill="white"/>
<circle cx="2.11525" cy="2.11525" r="2.11525" transform="matrix(4.37114e-08 1 1 -4.37114e-08 73.8412 31.8839)" fill="white"/>
<circle cx="2.11525" cy="2.11525" r="2.11525" transform="matrix(4.37114e-08 1 1 -4.37114e-08 80.764 37.2681)" fill="white"/>
<circle cx="2.11525" cy="2.11525" r="2.11525" transform="matrix(4.37114e-08 1 1 -4.37114e-08 82.6869 29.9609)" fill="white"/>
</svg>
