<svg width="73" height="116" viewBox="0 0 73 116" fill="none" xmlns="http://www.w3.org/2000/svg">
<path d="M14.5045 102.971L25.5189 112.978C27.5433 114.817 30.1804 115.836 32.9156 115.836L61.03 115.836C67.1051 115.836 72.03 110.911 72.03 104.836L72.03 11C72.03 4.92486 67.1051 -2.93326e-06 61.03 -2.66771e-06L28.7782 -1.25794e-06C25.3694 -1.10893e-06 22.1532 1.58039 20.0704 4.27889L6.51064 21.8468C2.8819 26.5482 3.64024 33.2812 8.22385 37.0576L15.4293 42.9942C19.8851 46.6653 20.6945 53.179 17.2728 57.8291L16.554 58.8058C13.8616 62.4647 14.1655 67.5243 17.2764 70.8346C20.6973 74.4748 20.6802 80.1529 17.2373 83.7724L13.9311 87.2481C9.67602 91.7214 9.93488 98.8197 14.5045 102.971Z" fill="#D4E28D"/>
<path d="M31.6049 111.279L22.6108 102.977C18.0994 98.8124 17.8702 91.761 22.1017 87.3125L25.4692 83.7724C28.9121 80.1529 28.9293 74.4748 25.5084 70.8346V70.8346C22.3974 67.5243 22.0936 62.4647 24.7859 58.8058L25.5047 57.8291C28.9265 53.179 28.117 46.6653 23.6612 42.9942L16.3499 36.9704C11.8089 33.229 11.016 26.5768 14.5504 21.8729L28.2239 3.675" stroke="black" stroke-width="2.058"/>
<path d="M52.7729 110.691C53.3609 105.791 57.0653 95.5794 67.1789 93.933" stroke="black" stroke-width="2.058"/>
<path d="M50.8618 6.61501C51.5218 12.1168 55.6798 23.5824 67.0318 25.431" stroke="black" stroke-width="2.058"/>
<path d="M61.2078 42.2072L62.4377 59.8042" stroke="black" stroke-width="2.352" stroke-linecap="square"/>
<circle cx="47.8429" cy="70.2553" r="8.232" transform="rotate(-93.9982 47.8429 70.2553)" stroke="black" stroke-width="2.352"/>
<circle cx="46.203" cy="46.7925" r="8.232" transform="rotate(-93.9982 46.203 46.7925)" stroke="black" stroke-width="2.352"/>
<circle cx="59.241" cy="107.016" r="1.323" transform="rotate(-90 59.241 107.016)" fill="black"/>
<circle cx="63.6509" cy="103.488" r="1.323" transform="rotate(-90 63.6509 103.488)" fill="black"/>
<circle cx="64.8269" cy="108.192" r="1.323" transform="rotate(-90 64.8269 108.192)" fill="black"/>
<circle cx="1.617" cy="1.617" r="1.617" transform="matrix(4.37114e-08 1 1 -4.37114e-08 56.448 9.849)" fill="black"/>
<circle cx="1.617" cy="1.617" r="1.617" transform="matrix(4.37114e-08 1 1 -4.37114e-08 61.74 13.965)" fill="black"/>
<circle cx="1.617" cy="1.617" r="1.617" transform="matrix(4.37114e-08 1 1 -4.37114e-08 63.21 8.37898)" fill="black"/>
</svg>
