<svg version="1.2" xmlns="http://www.w3.org/2000/svg" viewBox="0 0 1159 718" width="1159" height="718"><style>.a{opacity:1;fill:#0b9344}.b{opacity:1;fill:#41b352}.c{opacity:1;fill:#f5d632}.d{opacity:.4;fill:#ccd6b8}</style><path fill-rule="evenodd" class="a" d="m418.5 155.8c4.4 0.2 8.5 0.5 9.2 0.6 0.6 0 1.5 0.5 2 0.9 0.4 0.4 1.4 0.7 2.1 0.7 0.6 0 4.5 1.5 8.5 3.4 3.9 1.9 9.5 5.2 12.2 7.3 2.8 2.1 6.8 5.6 9 7.8 2.2 2.3 5.5 6 7.3 8.3 1.7 2.3 3.2 4.4 3.2 4.7 0 0.3 0.8 1.7 1.9 3.2 1 1.6 2.7 4.4 3.8 6.3 1.1 1.9 2.9 6.4 4.1 10 1.2 3.6 2.6 10.1 3.3 14.5 0.8 5.9 0.8 9.9-1.1 22.5l-3.2 0.1c-1.8 0-13.9 0-26.8 0-12.9 0-23.6-0.2-23.7-0.3-0.1-0.2 0.2-3.2 0.8-6.8 0.9-5.4 0.7-7.4-0.8-12-0.9-3-2.9-6.9-4.3-8.5-1.3-1.6-3.2-3.5-4-4.1-0.8-0.6-2.2-1.8-3-2.6-0.8-0.8-3.7-2.1-6.5-2.8-3-0.7-6.9-1-9.7-0.6-2.7 0.3-5.4 1.2-6.1 1.8-0.7 0.7-1.8 1.4-2.5 1.5-0.6 0.2-2.2 1.3-3.5 2.5-1.3 1.3-3.4 4.3-4.7 6.8-2.1 4-2.3 6-2.4 16.5-0.1 10.9 0.1 12.5 2.4 17 1.4 2.7 4.7 7.3 12.5 15.3l10.3 0.4c5.7 0.2 10.6 0.6 10.8 1 0.2 0.5 1.9 0.8 3.6 0.8 1.8 0 4.7 0.4 6.3 0.9 1.6 0.6 5 1.5 7.5 2.2 2.5 0.7 8.1 3.1 12.5 5.3 4.4 2.3 8.5 4.5 9.2 5.1 0.6 0.5 3.4 2.8 6 5 2.7 2.2 7.7 7.4 11.1 11.5 3.4 4.1 8 10.3 10.2 13.7 2.2 3.5 4 6.8 4 7.3 0 0.5 0.3 1.1 0.8 1.2 0.4 0.2 1.7 2.3 2.8 4.8 1.2 2.5 3.2 7 4.4 10 1.2 3 2.6 6.4 3.1 7.5 0.4 1.1 1.8 5.1 3 9 1.2 3.9 2.9 10.4 3.7 14.5 0.8 4.3 1.7 15.6 1.9 26.5 0.3 14.3 0 21.7-1.2 30-0.9 6-2 13-2.6 15.5-0.5 2.5-1.7 7-2.5 10-0.9 3-2.5 8-3.6 11-1.1 3-2.7 7.1-3.5 9-0.8 1.9-2.9 6.2-4.5 9.5-1.7 3.3-5.1 9.1-7.5 13-2.5 3.9-6.8 9.7-9.6 13-2.9 3.3-7.2 8-9.7 10.3-2.5 2.4-7.2 6.4-10.5 8.9-3.3 2.5-9.9 6.5-14.8 8.9-4.8 2.4-12 5.3-15.9 6.3-4 1.1-10.8 2.4-15 3-4.3 0.6-11.6 1.1-16.3 1.1-4.7 0-10.6-0.4-13.2-0.9-2.7-0.6-7.5-1.5-10.8-2.1-3.3-0.6-8.7-2.1-12-3.2-3.3-1.2-9.6-3.9-14-6.2-4.4-2.2-8.7-4.6-9.5-5.4-0.8-0.8-2.6-2.1-4-2.9-1.4-0.8-4.3-3.9-6.5-6.9-2.2-3-4.1-6.1-4.2-6.9-0.2-0.8-0.7-1.5-1.3-1.5-0.6 0-2.2 1.9-3.6 4.2-1.5 2.4-5.7 7.2-9.3 10.8-4.5 4.3-9 7.6-13.6 9.8-3.9 1.8-7.8 3.7-8.7 4.2-1 0.6-4.6 1.7-8 2.6-3.5 0.9-10.4 2-15.3 2.5-4.9 0.6-12.4 1-16.5 1-4.1-0.1-10.4-0.5-14-1-3.6-0.5-8.3-1.5-10.5-2.1-2.2-0.7-6.5-2.3-9.5-3.7-3-1.4-8.2-4.4-11.5-6.6-3.3-2.3-8.2-6.4-10.9-9.1-2.7-2.8-6.1-6.7-7.5-8.6-1.4-1.9-2.8-3.7-3.1-4-0.3-0.3-1.9-2.8-3.5-5.5-1.7-2.8-3.9-7.3-5.1-10-1.1-2.8-2.7-7.1-3.5-9.8-0.8-2.6-1.6-4.7-1.9-4.7-0.3 0-0.6-2.1-0.8-4.8-0.2-2.6-0.7-5.2-1.2-5.7-0.5-0.5-0.8-6.9-0.8-14 0-7.1 0.4-13.9 0.8-15 0.4-1.1 1.4-4 2.1-6.5 0.7-2.5 2.6-7.4 4.3-11 1.6-3.6 3.2-6.7 3.5-7 0.4-0.3 1.3-1.7 2.1-3.3 0.8-1.5 1.8-2.7 2.3-2.7 0.4 0 0.7-0.6 0.7-1.3 0-0.6 2.4-3.7 5.2-6.7 2.9-3.1 7.2-7 9.6-8.8 2.3-1.7 4.6-3.2 5.2-3.2 0.6 0 1.8-0.4 2.8-1 0.9-0.5 5.5-2.2 10.2-3.8 4.7-1.6 10.5-3.5 13-4.2 2.5-0.7 7.2-2.2 10.5-3.3 3.3-1 8.9-3.3 12.4-5.1 3.5-1.7 8.8-5.4 11.8-8.1 3.8-3.5 6-6.6 7.4-10.3 1-2.8 1.9-7.2 1.9-9.7 0-2.8-0.8-5.9-2.2-8.3-1.2-2-3.6-5.1-5.3-6.7-1.6-1.7-4.1-3.5-5.5-4.1-1.4-0.6-3.7-1.7-5.2-2.3-1.6-0.6-5.4-1.1-8.5-1.1-3.2 0-7.2 0.6-8.8 1.4-1.6 0.8-3.7 2.3-4.6 3.3-0.9 1-2.5 3.4-3.7 5.3-1.2 1.9-3.1 7.9-4.2 13.2-1.1 5.4-2 11.8-2 18.8h-55l0.6-8.8c0.4-4.8 1.5-12 2.5-16 1.1-3.9 2.9-9.3 4.1-12 1.2-2.6 3.6-7 5.3-9.8 1.6-2.8 4.8-7.3 7-10 2.2-2.7 5.8-6.6 8-8.6 2.2-2.1 4.2-3.7 4.5-3.7 0.3 0 1.8-1.2 3.5-2.6 1.7-1.4 3.3-2.5 3.8-2.5 0.4 0 2.4-1.1 4.5-2.5 2-1.3 6.6-3.4 10.2-4.6 3.6-1.1 8.1-2.5 10-3 1.9-0.5 7.1-1.6 11.5-2.4 4.4-0.8 12.4-1.5 17.8-1.5 5.3 0 12.1 0.6 15 1.4 2.8 0.8 6.1 1.7 7.2 2.1 1.1 0.4 4 1.7 6.5 2.8 2.5 1.2 5.4 2.9 6.5 3.7 1.1 0.8 4.7 4.3 8 7.6 3.3 3.4 7.7 9 9.8 12.5 2 3.5 4.4 8.6 5.2 11.4 0.7 2.7 1.8 6.8 2.4 9 0.6 2.2 1.1 6.2 1.1 9 0 2.7-0.7 8.6-1.5 13-0.8 4.4-1.8 9.4-2.3 11-0.5 1.6-1.7 4.8-2.6 7-1 2.2-2.3 4.9-2.8 6-0.6 1.1-1.6 2.9-2.2 4-0.6 1.1-3 4.2-5.3 7-2.3 2.7-4 5.3-3.8 5.7 0.3 0.5 0.3 0.6 0 0.3-0.3-0.3-2 1-3.8 2.7-1.9 1.8-5.2 4.8-7.5 6.5-2.3 1.8-4.6 3.3-5.2 3.3-0.6 0-1 0.3-1 0.7 0.1 0.5-3 2.2-6.7 3.9-3.7 1.7-8.4 3.7-10.3 4.4-1.9 0.7-5.4 2.1-7.7 3.1-2.4 1.1-4.7 1.9-5.3 1.9-0.6 0-3.8 1.3-7.2 3-3.5 1.6-8.3 4.6-10.7 6.7-2.5 2.3-5.5 6.2-7.2 9.8-1.7 3.6-3.3 9.4-4.1 14.5-1 7-0.9 9.5 0.2 14.5 0.8 3.3 2.8 8 4.5 10.5 2 3 4.7 5.3 8.5 7.2 3 1.6 8.2 3.3 11.5 3.9 3.5 0.7 10.4 0.9 16.5 0.6 7.5-0.4 12.1-1.3 16-2.8 3-1.3 6.9-3.2 8.5-4.3 1.6-1.1 4.4-3.4 6.1-5.1 1.7-1.6 4.3-5.3 5.8-8 1.4-2.8 3.3-7.5 4.1-10.5 0.8-3 1.5-8.3 1.5-18h46.5l0.8 10.7c0.4 6 1.2 11.3 1.7 11.8 0.6 0.5 1 1.8 1 2.7 0 1 0.6 2.8 1.3 4 0.6 1.2 2.6 3.7 4.2 5.6 1.6 1.9 4.8 4.7 7 6.2 2.2 1.6 7.4 3.8 11.5 4.9 5.4 1.5 10.4 2.1 17.8 2.1 7.7 0 11.8-0.5 17-2.2 3.7-1.2 7.6-2.6 8.7-3.2 1.1-0.6 3.4-2 5-3 1.6-1.1 6.1-5.2 10-9.1 3.9-4 9.2-10.8 11.9-15.6 2.8-4.6 5.8-10.9 6.9-13.9 1.1-3 2.4-7.1 2.9-9 0.4-1.9 1.5-7.3 2.3-12 0.8-4.7 1.5-11.9 1.5-16 0-4.1-0.5-10.4-1-14-0.6-3.6-1.5-8.5-2.2-11-0.6-2.5-1.9-6.2-3-8.3-1-2-2.2-3.7-2.8-3.7-0.6 0-1.5 1-2.2 2.2-0.6 1.3-3.2 4.3-5.7 6.7-2.5 2.4-7.8 6.5-11.6 9-3.9 2.5-11.3 6.5-16.5 8.7-5.2 2.3-11.5 4.8-14 5.5-2.8 0.9-9.1 1.4-16.5 1.3-8.8 0-13.3-0.5-17-1.8-2.7-1-6.4-2.5-8-3.3-1.6-0.9-3.2-1.9-3.5-2.3-0.3-0.4-1.5-1.2-2.7-1.9-1.3-0.6-3.5-2.1-4.9-3.4-1.5-1.2-3.8-3.4-5.3-4.8-1.4-1.5-3.6-3.8-4.8-5.3-1.3-1.4-4-6.1-6.1-10.4-2-4.2-4.3-10-5-12.7-0.7-2.8-1.4-10.6-1.4-17.5-0.1-10.4 0.2-13.5 2-18.5 1.1-3.3 3.8-9.1 5.9-13 2-3.9 5.6-8.7 7.8-10.9 2.2-2.1 4.1-4.5 4.3-5.2 0.1-0.8-0.1-1.4-0.5-1.4-0.5 0-0.9-0.6-0.9-1.3-0.1-0.6-1.7-4.6-3.5-8.7-1.9-4.1-3.7-7.7-4-8-0.3-0.3-1.5-3.6-2.7-7.5-1.2-3.9-2.6-9-3.1-11.5-0.6-2.5-1.1-8.2-1.1-12.8 0-4.5 0.6-11.5 1.4-15.5 0.8-3.9 2.5-10.3 3.8-14.2 1.3-3.9 3.7-9.2 5.3-11.9 1.7-2.7 6.7-8.7 11.3-13.3 4.5-4.5 9.1-8.5 10.2-8.8 1.1-0.3 2-0.8 2-1.3 0-0.4 2.2-1.8 5-3.2 2.7-1.4 5-2.8 5-3.3 0-0.4 0.6-0.7 1.4-0.7 0.8 0 2.3-0.4 3.3-0.9 1-0.5 2.9-1.3 4.3-1.9 1.4-0.6 3.4-1.3 4.5-1.7 1.1-0.4 3.8-1.2 6-1.7 2.2-0.6 7.4-1.4 11.5-1.8 4.1-0.4 11.1-0.5 15.5-0.2zm-41.9 168.1c-1.3 2.5-1.7 5-1.5 8.1 0.3 2.6 1.7 6.6 3.5 9.5 2.2 3.7 4.2 5.6 7.9 7.4 2.8 1.4 7 2.7 9.5 2.9 2.5 0.3 5.6 0.2 7-0.1 1.4-0.3 3.5-1.4 4.6-2.4 1.2-1 2.7-3.6 3.3-5.8 1-3.3 1-4.6-0.3-7.8-0.9-2-4.2-6.2-7.3-9.3-3.2-3.1-7.1-5.9-8.7-6.2-1.6-0.4-3-1-3.2-1.5-0.2-0.4-2.3-0.7-4.6-0.6-2.4 0-5.2 0.5-6.3 1.1-1.1 0.6-2.9 2.7-3.9 4.7zm374.1-35.8c6.2 0 13.4 0.4 16 1 2.7 0.5 6.8 1.5 9.3 2.1 2.5 0.5 6.1 1.7 8 2.5 1.9 0.8 5.7 2.6 8.5 4 2.7 1.4 6.3 3.5 8 4.7 1.6 1.2 4.7 3.7 6.9 5.6 2.2 1.9 4.7 4.2 5.5 5 0.9 0.9 3.4 3.7 5.6 6.4 2.2 2.7 5.3 7.1 6.9 10 1.5 2.8 3.6 6.7 4.6 8.6 1 1.9 2.8 5.6 3.9 8.2 1.2 2.7 2.1 5.3 2.1 5.8 0 0.5 0.4 1.8 1 2.7 0.5 1 1.8 4.9 2.9 8.8 1.1 3.9 2.4 9.5 3 12.5 0.5 3 1.5 8.2 2 11.5 0.6 3.3 1.5 11.2 2.2 17.5 0.6 6.9 0.9 21.7 0.6 37-0.2 14-0.9 29.3-1.6 34-0.6 4.7-1.6 12.5-2.2 17.5-0.5 5-1.3 17.8-1.6 28.5-0.4 15.1-0.1 21.9 1.1 30.2 0.9 6 2.4 13.2 3.4 16 1 2.9 2.5 6.7 3.3 8.3 1.3 2.6 2 3 5.4 2.9 2.2 0 8.3-0.2 13.5-0.4 6.8-0.3 11.3-1 15.7-2.7 3.5-1.3 6.3-2 6.3-1.6-0.1 0.5 0.7 0.1 1.7-0.7 1-0.9 3.1-2.2 4.7-3 1.6-0.8 4.1-2.7 5.5-4.1 1.4-1.4 3.6-4.8 4.9-7.5 1.9-3.9 2.3-6.2 2-11.6-0.2-3.6-0.5-6.4-0.8-6.2-0.3 0.2-1-0.6-1.5-1.8-0.6-1.3-2.4-2.9-4-3.7-1.7-0.8-4-1.5-5.3-1.7-1.2-0.2-3.8 0.1-5.7 0.6-1.9 0.5-3.5 0.9-3.5 0.7-0.1-0.1-0.3-6.3-0.6-13.7-0.4-10.5-0.2-13.7 0.8-14.3 1-0.7 1-0.9 0-1.3-0.6-0.2-1.2-1.5-1.2-2.9 0-1.4 0.4-3.5 0.9-4.8 0.4-1.2 2.3-2.9 4.2-3.7 2.4-1 6.9-1.4 14.9-1.3 9.9 0 12.5 0.4 18.5 2.7 3.9 1.5 9 4 11.5 5.6 2.5 1.6 6.1 4.4 8 6.3 1.9 1.9 5.3 6.8 7.4 10.9 2.2 4 4.9 11 6 15.5 1.2 4.8 1.7 8.2 1.1 8.3-0.5 0-0.4 0.5 0.3 1.2 0.7 0.8 1.2 3.8 1.2 7.3 0 3.3-0.6 8.2-1.3 11-0.8 2.7-2.6 7.7-6.8 17l2.3 1.8c1.3 0.9 3.3 2.6 4.5 3.7 1.3 1.1 2.3 1.8 2.3 1.5 0-0.3 0.8 0.2 1.7 1 1 0.8 3.5 2.7 5.5 4.2 2.1 1.5 3.5 3.1 3.1 3.5-0.3 0.5 0.1 0.8 1 0.8 0.9 0 1.7 0.3 1.7 0.7 0 0.5 1.5 2.4 3.3 4.3 1.9 1.9 5.3 6.6 7.5 10.5 2.3 3.9 4.9 9.2 5.7 12 0.9 2.7 1.7 6.4 1.8 8 0.2 1.6 0.5 3.5 0.8 4 0.3 0.5 0.7 3.2 0.8 6 0.1 2.7-0.3 7.2-1 10-0.6 2.7-2.1 7.9-3.2 11.5-1.2 3.6-2.9 7.7-3.9 9.2-1 1.6-1.8 3.1-1.8 3.5 0 0.5-1.9 3.3-4.2 6.3-2.3 3-7 8.3-10.5 11.7-3.5 3.5-6.6 6.3-7.1 6.3-0.4-0.1-2.1 1.2-3.8 2.7-1.7 1.5-3.7 3-4.5 3.1-0.8 0.2-2.6 1.2-4.2 2.3-1.5 1-3.3 1.9-4 1.9-0.7 0-1.7 0.4-2.3 0.9-0.5 0.5-4.3 2-8.4 3.2-6.5 2.1-9.5 2.4-22.5 2.3-9.5 0-16.5-0.5-19-1.3-2.2-0.7-6.9-2.7-10.5-4.4-3.6-1.7-8.1-4.5-10-6.4-1.9-1.8-3.8-3.3-4.3-3.3-0.4 0-0.7-0.7-0.7-1.5 0-0.8-0.6-1.4-1.3-1.3-0.6 0.2-1.1-0.3-1-1 0.2-0.6-0.2-1-0.7-0.7-0.5 0.3-2-1-3.2-2.8-1.2-1.7-2.8-3.8-3.5-4.5-0.7-0.6-1.3-1.7-1.3-2.2 0-0.5-0.6-1.6-1.3-2.3-0.8-0.6-2.8-4.3-4.7-8.2-1.8-3.9-4-10.1-4.8-14-0.8-3.9-1.5-10.6-1.5-15 0.1-5.1 0.9-10.7 2.3-15.5 1.2-4.1 2.2-8.3 2.3-9.4 0.2-1.7-0.7-1.8-14.3-1.5-8 0.1-17.4 0.3-21 0.3-3.6 0-45.3-0.1-92.8-0.2-47.4-0.1-86.9-0.4-87.7-0.7-1.3-0.4-1.5-3.7-1.5-41.5h156l-0.1-20.8c-0.1-13.6 0.2-21.5 1-23 0.6-1.2 1.1-2.9 1.1-3.7 0-0.8-0.7-1.5-1.5-1.5-0.8 0-6.1 2.3-11.8 5.1-5.6 2.8-12.7 5.9-15.7 6.8-3 1-9.8 2.4-15 3.1-5.8 0.8-13.2 1.1-19 0.7-5.2-0.3-12.6-1.5-16.5-2.5-3.9-1-9.7-3.1-13-4.8-3.3-1.6-8.5-5.4-11.5-8.4-3.1-3-6.2-7-7-8.8-0.9-1.8-2.2-3.2-3.3-3.2-0.9 0-1.7 0.3-1.7 0.7 0.1 0.5-2.1 2.9-4.7 5.5-2.6 2.6-5.9 5.6-7.3 6.8-1.4 1.1-2.8 2-3.2 2-0.4 0-1.3 0.6-2 1.3-0.7 0.6-3.3 2.2-5.8 3.4-2.5 1.2-6.1 2.6-8 3.2-1.9 0.5-5.3 1.4-7.5 2-2.2 0.6-9.7 1.1-16.8 1.1-9.6 0-14.8-0.5-21.5-2.1-4.8-1.2-8.9-2.5-9.2-2.8-0.3-0.4-2.1-1.3-4-2.1-1.9-0.8-6-3-9-4.9-3-1.9-8.7-6.7-12.6-10.5-3.8-3.9-9.1-10-11.6-13.6-2.6-3.6-6.4-10.3-8.6-15-2.2-4.7-4.3-9.9-4.6-11.5-0.4-1.6-1.4-6.8-2.1-11.5-0.8-4.7-1.5-11-1.5-14 0-3 0.7-9.3 1.4-14 0.8-4.7 2.1-11 2.9-14 0.8-3 3.4-9.1 5.8-13.5 2.3-4.4 4.6-8.1 5-8.3 0.5-0.1 0.9-0.9 0.9-1.7 0-0.8 4.9-6.3 10.8-12.3 8.7-8.6 12.3-11.5 18.7-14.7 4.4-2.2 8.2-4.2 8.5-4.5 0.3-0.3 2.3-1.1 4.5-1.7 2.2-0.6 5.8-1.6 8-2.2 2.2-0.6 6.4-1.5 9.2-2.1 2.9-0.5 10.6-1 17-1 6.5 0 14.9 0.6 18.8 1.4 3.9 0.8 8.8 2.1 11 2.9 2.2 0.8 5.6 2.3 7.5 3.3 1.9 1 4.9 2.8 6.5 4 1.6 1.3 3.3 2.4 3.7 2.4 0.5 0 4.4 3.6 8.8 8 4.4 4.4 8 8.5 8 9 0 0.5 0.6 1.6 1.3 2.2 0.7 0.7 3.1 4.4 5.4 8.3 2.3 3.9 5.5 9.9 7.2 13.5 1.7 3.6 4.3 10.5 5.9 15.5 1.6 5 3.4 11.1 4 13.7 0.7 2.7 1.2 7.2 1.2 10 0 3.5 0.9 7 2.4 10.3 1.3 2.7 4.2 6.8 6.3 9 2.1 2.2 6.1 5.1 8.8 6.4 4.3 2 6.2 2.3 13 1.9 6-0.2 9.2-0.9 12.9-2.8 2.6-1.4 7.3-4.8 10.4-7.5 3-2.8 7.4-7.5 9.6-10.5 2.3-3 4.7-6.6 5.5-8 0.7-1.4 2.6-5.6 4.2-9.5 1.6-3.9 3.6-10.3 4.4-14.3 0.8-3.9 1.5-10.5 1.5-14.5 0-3.9-0.4-10.8-0.9-15.2-0.5-4.4-2.1-11.4-3.4-15.5-1.4-4.1-4-10.2-5.8-13.5-1.8-3.3-3.7-6.6-4.3-7.2-0.6-0.7-2.5-3-4.1-5.2-1.7-2.1-4.6-4.9-6.5-6.2-1.9-1.3-3.7-2.6-4-2.9-0.3-0.3-1.6-1-3-1.6-1.4-0.6-3.7-1.7-5.3-2.3-1.5-0.6-8.5-1.1-29.7-1.1l-0.5-59.8 5-1c2.8-0.5 10.1-1 16.2-1.1zm-143.8 138.1c-1.4 1.3-3.3 3.7-4.2 5.3-0.8 1.6-2.2 5-3.1 7.5-1 2.9-1.6 8-1.6 14 0 7 0.5 10.9 2 15 1.4 3.9 3.4 6.8 6.7 9.8 2.7 2.4 5.5 4.3 6.3 4.2 0.8 0 2.1 0.5 2.8 1.2 0.8 0.8 4.2 1.3 9.4 1.3 5.7 0 8.2-0.4 8.5-1.3 0.1-0.6 0.9-1.2 1.7-1.2 0.7 0 4.3-3 8-6.8 3.7-3.7 6.7-7.3 6.6-8 0-0.6 0.3-1.2 0.7-1.2 0.5 0 1.3-1.2 2-2.7 0.6-1.6 1.6-4.6 2.2-6.8 0.8-2.9 0.8-6.2 0-12-0.6-4.4-2.1-9.8-3.3-12-1.1-2.2-3-4.9-4.1-6.1-1.1-1.1-3.9-3-6.3-4.2-3.5-1.8-5.9-2.2-14-2.2-7.5 0.1-10.6 0.5-13.7 2-2.2 1.1-5.2 3-6.6 4.2zm299.5 198.2c-2.2 2.3-4.5 5.9-5.2 8.1-0.6 2.2-1.2 5.8-1.2 8 0 2.2 0.6 5.6 1.3 7.5 0.6 1.9 2.1 4.4 3.2 5.6 1.1 1.1 3.4 3 5 4.2 1.6 1.1 6.1 2.6 10 3.3 5.9 1.1 7.7 1.1 11.5-0.1 2.5-0.8 5.4-1.9 6.5-2.5 1.1-0.6 3.9-2.4 6.2-4 2.3-1.7 4.2-3.6 4.3-4.2 0-0.7 0.5-1.3 1-1.3 0.5 0 1-0.7 1-1.5 0-0.8 0.6-1.6 1.2-1.8 0.9-0.3 1.3-2.4 1.3-6.4 0-5.3-0.4-6.6-3-9.8-1.6-2.1-3.9-4.3-4.9-4.9-1.1-0.6-2.7-1.7-3.5-2.4-0.9-0.7-3.4-2-5.6-2.7-2.2-0.8-6.9-1.4-10.5-1.4-3.6 0.1-8.3 0.6-10.5 1.1-2.4 0.7-5.6 2.7-8.1 5.2z"/><path class="b" d="m384 158.7c-0.8 0.3-2.6 1-4 1.5-1.4 0.4-2.2 1.2-1.7 1.6 0.4 0.4 1.7 0.2 3-0.4 1.2-0.7 3.3-1.6 4.7-2.2 1.4-0.6 1.8-1.1 1-1.1-0.8 0.1-2.2 0.3-3 0.6zm15 50.4c-1.9 0.5-3.3 1.2-3 1.4 0.3 0.2 2.3-0.1 4.5-0.6 2.2-0.6 6.3-0.9 9-0.6 3.2 0.3 4.3 0.2 3-0.3-1.1-0.5-3.8-0.9-6-0.8-2.2 0-5.6 0.4-7.5 0.9zm85.7 31.7c-0.7 4.9-0.9 5.2-3.7 5.5-2.9 0.2-2.9 0.2 0.2 0.2 2.8 0 3.3-0.4 4.1-3.5 0.4-1.9 0.7-4.4 0.5-5.5-0.2-1.1-0.7 0.4-1.1 3.3zm-39.7 5.9c5.2 0.2 14 0.2 19.5 0 5.5-0.1 1.2-0.3-9.5-0.3-10.7 0-15.2 0.2-10 0.3zm284.4 73.3c0 16.8 0.2 23.5 0.3 15 0.2-8.5 0.2-22.2 0-30.5-0.1-8.2-0.3-1.3-0.3 15.5zm-466.6 23.4c0.2 2.8 0.5 5.6 0.7 6.1 0.2 0.5 0.4-1.6 0.5-4.7 0.1-3.1-0.2-5.9-0.6-6.1-0.5-0.3-0.8 1.8-0.6 4.7zm-48.6 14.9l-0.2 5.7c-52.9 0-55-0.1-55.4-1.7-0.3-1.3-0.4-1.1-0.5 0.5l-0.1 2.2c49.4 0 56.1-0.3 56.5-1.2 0.3-0.7 0.4-3.5 0.2-6.3l-0.3-5zm557.8 0.5c1.9 1.6 5 4.7 6.8 6.8 1.9 2.2 3 3.2 2.5 2.3-0.4-1-2.6-3.6-4.8-5.9-2.2-2.3-4.9-4.6-6-5.2-1.1-0.5-0.4 0.4 1.5 2zm-146.5 7c2.2 0.2 6 0.2 8.5 0 2.5-0.2 0.7-0.4-4-0.4-4.7 0-6.7 0.2-4.5 0.4zm-62 24c-2.8 2.6-6.6 6.8-8.4 9.3-1.9 2.4-0.2 0.9 4-3.4 4-4.4 8.3-8.6 9.4-9.3 1.1-0.8 1.5-1.3 1-1.3-0.6 0-3.3 2.1-6 4.7zm-53.1 10.8c0 6 0.1 8.2 0.3 5 0.2-3.3 0.2-8.3 0-11-0.2-2.8-0.3-0.1-0.3 6zm-53 1.5c0 5.7 0.1 8 0.3 5 0.2-3.1 0.2-7.8 0-10.5-0.2-2.8-0.3-0.3-0.3 5.5zm-274.5-5.3c-1.8 1.5-4.6 4.5-6.2 6.8l-3 4c5.2-5.5 8.3-8.5 10.2-10.3 2-1.8 3.2-3.2 2.9-3.2-0.4 0-2.1 1.2-3.9 2.7zm613.5 23.3c0 5.7 0.1 8 0.3 5 0.2-3.1 0.2-7.8 0-10.5-0.2-2.8-0.3-0.3-0.3 5.5zm-473.2 17.7l23.7 0.3 0.7 13.5-0.1-14-48-0.1zm525.1 11.3c0 6.3 0.2 8.8 0.4 5.5 0.2-3.3 0.2-8.5 0-11.5-0.2-3.1-0.4-0.4-0.4 6zm-600.3 37.7c2.4 0.2 6.7 0.2 9.5 0 2.7-0.2 0.7-0.4-4.5-0.4-5.3 0-7.5 0.2-5 0.4zm315 34.8c3 3 5.8 5.5 6.2 5.5 0.4 0-1.6-2.5-4.6-5.5-2.9-3.1-5.7-5.6-6.2-5.6-0.5 0 1.5 2.5 4.6 5.6zm-260.5 4.8c-4.5 4.4-5 5.2-2 2.9 2.2-1.7 5.3-4.5 6.9-6.2 1.6-1.7 2.5-3 2-2.9-0.5 0.1-3.6 2.9-6.9 6.2zm313.5 18.4c2.4 0.2 6.7 0.2 9.5 0 2.7-0.2 0.7-0.4-4.5-0.4-5.3 0-7.5 0.2-5 0.4zm173.4 13.8c0 7.7 0.1 10.6 0.3 6.5 0.2-4.2 0.2-10.5 0-14-0.2-3.6-0.3-0.2-0.3 7.5zm112.6 158.5c1.3 0.4 6.7 0.8 12 0.8 5.2 0 9-0.2 8.5-0.4-0.6-0.1-6-0.5-12-0.7-6.1-0.2-9.9-0.1-8.5 0.3z"/><path class="c" d="m226 2.5c0 0.3 1.4 2 3 3.8 1.7 1.7 3.1 3.8 3 4.5 0 0.6 0.4 1.2 1 1.2 0.6 0 1 1.4 1 3 0 1.6 0.4 3 1 3 0.6 0 0.9 5.8 0.6 16.3-0.2 8.9-0.6 17.9-1 19.9-0.3 2.1-1 4-1.6 4.3-0.6 0.3-1 1.6-1 3 0 1.4-0.4 2.5-1 2.5-0.6 0-1 0.7-1 1.5 0 0.8-0.9 3.4-2 5.8-1.1 2.3-2 4.8-2 5.5 0 0.6-0.3 1.2-0.7 1.2-0.5 0-1.4 1.2-2.1 2.8-0.7 1.5-1.2 3.3-1.2 4 0 0.6-0.4 1.2-1 1.2-0.6 0-1 1.4-1 3 0 1.6-0.4 3.2-1 3.5-0.6 0.3-2.4-1-4-2.7-1.7-1.8-5-5.3-7.3-7.8-2.4-2.5-6.3-6.2-8.8-8.3-2.4-2-4.8-3.7-5.4-3.7-0.6-0.1-1.7-0.9-2.5-1.9-0.8-1-3.6-2.4-6.3-3.2-2.6-0.8-4.7-1.7-4.7-2.1 0-0.5-1.3-0.8-3-0.8-1.7 0-3-0.4-3-1 0-0.6-2.4-1.2-5.2-1.5-2.9-0.3-7.9-0.7-11-1-3.6-0.3-5.8-0.1-5.8 0.5 0 0.6-2 1-4.5 1-2.5 0-4.7 0.4-5 1-0.3 0.6 0.4 1 1.5 1 1.1 0 2 0.4 2 1 0 0.6 0.7 1 1.5 1 0.8 0 3.8 2.3 6.5 5 2.8 2.8 5.2 5.9 5.5 7 0.3 1.1 0.9 2 1.5 2 0.6 0 1 0.9 1 2 0 1.1 0.4 2 1 2 0.6 0 1 1.4 1 3 0 1.6 0.4 3 1 3 0.6 0 1 1.8 1 4 0 2.2 0.3 4 0.8 4 0.4 0 1 4.4 1.4 9.7 0.3 5.4 0.5 10.1 0.2 10.6-0.2 0.4-2.9-1.8-5.9-4.8-3-3-5.9-5.5-6.5-5.5-0.6 0-2.1-1.1-3.5-2.5-1.4-1.4-3.4-2.7-4.5-3-1.1-0.3-2-0.9-2-1.5 0-0.6-0.9-1-2-1-1.1 0-2-0.4-2-1 0-0.6-0.9-1-2-1-1.1 0-2-0.4-2-1 0-0.6-0.9-1-2-1-1.1 0-2-0.4-2-1 0-0.6-0.9-1-2-1-1.1 0-2-0.4-2-1 0-0.6-1.3-1-3-1-1.7 0-3-0.4-3-1 0-0.6-1.3-1-3-1-1.7 0-3-0.4-3-1 0-0.6-1.8-1-4-1-2.2 0-4-0.4-4-1 0-0.6-5.1-1-13.2-1-7.3 0.1-15.4 0.6-18 1.3-2.5 0.7-5 1.5-5.4 2-0.4 0.4-1.8 0.7-3.1 0.7-1.2 0-2.3 0.4-2.3 1 0 0.6-1 1-2.2 1-1.3 0-3.3 0.9-4.5 2-1.3 1.1-2.8 2-3.4 2-0.6 0-1.7 0.7-2.5 1.5-0.8 0.8-1.4 1.7-1.4 2 0 0.3 2.3 0.5 5 0.5 2.8 0 5 0.4 5 1 0 0.6 1.3 1 3 1 1.7 0 3 0.4 3 1 0 0.6 0.9 1 2 1 1.1 0 2 0.4 2 1 0 0.6 0.7 1 1.5 1 0.8 0 4.9 3.4 9 7.5 4.1 4.1 7.5 8.1 7.5 8.8 0 0.6 0.9 1.9 2 2.7 1.1 0.8 2 2.3 2 3.3 0 0.9 0.4 1.7 1 1.7 0.6 0 1 0.9 1 2 0 1.1 0.4 2 1 2 0.6 0 1 0.9 1 2 0 1.1 0.4 2 1 2 0.6 0 1 0.9 1 2 0 1.1 0.4 2 1 2 0.6 0 1 0.9 1 2 0 1.1 0.4 2.2 1 2.5 0.6 0.3 1 1.6 1 3 0 1.4 0.4 2.5 1 2.5 0.6 0 1 1.4 1 3 0 1.6 0.4 3 1 3 0.6 0 1 1.2 1 2.8 0 1.6 0.8 3.3 2 4.2 1.1 0.8 2 2.3 2 3.3 0 1.4-0.6 1.6-3.7 1-2.1-0.5-7.6-0.7-12.3-0.6-4.7 0.1-11.1 0.4-14.2 0.7-3.2 0.3-5.8 1-5.8 1.6 0 0.6-1.8 1-4 1-2.2 0-4 0.4-4 1 0 0.6-0.6 1-1.2 1-0.7 0-3.4 1-6.1 2.3-2.6 1.2-4.7 2.5-4.7 3 0 0.4-0.7 0.7-1.5 0.7-0.9 0-4.9 3.4-9 7.5-4.1 4.1-7.5 8.2-7.5 9 0 0.8-0.5 1.5-1 1.5-0.5 0-1 0.4-1 1 0 0.6 0.9 1 2 1 1.1 0 2-0.4 2-1 0-0.6 4-1 10-1 6 0 10 0.4 10 1 0 0.6 1.3 1 3 1 1.7 0 3 0.4 3 1 0 0.6 0.9 1 2 1 1.1 0 2 0.4 2 1 0 0.6 0.9 1 2 1 1.1 0 2 0.4 2 1 0 0.6 0.6 1 1.3 1 0.6 0 2.5 1.1 4.2 2.5 1.7 1.4 3.3 2.5 3.8 2.5 0.4 0 3 2.3 5.7 5 2.8 2.8 5 5.2 5 5.5 0 0.3-4.6 0.7-10.3 0.9-5.6 0.3-12.3 0.7-14.9 1-2.7 0.3-4.8 1-4.8 1.6 0 0.6-1.5 1-3.3 1-1.8 0-3.7 0.4-4.3 1-0.5 0.5-2.1 1.1-3.7 1.2-1.5 0.2-2.7 0.6-2.7 1.1 0 0.4-0.9 0.7-2 0.7-1.1 0-2 0.4-2 1 0 0.6-0.9 1-2 1-1.1 0-2 0.4-2 1 0 0.6-0.9 1-2 1-1.1 0-2 0.4-2 1 0 0.6-0.9 1-2 1-1.1 0-2 0.4-2 1 0 0.6-0.7 1-1.5 1-0.8 0-1.5 0.4-1.5 1 0 0.6-0.5 1-1 1-0.5 0-2.5 1.4-4.2 3-1.8 1.7-3.6 3.1-4 3-0.5 0-2.8 2-5.3 4.5-2.5 2.5-4.5 5.1-4.5 5.8 0 0.6-0.9 1.9-2 2.7-1.1 0.8-2 2.3-2 3.3 0 0.9-0.5 1.7-1 1.7-0.5 0-1 0.9-1 2 0 1.1-0.5 2-1 2-0.5 0-1 0.9-1 2 0 1.1-0.5 2-1 2-0.5 0-1 1.1-1 2.5 0 1.4-0.5 2.7-1 3-0.5 0.3-1 1.9-1 3.5 0 1.6-0.5 3.2-1 3.5-0.5 0.3-1 1.2-1 2 0 0.8 0.6 1.5 1.3 1.5 0.6 0.1 2.7-1.3 4.5-3 1.7-1.6 3.9-3 4.7-3 0.8 0 1.5-0.5 1.5-1 0-0.5 1.1-1 2.5-1 1.4 0 2.7-0.5 3-1 0.3-0.5 2.3-1 4.5-1 2.2 0 4-0.5 4-1 0-0.6 1.8-0.8 4.3-0.6 2.3 0.3 6.7 0.8 9.7 1.1 3 0.3 7.1 1 9 1.5 1.9 0.5 5.6 1.5 8.3 2.2 2.6 0.7 4.7 1.6 4.7 2.1 0 0.4 1.3 0.7 3 0.7 1.7 0 3 0.5 3 1 0 0.5 1.1 1 2.5 1 1.4 0 2.7 0.5 3 1 0.3 0.5 1.4 1 2.5 1 1.1 0 2 0.5 2 1 0 0.5 2 1.9 4.5 3 2.5 1.1 5.6 2 7 2 1.6 0 2.5 0.6 2.5 1.5 0 0.8-1.2 2.3-2.7 3.2-1.6 0.9-6.1 5-10 9-4 4-7.3 7.8-7.3 8.3 0 0.5-0.9 2-2 3.3-1.1 1.2-2 2.8-2 3.5 0 0.6-0.5 1.2-1 1.2-0.5 0-1 0.9-1 2 0 1.1-0.5 2-1 2-0.5 0-1 0.9-1 2 0 1.1-0.3 2-0.7 2-0.5 0-1.4 2.1-2.1 4.7-0.7 2.7-1.7 6.2-2.2 7.8-0.5 1.6-1 7.2-1 12.3 0 5.5 0.4 9.2 1 9.2 0.5 0 1 0.9 1 2 0 1.1 0.5 2 1 2 0.5 0 0.8-0.5 0.5-1-0.3-0.5 0.5-2 1.8-3.2 1.2-1.3 2.9-3.5 3.7-5.1 0.8-1.5 2-2.7 2.5-2.7 0.5 0 2-0.9 3.3-2 1.2-1.1 2.9-2 3.7-2 0.8 0 1.5-0.5 1.5-1 0-0.5 0.9-1 2-1 1.1 0 2-0.3 2-0.7 0-0.5 1.8-1.4 4-2 2.2-0.7 4.9-1.3 6-1.3 1.1 0 2-0.5 2-1 0-0.6 3.7-1.2 8.3-1.4 4.5-0.2 9.4-0.6 11-1 2-0.4 2.7-0.2 2.7 0.9 0 0.8-2.7 4.2-6 7.5-3.3 3.3-6 6.3-6 6.8 0 0.4-1.4 2.3-3 4.2-1.6 1.9-3 4.1-3 4.8 0 0.6-0.4 1.2-1 1.2-0.6 0-1 0.9-1 2 0 1.1-0.4 2-1 2-0.6 0-1 0.9-1 2 0 1.1-0.5 2-1 2-0.5 0-1 0.9-1 2 0 1.1-0.5 2-1 2-0.5 0-1 1.4-1 3 0 1.6-0.5 3-1 3-0.5 0-1 1.1-1 2.5 0 1.4-0.5 2.7-1 3-0.5 0.3-1 1.9-1 3.5 0 1.6-0.5 3-1 3-0.6 0-1 3-1 7 0 4-0.4 7-1 7-0.6 0-0.8 1.9-0.5 4.8 0.3 2.6 0.8 7.5 1 11 0.3 3.4 1 6.2 1.5 6.2 0.5 0 1 1.4 1 3 0 1.6 0.5 3 1 3 0.5 0 1 1.4 1 3 0 1.6 0.5 3 1 3 0.5 0 1 0.9 1 2 0 1.1 0.7 2.2 1.5 2.5 0.8 0.3 1.3 1 1 1.5-0.3 0.5 0.6 2.1 2 3.5 1.4 1.4 2.7 2.5 3 2.5 0.3 0 0.5-3.1 0.5-7 0-4 0.4-7 1-7 0.6 0 1-0.8 1-1.7 0-1 0.9-2.5 2-3.3 1.1-0.8 2-2.1 2-2.7 0-0.7 3.8-5.1 8.5-9.8 4.7-4.7 9.1-8.5 9.8-8.5 0.6 0 1.9-0.9 2.7-2 0.8-1.1 2.3-2 3.2-2 1 0 1.8-0.5 1.8-1 0-0.5 0.9-1 2-1 1.1 0 2-0.5 2-1 0-0.5 0.9-1 2-1 1.1 0 2-0.5 2-1 0-0.5 0.7-1 1.5-1 0.8 0 2.3-0.4 3.2-0.9 1-0.5 3.4-1.4 5.3-2 1.9-0.6 4.5-1.1 5.7-1.1 1.3 0 2.3-0.5 2.3-1 0-0.5 0.9-1 2-1 1.1 0 2-0.5 2-1 0-0.5 0.9-1 2-1 1.1 0 2-0.5 2-1 0-0.5 0.4-1 1-1 0.6 0 1.1 4.2 1.2 10.2l0.3 10.2c6.9-10.8 11.2-16.3 14-19.1 3.6-3.8 4.5-5.3 3.2-5.3-0.9 0-1.7-0.3-1.7-0.7 0-0.5-2.2-1.9-5-3.3-2.8-1.4-5-2.8-5-3.2 0-0.5-0.6-0.8-1.3-0.8-0.6 0-2.8-1.4-4.7-3-1.9-1.6-3.8-3-4.3-3-0.4 0-2-1.4-3.7-3-1.7-1.6-3.4-3-4-3-0.6 0-4.6-3.6-9-8-4.4-4.4-8-8.3-8-8.7 0-0.5-2-2.9-4.5-5.5-2.5-2.7-4.5-5.5-4.5-6.3 0-0.8-0.3-1.5-0.8-1.5-0.4 0-1.4-1.2-2.2-2.7-0.8-1.6-2.3-3.7-3.3-4.8-0.9-1.1-1.7-2.6-1.7-3.2 0-0.7-0.4-1.3-1-1.3-0.6 0-1-0.9-1-2 0-1.1-0.4-2-1-2-0.6 0-1-0.9-1-2 0-1.1-0.3-2-0.8-2-0.4 0-1.3-1.2-2-2.8-0.7-1.5-1.2-3.3-1.2-3.9 0-0.7-0.3-1.3-0.8-1.3-0.4 0-1.3-2.1-2.1-4.7-0.8-2.7-1.8-5.5-2.1-6.3-0.4-0.8-1.3-3.1-1.9-5-0.6-1.9-1.1-4.5-1.1-5.7 0-1.3-0.4-2.5-1-2.8-0.6-0.3-1.2-2.4-1.5-4.7-0.3-2.4-0.9-9-1.5-14.8-0.5-5.8-1-13.6-1-17.5 0-3.9 0.5-11.1 1-16 0.5-4.9 1.2-11.1 1.5-13.7 0.3-2.7 0.9-4.8 1.5-4.8 0.6 0 1-1.8 1-4 0-2.2 0.4-4.2 1-4.5 0.6-0.3 1-2.1 1-4 0-1.9 0.4-3.5 1-3.5 0.6 0 1-0.9 1-2 0-1.1 0.3-2 0.7-2 0.5 0 1.5-2.2 2.3-5 0.8-2.8 1.8-5 2.2-5 0.5 0 0.8-0.9 0.8-2 0-1.1 0.4-2 1-2 0.6 0 1-0.9 1-2 0-1.1 0.4-2 1-2 0.6 0 1-0.9 1-2 0-1.1 0.3-2 0.7-2 0.5 0 1.5-1.2 2.3-2.7 0.8-1.6 2.3-3.5 3.2-4.3 0.9-0.8 1.7-2.2 1.7-3 0.1-0.8 1-2.2 2.1-3 1.1-0.8 2-2.1 2-2.7 0-0.7 2.7-4 6-7.3 3.3-3.3 6-6.4 6-7 0-0.6 1-1.6 2.2-2.4 1.3-0.8 5.1-4.1 8.5-7.5 3.5-3.4 6.7-6.1 7.3-6.1 0.6 0 2.3-1.4 4-3 1.7-1.6 3.7-3 4.5-3 0.8 0 1.5-0.4 1.5-1 0-0.6 0.6-1 1.2-1 0.7 0 2.3-0.9 3.5-2 1.3-1.1 3-2 3.8-2 0.8 0 1.5-0.4 1.5-1 0-0.6 0.9-1 2-1 1.1 0 2-0.4 2-1 0-0.6 0.9-1 2-1 1.1 0 2-0.4 2-1 0-0.6 0.9-1 2-1 1.1 0 2-0.4 2-1 0-0.6 1.1-1 2.5-1 1.4 0 2.7-0.4 3-1 0.3-0.6 1.4-1 2.5-1 1.1 0 2-0.4 2-1 0-0.6 1.6-1.2 3.5-1.5 1.9-0.3 5.1-0.7 7-1 1.9-0.3 3.5-0.9 3.5-1.5 0-0.6 2.2-1 5-1 2.7 0 5-0.4 5-1 0-0.6 3-1.3 6.8-1.6 3.7-0.3 12.3-0.6 19.2-0.6 6.9 0 16.1 0.4 20.5 1 4.4 0.6 10.5 1.6 13.5 2.2 3 0.6 7 1.3 8.8 1.5 1.7 0.3 3.2 0.9 3.2 1.5 0 0.6 1.4 1 3 1 1.6 0 3 0.4 3 1 0 0.6 1.4 1 3 1 1.6 0 3 0.4 3 1 0 0.6 0.9 1 2 1 1.1 0 2 0.4 2 1 0 0.6 0.6 1 1.2 1 0.7 0 4.3 1.5 8.1 3.3 3.7 1.7 6.7 3.5 6.7 4 0 0.4 0.9 0.7 2 0.7 1.1 0 2 0.4 2 1 0 0.6 0.7 1 1.5 1 0.8 0 3 1.4 4.8 3 1.7 1.7 3.5 3.1 4 3 0.4 0 2.1 1.4 3.7 3 1.6 1.6 3.4 3 4 3 0.6 0 5.7 4.7 11.5 10.5 5.8 5.8 10.5 10.9 10.5 11.5 0 0.6 0.7 1.7 1.5 2.5 1 1 1.9 1.2 2.8 0.6 0.6-0.5 4.6-1.8 8.7-2.9 4.1-1.1 10.5-2.3 14.3-2.6 3.7-0.3 6.7-1 6.7-1.6 0-0.6 0.9-2 2-3.2 1.1-1.3 2-2.9 2-3.5 0-0.7 0.4-1.3 1-1.3 0.6 0 1-0.8 1-1.7 0-1 0.9-2.5 2-3.3 1.2-0.9 2-2.6 2-4.2 0-1.6 0.4-2.8 1-2.8 0.6 0 1-0.9 1-2 0-1.1 0.4-2 1-2 0.6 0 1-1.4 1-3 0-1.6 0.4-3 1-3 0.6 0 1-1.4 1-3 0-1.6 0.4-3 1-3 0.6 0 1-1.8 1-4 0-2.2 0.4-4 1-4 0.6 0 1-5.3 1-14 0-8.7-0.4-14-1-14-0.6 0-1-1.8-1-4 0-2.2-0.4-4-1-4-0.6 0-1-0.9-1-2 0-1.1-0.4-2-1-2-0.6 0-1-1.1-1-2.5 0-1.4-0.4-2.7-1-3-0.6-0.3-1-1.2-1-2 0-0.8-1.1-2.6-2.5-4-1.4-1.4-2.7-2.5-3-2.5-0.3 0-0.5 1.8-0.5 4 0 2.2-0.4 4-1 4-0.6 0-1 1.4-1 3 0 1.6-0.4 3-1 3-0.6 0-1 0.7-1 1.5 0 0.8-0.6 2.5-1.3 3.7-0.6 1.2-4.5 5.4-8.4 9.5-4 4-7.6 7.3-8 7.3-0.5-0.1-2.3 1.3-4 3-1.8 1.6-4 3-4.8 3-0.8 0-1.5 0.4-1.5 1 0 0.6-0.9 1-2 1-1.1 0-2 0.4-2 1 0 0.6-0.9 1-2 1-1.1 0-2 0.4-2 1 0 0.6-0.9 1-2 1-1.1 0-2 0.4-2 1 0 0.6-1.4 1-3 1-1.6 0-3 0.4-3 1 0 0.6-0.9 1-2 1-1.1 0-3.8 0.6-6 1.3-2.2 0.6-4 1.5-4 2 0 0.4-0.9 0.7-2 0.7-1.1 0-2 0.4-2 1 0 0.6-0.9 1-2 1-1.7 0-1.9-0.5-1.4-2.7 0.4-1.6 0.8-6.5 1-11 0.3-5.1 0-8.3-0.6-8.3-0.6 0-1-3.3-1-8 0-4.7-0.4-8-1-8-0.6 0-1-0.9-1-2 0-1.1-0.4-2.2-1-2.5-0.6-0.3-1-1.6-1-3 0-1.4-0.4-2.5-1-2.5-0.6 0-1-0.7-1-1.5 0-0.8-0.9-2.5-2-3.7-1.1-1.3-2-2.9-2-3.5 0-0.7-0.4-1.3-1-1.3-0.6 0-1-0.6-1-1.2 0-0.7-2-3.4-4.5-6-2.5-2.7-4.8-4.8-5.3-4.8-0.4 0-2.1-1.1-3.7-2.5-1.6-1.4-3.3-2.5-3.8-2.5-0.4 0-0.7 1.1-0.7 2.5 0 1.4 0.4 2.5 1 2.5 0.6 0 1 3.3 1 8 0 4.4-0.6 9.8-1.3 12-0.6 2.2-1.5 4-2 4-0.4 0-0.7 0.9-0.7 2 0 1.1-0.4 2-1 2-0.6 0-1 0.9-1 2 0 1.1-0.4 2-1 2-0.6 0-1 0.8-1 1.8 0 0.9-0.9 2.4-2 3.2-1.1 0.8-2 1.9-2 2.5 0 0.6-2.3 3.6-5.2 6.7-2.9 3.2-5.6 5.8-6 5.8-0.5 0-0.8-4.5-0.8-10 0-6-0.4-10-1-10-0.6 0-1-1.8-1-4 0-2.2-0.4-4-1-4-0.6 0-1-1.8-1-4 0-2.2-0.4-4-1-4-0.6 0-1-1.4-1-3 0-1.6-0.4-3-1-3-0.6 0-1-0.9-1-2 0-1.1-0.4-2-1-2-0.6 0-1-1.1-1-2.5 0-1.4-0.4-2.7-1-3-0.6-0.3-1-1.3-1-2.2 0-1-0.9-2.5-2-3.3-1.1-0.8-2-2.2-2-3 0-0.8-0.9-2.2-2-3-1.1-0.8-2-2.1-2-2.7 0-0.7-3.8-5.1-8.5-9.8-4.7-4.7-9.2-8.5-10-8.5-0.8 0-1.6-0.4-1.8-0.8-0.1-0.4-1.9-1.8-4-3-2-1.2-4.6-2.2-5.7-2.2-1.1 0-2-0.4-2-1 0-0.6-1.4-1-3-1-1.6 0-3-0.4-3-1 0-0.6-1.8-1-4-1-2.2 0-4 0.2-4 0.5z"/><path fill-rule="evenodd" class="d" d="m228 0c2.2 0 4 0.4 4 1 0 0.6-1.4 1-3 1-1.6 0-3 0.2-3 0.5 0 0.3 1.4 2 3 3.8 1.7 1.7 3.1 3.8 3 4.5 0 0.6 0.4 1.2 1 1.2 0.6 0 1 0.9 1 2 0 1.1-0.4 2-1 2-0.6 0-1-0.9-1-2 0-1.1-0.4-2-1-2-0.6 0-1-0.7-1-1.5 0-0.8-1.4-2.8-3-4.5-1.6-1.7-3-3.7-3-4.5 0-1.1 1.1-1.5 4-1.5zm18.5 6c0.8 0 1.5 0.4 1.5 1 0 0.6 0.7 1 1.6 1 0.9 0 2.3 0.7 3 1.5 0.8 0.8 1.1 1.8 0.8 2.3-0.3 0.4-0.8 0.2-1.2-0.4-0.4-0.6-2.2-1.9-4-2.8-1.7-0.9-3.2-1.8-3.2-2.1 0-0.3 0.7-0.5 1.5-0.5zm10 6c0.3 0 3.4 2.9 7 6.5 3.6 3.6 6.3 6.7 6 7-0.3 0.3-3.4-2.4-7-6-3.6-3.6-6.5-6.7-6.5-7 0-0.3 0.2-0.5 0.5-0.5zm58 26c1.4 0 3.7 1.1 5.3 2.5 1.5 1.3 2.5 2.7 2.2 2.9-0.3 0.3-1.7-0.6-3.1-1.9-1.5-1.4-3.2-2.5-3.8-2.5-0.6 0-1.1 0.7-1.1 1.5 0 0.8-0.4 1.5-1 1.5-0.6 0-1-0.9-1-2 0-1.5 0.7-2 2.5-2zm-79.5 6c0.6 0 0.8 1.5 0.5 3.5-0.3 1.9-0.7 5.1-1 7-0.3 1.9-0.9 3.7-1.5 4-0.6 0.3-1-1-1-3 0-1.9 0.4-3.5 1-3.5 0.6 0 1-1.8 1-4 0-2.2 0.4-4 1-4zm89.5 0c0.3 0 1.5 1 2.8 2.3 1.3 1.2 2.9 3.3 3.7 4.7 0.9 1.7 0 1.2-2.8-1.7-2.3-2.4-4.2-4.5-4.2-4.8 0-0.3 0.2-0.5 0.5-0.5zm8 10c0.3 0 1.6 1.1 3 2.5 1.4 1.4 2.5 3.2 2.5 4 0 0.8-0.4 1.5-1 1.5-0.6 0-1.6-1.4-2.3-3-0.6-1.7-1.5-3-2-3-0.4 0-0.7-0.4-0.7-1 0-0.6 0.2-1 0.5-1zm82.1 0c0.2 0 1.1 0.7 1.9 1.5 0.8 0.8 1.2 1.8 0.9 2.3-0.4 0.4-0.8 0.1-1-0.5-0.2-0.7-0.8-1.3-1.4-1.3-0.6 0-1 1.8-1 4 0 2.2-0.4 4-1 4-0.6 0-1-1.1-1-2.5 0-1.4 0.5-3.6 1.1-5 0.6-1.4 1.3-2.5 1.5-2.5zm-248.8 4c2.3 0 4.2 0.4 4.2 1 0 0.6-1.2 1-2.7 1-1.6 0-3.5-0.5-4.3-1-1.1-0.7-0.4-1 2.8-1zm149.1 2c0.5 0 0.6 0.8 0.4 1.8-0.3 0.9-0.7 2.7-0.9 4-0.2 1.2-0.8 2.2-1.4 2.2-0.5 0-1-0.9-1-2 0-1.1 0.5-2 1-2 0.6 0 1-0.9 1-2 0-1.1 0.4-2 0.9-2zm-132.9 2c1.1 0 2 0.4 2 1 0 0.6 0.9 1 2 1 1.1 0 2 0.4 2 1 0 0.6-0.8 0.7-1.7 0.4-1-0.4-2.8-0.8-4-1-1.3-0.2-2.3-0.8-2.3-1.4 0-0.6 0.9-1 2-1zm-34.2 2c0.6 0 3.5 2.3 6.2 5 2.8 2.8 5 5.4 5 6 0 0.6-1.2-0.3-2.7-1.8-1.6-1.6-4.4-4.3-6.3-6-1.9-1.8-2.9-3.3-2.2-3.2zm81.2 2c0.6 0 1 0.1 1 0.3 0 0.1-0.7 2-1.7 4.2-1.3 3.2-1.7 3.6-2.1 2-0.2-1.1 0.1-2.1 0.7-2.3 0.6-0.1 1.1-1.1 1.1-2.2 0-1.1 0.5-2 1-2zm-33.2 4c0.6 0 2.8 1.6 4.7 3.5 1.9 1.9 3.4 3.7 3.3 4-0.2 0.2-2.3-1.3-4.8-3.5-2.5-2.2-3.9-4-3.2-4zm211.5 6.1c0.4-0.1 0.7 0.1 0.7 0.4 0 0.3-2 2.5-4.5 5-2.5 2.5-4.7 4.3-5 4-0.3-0.3 1.4-2.5 3.8-4.9 2.3-2.5 4.5-4.5 5-4.5zm-312.3 5.9c5.3 0 9 0.4 9 1 0 0.6-3.7 1-9 1-5.3 0-9-0.4-9-1 0-0.6 3.7-1 9-1zm250 0c0.6 0 1 2.3 1 5 0 2.8-0.4 5-1 5-0.5 0-1-2.2-1-5 0-2.7 0.5-5 1-5zm-129.8 5.9c2.3 2.5 4 3.6 4.2 2.9 0.4-1 0.5-1 0.5 0 0.1 0.6-0.3 1.4-0.9 1.7-0.5 0.3-2.6-1.1-4.5-3-1.9-1.9-3.4-4-3.3-4.6 0.1-0.6 1.9 0.8 4 3zm213.8 4.1c0.6 0 1 1.7 1 3.8 0 2-0.5 4.4-1 5.2-0.7 1.1-1 0-1-3.8 0-2.8 0.5-5.2 1-5.2zm-373.7 2c0.4 0 0.7 0.4 0.7 1 0 0.6-0.4 1-1 1-0.5 0-1 0.4-1 1 0 0.6 2.3 1 5 1 2.8 0 5 0.4 5 1 0 0.6-2 1-4.5 1-2.7 0-5.1-0.6-6-1.5-1.2-1.2-1.3-1.8-0.2-3 0.6-0.8 1.5-1.4 2-1.5zm331.7 0c0.6 0 1 0.2 1 0.5 0 0.3-0.6 1.2-1.4 2-0.8 0.8-2.2 1.5-3 1.5-0.9 0-1.6 0.4-1.6 1 0 0.6-0.9 1-2 1-1.1 0-2.2 0.6-2.4 1.3-0.2 0.6-0.6 0.9-1 0.5-0.3-0.5 0-1.5 0.8-2.3 0.8-0.8 2.2-1.5 3-1.5 0.9 0 1.6-0.4 1.6-1 0-0.6 0.9-1 2-1 1.1 0 2-0.4 2-1 0-0.6 0.5-1 1-1zm-243.2 2c0.9 0 2.4 0.9 3.2 2 0.8 1.1 2.1 2 2.8 2 0.6 0 2.3 1.1 3.7 2.5 1.4 1.4 2.3 2.7 2 3-0.3 0.3-1.6-0.6-3-2-1.4-1.4-3.4-2.7-4.5-3-1.1-0.3-2-0.9-2-1.5 0-0.6-0.9-1-2-1-1.1 0-2-0.4-2-1 0-0.6 0.8-1 1.8-1zm108.2 4.1c6.3 0 12.4 0.4 13.5 0.9 1.2 0.5-3.7 0.9-13 0.9-10 0.1-14.5-0.3-13.5-0.9 0.8-0.5 6.7-0.9 13-0.9zm-179 1.9c0.6 0 1 0.4 1 1 0 0.6 0.7 1 1.5 1 0.8 0 4.9 3.4 9 7.5 4.1 4.1 7.3 7.7 7 8-0.3 0.3-3.6-2.6-7.5-6.5-3.8-3.9-7.4-7-8-7-0.5 0-1.7-0.7-2.5-1.5-0.8-0.8-1.5-1.7-1.5-2 0-0.3 0.5-0.5 1-0.5zm299 0c1.1 0 2 0.4 2 1 0 0.6-0.9 1-2 1-1.1 0-2 0.4-2 1 0 0.6-0.9 1-2 1-1.1 0-2-0.4-2-1 0-0.6 0.9-1 2-1 1.1 0 2-0.4 2-1 0-0.6 0.9-1 2-1zm-168 6c1.1 0 2 0.4 2 1 0 0.6-1 1.2-2.2 1.4-1.3 0.2-3.4 0.8-4.8 1.2-1.8 0.6-2.3 0.5-1.8-0.4 0.3-0.7 1.5-1.2 2.7-1.2 1.2 0 2.1-0.4 2.1-1 0-0.6 0.9-1 2-1zm141.7 1.8c0.2 1.2 0.8 2.2 1.3 2.2 0.6 0 1 0.4 1 1 0 0.6-0.9 1-2 1-1.1 0-2-0.7-2-1.5 0-0.8 0.3-2.3 0.7-3.2 0.7-1.6 0.8-1.5 1 0.5zm-25.2 6.2c0.3 0 2.5 1 5 2.3 2.5 1.2 4.5 2.5 4.5 3 0 0.4-0.4 0.7-1 0.7-0.5 0-1-0.4-1-1 0-0.6-0.9-1-2-1-1.1 0-2-0.4-2-1 0-0.6-0.9-1-2-1-1.1 0-2-0.4-2-1 0-0.6 0.2-1 0.5-1zm104.5 2c0.6 0 1 1.4 1 3 0 1.6-0.4 3-1 3-0.5 0-1 0.9-1 2 0 1.1-0.4 2-1 2-0.5 0-1-0.9-1-2 0-1.1 0.5-2 1-2 0.6 0 1-1.4 1-3 0-1.6 0.5-3 1-3zm-257.1 8.1c0.9-0.1 0.1 1.2-1.7 2.9-1.8 1.6-3.4 2.8-3.7 2.5-0.3-0.3 0.5-1.6 1.8-2.9 1.2-1.4 2.8-2.5 3.6-2.5zm253.1 3.9c0.6 0 1 0.9 1 2 0 1.1-0.4 2-1 2-0.5 0-1 0.9-1 2 0 1.1-0.4 2-1 2-0.5 0-1-0.9-1-2 0-1.1 0.5-2 1-2 0.6 0 1-0.9 1-2 0-1.1 0.5-2 1-2zm-261.1 2.1c0.9-0.1 0.1 1.2-1.7 2.9-1.8 1.6-3.4 2.8-3.7 2.5-0.3-0.3 0.5-1.6 1.8-2.9 1.2-1.4 2.8-2.5 3.6-2.5zm191.6 3.9c0.8 0 6.2 4.7 12 10.5 5.8 5.8 10.5 11.2 10.5 12 0 0.8 0.5 1.5 1 1.5 0.6 0 1 0.7 1 1.5 0 0.8-0.2 1.5-0.5 1.5-0.3 0-1.3 0.3-2.2 0.7-1.6 0.6-1.7 0.5-0.3-1.2 1.1-1.4 1.2-1.9 0.3-2.2-0.7-0.1-1.3-1-1.3-1.8 0-0.8-4.3-5.8-9.5-11-5.2-5.2-10.2-9.5-11-9.5-0.8 0-1.5-0.4-1.5-1 0-0.6 0.7-1 1.5-1zm60.3 14.2c0.3 0.7 0 1.4-0.6 1.6-0.7 0.1-1.2 0.6-1.2 1.2 0 0.6 2.4 1.1 5.3 1.3 5.2 0.3 5.2 0.3-1 0.5-3.7 0.1-6.3-0.2-6.3-0.8 0-0.6 0.8-1.9 1.7-3 1.2-1.5 1.8-1.7 2.1-0.8zm-301.3 11.8c0.3 0 1.2 0.7 2 1.5 0.8 0.8 1.5 2.2 1.5 3 0 0.8-0.8 1.5-1.7 1.4-1-0.1-2.9-0.5-4.3-0.9-2.4-0.8-2.3-0.8 0.8-0.9 1.7-0.1 3.2-0.5 3.2-1.1 0-0.6-0.4-1-1-1-0.5 0-1-0.4-1-1 0-0.6 0.2-1 0.5-1zm-24.2 4c3.1 0 3.8 0.3 2.7 1-0.8 0.5-2.7 1-4.2 1-1.6 0-2.8-0.4-2.8-1 0-0.6 1.9-1 4.3-1zm369.7 3.1c0.8 0.8 3.7 3.7 6.4 6.4 2.7 2.8 6.1 6.6 7.5 8.5 1.4 1.9 2.8 3.7 3.1 4 0.3 0.3 1.6 2.3 2.8 4.5 1.3 2.2 2 4.1 1.7 4.3-0.3 0.1-1.2-1.3-2.1-3-1-1.8-3.6-5.8-5.9-8.8-2.3-3-6.8-7.9-9.9-10.7-3.1-2.9-5.5-5.6-5.4-5.9 0.2-0.4 0.9 0 1.8 0.7zm-392 2.9c1.1 0 2 0.2 2 0.5 0 0.3-1.7 1.2-3.7 2.1-2.1 0.8-4.1 2.1-4.5 2.7-0.4 0.7-0.9 0.9-1.2 0.5-0.3-0.5 0-1.5 0.8-2.3 0.8-0.8 2.2-1.5 3-1.5 0.9 0 1.6-0.4 1.6-1 0-0.6 0.9-1 2-1zm57.8 4.2c0.3 0.7 0 1.4-0.6 1.6-0.7 0.1-1.2 0.9-1.2 1.7 0 0.8-0.7 2.2-1.5 3-0.8 0.8-1.8 1.2-2.2 0.9-0.5-0.4-0.2-0.8 0.5-1 0.6-0.2 1.2-1.1 1.2-1.9 0-0.8 0.8-2.4 1.7-3.5 1.2-1.5 1.8-1.7 2.1-0.8zm-70.5 3.9c0.4-0.1 0.7 0.1 0.7 0.4 0 0.3-2.5 3-5.5 6-3 3-5.7 5.3-6 5-0.3-0.3 1.9-2.9 4.8-5.9 2.8-3 5.5-5.5 6-5.5zm297.2-0.1c0.2 0-2 3.1-4.8 6.9-2.9 3.8-5.8 7.7-6.5 8.7-0.7 1.1-0.2 0 1-2.4 1.3-2.4 4-6.3 6.2-8.8 2.1-2.4 4-4.4 4.1-4.4zm-309.2 14c0.4 0 0.7 0.4 0.7 1 0 0.6-0.6 1.2-1.2 1.5-1 0.4-1 0.6 0 1 0.6 0.3 1.2 0.9 1.2 1.5 0 0.6-0.9 1-2 1-1.1 0-2-0.7-2-1.5 0-0.8 0.6-2.2 1.3-3 0.6-0.8 1.5-1.4 2-1.5zm40.7 11.1c0.8 0.8 2.1 2 2.7 2.7 0.7 0.6 1.8 1.2 2.3 1.2 0.6 0 3.3 2.3 6 5 2.8 2.8 4.8 5.3 4.5 5.8-0.2 0.4-2.2-1.2-4.5-3.5-2.2-2.4-4.4-4.3-5-4.3-0.5 0-2.6-1.6-4.5-3.5-1.9-1.9-3.4-3.8-3.3-4.1 0.2-0.4 0.9 0 1.8 0.7zm406.7 22.4c0.2 1.6 0.2 4.8 0 7-0.2 2.2-0.4 0.9-0.4-3 0-3.9 0.2-5.6 0.4-4zm-159 3.5c0.2 2.5 0.2 6.8 0 9.5-0.2 2.8-0.3 0.7-0.3-4.5 0-5.2 0.1-7.5 0.3-5zm-226.1-3c0.2 0 0.4 1.8 0.4 4 0 2.2-0.4 4-1 4-0.5 0-1-1.1-1-2.5 0-1.4 0.3-3.2 0.6-4 0.3-0.8 0.8-1.5 1-1.5zm383.9 14.2c0.2 0.4 0.1 1.9-0.5 5.8l-55.5-0.5 55-1 0.3-2.5c0.1-1.4 0.4-2.2 0.7-1.8zm-464.2 1.9c0.4-0.1 0.7 0.1 0.7 0.4 0 0.3-1.4 2-3 3.8-1.7 1.7-3.1 2.6-3 2 0-0.7 1-2.4 2.3-3.7 1.2-1.4 2.5-2.5 3-2.5zm78.3-0.1c0.2 0 0.3 5.1 0.2 11.3-0.1 9.5-0.2 10.2-0.7 4.7-0.3-3.6-0.4-8.6-0.3-11.2 0.2-2.7 0.6-4.8 0.8-4.8zm286.5 6.5c1.1 2.8 2.5 5.6 3.2 6.3 0.7 0.7 0.9 1.6 0.5 2-0.4 0.4-1.9-1.8-3.3-4.8-1.4-3-2.5-6.2-2.4-7 0-0.8 0.9 0.8 2 3.5zm8.7 13.5c3.1 3.4 4.3 4 7.7 4.1 2.2 0 6.3 0.5 9 0.9 3.7 0.6 2.7 0.7-4 0.3-8.7-0.5-9.1-0.6-12.8-4.2-2-2-3.7-4-3.6-4.4 0-0.4 1.7 1.1 3.7 3.3zm-363 10.5c3.1 0.3 5.9 0.8 6.2 1.1 0.3 0.2-2.3 0.4-5.7 0.4-3.7 0-6.3-0.4-6.3-1 0.1-0.7 2.1-0.9 5.8-0.5zm69.2-0.5c0.6 0 1 2.4 0.9 5.3 0 3.8-0.3 4.7-0.9 3.2-0.5-1.1-0.9-3.5-0.9-5.2-0.1-1.8 0.4-3.3 0.9-3.3zm152 1.4c5.2 0 7.3 0.1 4.5 0.3-2.7 0.2-7 0.2-9.5 0-2.5-0.2-0.2-0.3 5-0.3zm-29 2.8c0.8-0.1-2.3 1.2-7 2.8-4.7 1.6-8.7 2.9-9 2.9-0.3 0 0.9-0.7 2.5-1.6 1.7-0.9 5-2.2 7.5-2.9 2.5-0.7 5.2-1.2 6-1.2zm228.3 1.8c0.4 0 2.7 1.4 5.2 3 2.5 1.6 4.7 3.5 5 4 0.3 0.5-1.6-0.4-4.2-2.2-2.7-1.7-5.2-3.5-5.8-4-0.5-0.4-0.7-0.8-0.2-0.8zm-380.8 4c0.8 0 1.7 0.5 2 1 0.3 0.5 1.2 1 2 1 0.8 0 2.5 0.9 3.8 2 1.9 1.7 1.9 2 0.5 2-1 0-1.8-0.5-1.8-1 0-0.5-0.9-1-2-1-1.1 0-2-0.5-2-1 0-0.5-0.9-1-2-1-1.1 0-2-0.5-2-1 0-0.5 0.7-1 1.5-1zm682.5 3.4c6.9 0 9.6 0.1 6 0.3-3.6 0.2-9.2 0.2-12.5 0-3.3-0.2-0.4-0.3 6.5-0.3zm-460 1.7c0.8 0.8 2.6 2.7 4 4.3 1.4 1.6 2.9 3.6 3.4 4.5 0.5 0.9-1.4-0.9-4.2-3.9-2.9-3-5.1-5.7-5-5.9 0.2-0.2 0.9 0.3 1.8 1zm171.4 0c1.1 0.7 3.8 3.2 5.9 5.4 2.2 2.2 5.2 5.6 6.6 7.5 1.4 1.9 2.8 3.7 3.2 4 0.3 0.3 2 2.6 3.7 5.3 1.8 2.6 2.8 4.7 2.2 4.7-0.5 0-1-0.3-1-0.7 0-0.5-2.3-3.9-5.2-7.8-2.8-3.9-5.4-7.2-5.7-7.5-0.3-0.3-3.1-3.2-6.1-6.5-3-3.2-4.6-5.2-3.6-4.4zm268.1-1c1.4 0.1 1 0.4-4.6 2.4l0.1 59.5h11.8c8.9 0 13.3 0.4 18.5 2 3.7 1.1 6.9 2.3 7.1 2.8 0.2 0.4-2-0.2-4.8-1.2-3.7-1.4-8.9-2.1-33.1-3.1l-0.3-30c-0.2-27.5-0.1-30.1 1.5-31.2 1-0.7 2.7-1.3 3.8-1.2zm-544.3 6.9c0.7 0 0.4 0.6-0.7 1.3-1.1 0.8-4.9 4.5-8.4 8.3-3.4 3.8-5.9 6-5.3 4.9 0.5-1.1 3.7-4.8 7.1-8.2 3.3-3.5 6.7-6.3 7.3-6.3zm-101.4 1.1c0.8-0.1-1.8 3-5.7 6.9-3.9 3.9-7.3 6.8-7.6 6.5-0.3-0.3 2.3-3.4 5.8-6.9 3.4-3.6 6.8-6.5 7.5-6.5zm711.5 3.9c0.4 0 2.6 1.5 4.9 3.3 2.3 1.7 5.5 4.4 7.2 6 1.7 1.5 2.5 2.7 1.9 2.7-0.7 0-1.4-0.4-1.5-0.8-0.2-0.5-3-3-6.3-5.6-3.3-2.7-6.2-5-6.5-5.3-0.3-0.2-0.2-0.3 0.3-0.3zm-625.9 12c0.2 0-1 2.4-2.6 5.3-1.6 2.8-3.4 5.7-4 6.2-0.6 0.5-0.5-0.1 0.2-1.5 0.7-1.4 2.4-4.2 3.7-6.2 1.3-2.1 2.5-3.8 2.7-3.8zm-106.1 8c0.4 0 0.7 0.5 0.7 1 0 0.5-0.4 1-1 1-0.5 0-1 0.9-1 2 0 1.1-0.4 2-1 2-0.5 0-1 0.9-1 2 0 1.1-0.4 2-1 2-0.5 0-1-0.9-1-2 0-1.1 0.5-2 1-2 0.6 0 1-0.7 1-1.5 0-0.8 0.6-2.2 1.3-3 0.6-0.8 1.5-1.4 2-1.5zm754 0c0.6 0 2.4 2.3 3.9 5 1.6 2.8 2.8 5.5 2.8 6 0 0.5 0.5 1.1 1.2 1.3 0.6 0.1 0.9 0.7 0.7 1.4-0.2 0.6-2.5-2.2-5.1-6.3-2.5-4.1-4.1-7.4-3.5-7.4zm-326.6 8c0.4 0 1.8 2.5 3 5.5 1.3 3 2.3 5.8 2.3 6.3-0.1 0.4-1.4-1.8-3-4.8-1.6-3-2.9-5.8-3-6.2 0-0.5 0.3-0.8 0.7-0.8zm-370.2 12c0.3 0 1.6 1.1 3 2.5 1.4 1.4 2.5 3 2.5 3.5 0 0.5 1.4 2.4 3 4 1.7 1.6 3 3.6 3 4.3 0.1 0.6-1.7-0.7-4-3-2.2-2.4-4-5-4-5.8 0-0.8-0.3-1.5-0.7-1.5-0.5 0-1.4-0.9-2.1-2-0.7-1.1-1-2-0.7-2zm-10.2 2c0.9 0 1.7 0.7 1.7 1.5 0 0.8-2.6 4.1-5.7 7.3-3.2 3.1-6.5 6.9-7.3 8.5-0.8 1.5-1.8 2.7-2.2 2.7-0.5 0-0.8-0.5-0.8-1 0-0.5 0.5-1 1-1 0.6 0 1-0.7 1-1.5 0-0.8 2.7-4.2 6-7.5 3.3-3.3 6-6.2 6-6.5 0-0.3-1-0.5-2.2-0.5-1.9 0-2-0.2-0.8-1 0.8-0.5 2.3-1 3.3-1zm101.1 7.5l0.4 6c0.2 3.3 0.1 7-0.8 10.5l-57.5-0.5 57-1zm554.1 7.6c1.1 0.7 3.5 2.7 5.3 4.3 1.8 1.7 4.2 4.5 5.3 6.1 1.6 2.3 1.2 2.1-1.3-0.8-1.8-2-5.1-5.4-7.3-7.3-2.2-2-3.1-3-2-2.3zm-710.5 6.9c0.5 0 1 0.9 1 2 0 1.1 0.5 2.2 1.2 2.4 1 0.3 1 0.6 0 1.7-1.1 1.2-1.3 1.1-1.2-0.3 0-1-0.5-1.8-1-1.8-0.6 0-1-0.9-1-2 0-1.1 0.4-2 1-2zm85.5 0c0.2 0 2.5 2 5 4.5 2.4 2.5 4.4 4.7 4.2 5-0.1 0.3-2.4-1.5-5-4-2.6-2.5-4.7-4.7-4.7-5 0-0.3 0.2-0.5 0.5-0.5zm109.4 0.6c0.3 0.2-0.3 1.1-1.4 1.9-1.1 0.7-3.8 2.4-6 3.6-2.2 1.2-3.6 1.8-3.2 1.3 0.5-0.5 2.9-2.3 5.4-4 2.6-1.8 4.9-3 5.2-2.8zm55.8 0c0.1 0.2-1.3 3.5-3.2 7.4-2 3.9-3.7 6.9-4 6.8-0.2-0.2 1.2-3.5 3.2-7.5 2-3.9 3.8-7 4-6.7zm319.3-0.4c4.1 0 9.2 0.2 11.4 0.6 2.2 0.4-2.8 0.7-11.5 0.7-8.5 0-13.6-0.3-11.4-0.6 2.2-0.3 7.3-0.7 11.5-0.7zm-180 1.9c0.2 0 1 0.7 1.7 1.7 0.7 0.9 1.2 2.2 1.2 2.7 0 0.5-0.6 0.1-1.4-1-1.4-1.9-1.7-1.8-7.5 4.3-3.3 3.4-6.2 6.1-6.5 6-0.2-0.2 2.3-3.3 5.8-7 3.4-3.7 6.4-6.7 6.7-6.7zm-207.5 6.1c0.5-0.1-0.2 0.5-1.5 1.3-1.4 0.7-6 2.5-10.3 3.9-4.2 1.4-7.7 2.3-7.7 1.9 0-0.5 4.2-2.2 9.2-3.9 5.1-1.7 9.7-3.2 10.3-3.2zm424-0.2c0.5 0.1 3.4 1.6 6.5 3.4 3 1.9 7.5 5.3 10 7.7 2.4 2.3 3.6 3.6 2.5 2.8-1.1-0.7-4.1-3-6.5-5-2.5-2-6.6-4.8-9-6.3-2.5-1.4-4.1-2.6-3.5-2.6zm-81.3 2.1c0.4-0.1 0.8 0.1 0.8 0.4 0 0.3-2.2 1.6-4.8 3-2.6 1.4-4.8 2.3-5 2-0.1-0.3 0.8-1.1 2-1.7 1.3-0.7 3.2-1.8 4.3-2.4 1.1-0.7 2.3-1.2 2.7-1.3zm-420.5 5.9c0.7 0 2.7 1.4 4.5 3 1.8 1.7 2.8 3.1 2.3 3-0.6 0-2.6-1.4-4.5-3-2-1.6-3-3-2.3-3zm409.8 1c0.5 0-0.6 1.1-2.5 2.5-2 1.5-5.5 4.5-8 6.8-2.4 2.3-4.2 3.7-4 3 0.3-0.7 3.4-3.7 7-6.8 3.5-3 6.9-5.5 7.5-5.5zm-62.4 5c0.4 2.5 0.7 9 0.7 14.5 0 5.5-0.3 12.3-0.7 15-0.3 2.8-0.6-3.8-0.6-14.5 0-10.7 0.3-17.5 0.6-15zm-304.6-1.8c0.5 0-0.4 0.6-2 1.3-1.7 0.7-4.4 1.6-6 2.1-1.8 0.4-2.7 0.3-2.2-0.2 0.5-0.5 2.7-1.4 5-2 2.3-0.6 4.6-1.2 5.2-1.2zm91.2 0.8c0.1 0-0.6 1.2-1.6 2.8-1.1 1.5-3.3 4.1-5.1 5.7-1.7 1.6-3.1 2.7-3 2.3 0-0.5 2.1-3 4.7-5.8 2.6-2.7 4.9-5 5-5zm-124.7 1c0.5 0 1 0.5 1 1 0 0.5 0.9 1 2 1 1.1 0 2 0.5 2 1 0 0.5 0.6 1 1.5 1 0.8 0 2.1 0.7 3 1.5 0.8 0.8 1.2 1.7 1 2-0.3 0.3-1.1-0.1-1.8-0.7-0.8-0.7-3.2-2.2-5.6-3.3-2.3-1.1-4.2-2.3-4.2-2.7 0.1-0.5 0.5-0.8 1.1-0.8zm283.7 8c0.2 3.6 0.2 9.9 0 14-0.2 4.1-0.3 1.2-0.3-6.5 0-7.7 0.1-11.1 0.3-7.5zm390.2-2c0.5 1.4 0.9 4.8 1 7.5 0.1 2.8-0.1 4.8-0.3 4.5-0.2-0.3-0.6-3.6-1-7.5-0.3-4.4-0.2-6.1 0.3-4.5zm-763.3 10c0.2 0 0.4 2.3 0.4 5 0 2.8-0.5 5-1 5-0.6 0-1-1.6-1-3.5 0-1.9 0.2-4.2 0.6-5 0.3-0.8 0.7-1.5 1-1.5zm68.6 2.1c1-0.1 1.5 0.4 1.3 0.9-0.3 0.5-1.7 1-3 1-1.4 0-2.5 0.5-2.5 1 0 0.5-1.4 1-3 1-1.7 0-3 0.5-3 1 0 0.5-0.9 1-2 1-1.1 0-2-0.5-2-1 0-0.5 0.6-1 1.5-1 0.8 0 2.3-0.4 3.2-0.9 1-0.5 3.1-1.3 4.8-1.9 1.6-0.5 3.8-1 4.7-1.1zm396.7 1.9c0.3 0.1-1 3.2-2.9 7-2 3.8-3.6 6.7-3.8 6.4-0.1-0.2 1.2-3.3 2.9-6.9 1.8-3.6 3.4-6.5 3.8-6.5zm300.1 9c0.4 3.6 0.8 14.8 0.8 25 0 10.2-0.3 20.2-0.6 22.3-0.4 2.1-0.8-9.2-0.8-25-0.1-17.2 0.1-26.2 0.6-22.3zm-718-3c0.5 0 1 0.2 1 0.5 0 0.3-0.7 1.2-1.5 2-0.7 0.8-2.1 1.5-3 1.5-0.8 0-1.7 0.6-1.9 1.3-0.2 0.6-0.6 0.9-1 0.5-0.3-0.5 0-1.5 0.8-2.3 0.8-0.8 2.1-1.5 3-1.5 0.9 0 1.6-0.5 1.6-1 0-0.5 0.4-1 1-1zm-8.8 6c0.6 0-1.3 2.3-4.1 5-2.8 2.8-5.5 4.8-5.9 4.5-0.4-0.2 1.5-2.5 4.2-5 2.7-2.5 5.3-4.5 5.8-4.5zm-39.2 3c0.5 0.8 0.9 3.2 1 5.3 0 2-0.5 3.7-1 3.7-0.6 0-1-2.4-1-5.2 0-3.8 0.3-4.9 1-3.8zm216.5 15.5l24.2-0.3c13.4-0.1 24.3 0 24.3 0.3 0 0.3 0.3 1.3 0.6 2.3 0.6 1.6 0.6 1.6-0.7 0-1.3-1.6-4-1.8-24.9-2.1zm236.2 13.6c0.2 3 0.2 8.4 0 12-0.2 3.6-0.3 1.1-0.3-5.5 0-6.6 0.1-9.5 0.3-6.5zm256-3.5c0.1 0.3-1.5 4.1-3.7 8.5-2.2 4.4-4.4 8.2-4.8 8.4-0.4 0.2 1.3-3.6 3.7-8.5 2.5-4.8 4.6-8.6 4.8-8.4zm-574 5c0.2 2.2 0.2 6 0 8.5-0.2 2.5-0.4 0.7-0.4-4 0-4.7 0.2-6.7 0.4-4.5zm227.8-2.5c0.2 0-0.1 1-0.7 2.2-0.6 1.3-2.5 4.3-4.2 6.8-1.6 2.5-5.5 7.1-8.6 10.3-3 3.2-6.3 6.3-7.3 6.8-0.9 0.5 1.4-2.2 5.1-5.9 3.8-3.7 8.8-9.8 11.1-13.5 2.3-3.7 4.4-6.7 4.6-6.7zm273.6 11c0.5 3 1.4 6.8 1.9 8.5 0.9 2.8 0.8 2.8-0.6 1-0.8-1.1-1.5-3.1-1.5-4.5 0-1.4-0.1-4.3-0.4-6.5-0.2-2.2 0-1.5 0.6 1.5zm59.8 8.7c0.3 0.1-0.8 1.7-2.4 3.5-1.7 1.9-4.4 4.4-6 5.7-1.7 1.4-2.6 1.9-2 1.3 0.5-0.7 3-3.4 5.4-6 2.4-2.6 4.7-4.7 5-4.5zm68.7 0.1c0.1 0.7 0 3.9-0.2 7-0.3 3.1-0.7 5.5-1 5.2-0.3-0.3-0.2-3.4 0.2-7 0.4-3.6 0.8-5.9 1-5.2zm-558.2 3.3c0.5-0.1-0.4 1.2-2 2.9-1.6 1.7-5.4 4.3-8.4 6-3.1 1.6-6.2 2.9-7 2.9-0.9 0 1.2-1.3 4.5-2.8 3.3-1.6 7.3-4.2 9-5.9 1.6-1.7 3.4-3.1 3.9-3.1zm101.4 12.3c7.3 0.1 12.3 0.4 11 0.7-1.3 0.4-6.2 0.7-10.8 0.7-4.7 0-9.7-0.3-11-0.7-1.4-0.4 3.5-0.7 10.8-0.7zm369.7-0.2c0.5-0.1-0.6 0.7-2.5 1.5-2 0.9-6 1.8-9 2-3.1 0.3-6.7 0-8-0.5-1.9-0.8-1.1-0.9 3.5-0.6 3.7 0.3 7.6 0 10.5-1 2.4-0.8 4.9-1.4 5.5-1.4zm-272.9 7.3c0.2 0.2-1.1 2.6-2.8 5.2-1.8 2.6-4.1 5.7-5.2 6.8-1 1.1-1.5 1.3-1 0.5 0.5-0.9 2.6-4.1 4.8-7.3 2.2-3.2 4.1-5.5 4.2-5.2zm-10.4 14.6c0.4-0.1 0.8 0.1 0.8 0.4 0 0.3-3.7 4.2-8.3 8.7-4.5 4.6-10.5 9.9-13.2 11.8-2.8 2-5.7 4-6.5 4.4q-1.5 0.9-0.5-0.1c0.5-0.6 3.7-3 7-5.5 3.3-2.5 9.1-8 13-12.1 3.8-4.2 7.3-7.6 7.7-7.6zm-155.8 12.1c2 2.6 5.5 6.2 8 8 2.4 1.8 5.2 3.9 6.2 4.6 1 0.7 1.3 1.1 0.7 1-0.7-0.2-3.6-2.1-6.5-4.2-3-2.1-6.8-5.7-8.5-8-1.8-2.3-3.3-4.6-3.3-5.1-0.1-0.6 1.5 1.1 3.4 3.7zm521.3 3.3c0.2 3.3 0.2 8.9 0 12.5-0.2 3.6-0.3 0.9-0.3-6 0-6.9 0.1-9.8 0.3-6.5zm-267.7 10.4c0.2 0 2.6 1.2 5.2 2.5 2.6 1.4 4.7 2.8 4.5 3.1-0.1 0.3-2-0.4-4.2-1.6-2.2-1.1-4.5-2.5-5-3-0.6-0.5-0.8-1-0.5-1zm325.5 3.3l-4.5 0.8c-2.5 0.4-5.3 1-6.3 1.3-0.9 0.4-1.7 0.2-1.7-0.3 0-0.6 1-1.2 2.2-1.4 1.3-0.2 4.1-0.4 10.3-0.4zm-111.2 1.8c0.1 0 0.2 9.4 0.2 42h-155.5v42l88.2 0.4c48.6 0.3 90.7 0.4 93.8 0.4 3 0 12-0.1 19.9-0.2 12-0.1 14.5 0.1 14.8 1.4 0.3 1.1 0.2 1.2-0.4 0.2-0.6-1-4.2-1.2-15.3-0.8-8 0.2-16.8 0.7-19.5 1.1-3.1 0.4-5.4 0.2-6-0.5-0.7-0.7-27.2-1-176.5-1l0.5-43.5 155-0.5-0.4-16.8c-0.2-9.2-0.1-18.4 0.3-20.5 0.3-2 0.7-3.7 0.9-3.7zm-168.3 7.5c8.7 0 13.6 0.3 11.4 0.7-2.2 0.4-7.3 0.7-11.4 0.7-4.2 0-9.3-0.3-11.4-0.7-2.3-0.4 2.6-0.7 11.4-0.7zm-227 1.9c6.8 0 9.5 0.1 6 0.3-3.6 0.2-9.2 0.2-12.5 0-3.3-0.2-0.4-0.3 6.5-0.3zm341 0c6.3 0 8.8 0.1 5.5 0.3-3.3 0.2-8.5 0.2-11.5 0-3.1-0.2-0.4-0.3 6-0.3zm170.7 14.6c0.1 0-0.3 0.9-0.8 2-0.5 1.1-3 3.7-5.5 5.7-2.4 2.1-4.7 3.4-5 3-0.2-0.4 0.9-1.5 2.6-2.5 1.6-0.9 4.2-3.2 5.7-4.9 1.5-1.8 2.9-3.3 3-3.3zm-53.2 17l22 0.6-22.5 0.4-2-4c-1.1-2.2-2-4.6-2-5.3 0-0.7 1 0.9 4.5 8.3zm116.4 11c0.3-0.1 3.4 2.8 6.8 6.2 3.5 3.5 6.2 6.4 6 6.5-0.1 0.1-3.2-2.7-6.8-6.2-3.7-3.6-6.4-6.5-6-6.5zm14.1 14.5c0.5 0.3 2.3 2.5 4 5 1.6 2.5 2.9 4.7 2.7 5-0.1 0.3-1.9-2-4-5-2-3-3.3-5.3-2.7-5zm12.6 49c0.1 0.2-0.3 2.8-0.8 5.7-0.6 2.9-2 6.9-3 8.8-1.1 1.9-1.6 2.6-1.2 1.5 0.4-1.1 1.6-5.2 2.8-9.2 1.1-3.9 2.2-7 2.2-6.8zm-141.1 29.5c0.2 0 1.8 2 3.5 4.5 1.6 2.5 3 4.8 3 5.2 0 0.4-1.1-0.6-2.5-2.2-1.4-1.7-2.5-3.6-2.5-4.3 0-0.7-0.5-1.2-1-1.2-0.6 0-1-0.5-1-1 0-0.6 0.2-1 0.5-1zm12.7 16.1c2.9 3 7.2 6.8 9.5 8.5 2.4 1.6 4.1 3 3.8 3.1-0.3 0.2-2.7-1.2-5.3-3.1-2.6-1.9-6.6-5.5-9-8-2.3-2.5-4.2-5-4.3-5.4 0-0.4 2.4 1.8 5.3 4.9zm104.2-3.1c0.5 0-0.8 1.6-3 3.6-2.2 1.9-4.8 4-5.9 4.5-1.1 0.6 0.2-1 3-3.5 2.7-2.5 5.4-4.6 5.9-4.6zm-11.5 9.1c0.3-0.1-0.2 0.5-1 1.3-0.8 0.8-4.7 3.1-8.7 5-4 2-7.4 3.5-7.7 3.3-0.3-0.1 3.4-2.3 8.2-4.8 4.8-2.5 9-4.7 9.2-4.8z"/><path class="a" d="m730 189.2c-2.5 0.5-7.6 1.8-11.5 3-3.9 1.1-9.5 3.4-12.5 5-3 1.7-6.9 4-8.5 5.1-1.6 1.2-5.3 4.4-8.1 7.2-2.7 2.7-7 7.9-9.5 11.5-2.4 3.6-4.6 6.7-5 7-0.3 0.3-3.1 4.3-6.4 9-3.2 4.7-8.3 12.1-11.4 16.5-3 4.4-8.8 11.3-12.8 15.3-4 3.9-8 7.2-8.8 7.2-0.8 0-1.5 0.5-1.5 1 0 0.5-0.8 1.2-1.7 1.5-1 0.3-3.8 1.2-6.3 2-2.5 0.8-6.5 1.5-9 1.5-2.5 0-6.7-0.6-9.5-1.4-2.7-0.8-6.4-2.7-8.1-4.3-1.7-1.6-3.7-4.8-4.5-7.6-1-3.5-1.9-4.7-3.4-4.8-1.1-0.1-12.8-0.1-26 0-13.2 0.1-24.7 0.1-25.5 0.1-1 0-1.5 1-1.4 3.3 0.1 1.7 0.7 6.1 1.3 9.7 0.7 3.6 2.4 8.8 3.8 11.5 1.4 2.8 3.5 6.3 4.7 8 1.2 1.6 3.9 4.7 6.2 7 2.2 2.2 5.8 5.4 8 7.1 2.1 1.8 5.7 4.2 7.9 5.4 2.2 1.2 7.9 3.5 12.8 5.1 7.9 2.6 10 2.9 22.4 2.9 7.6 0 16.5-0.5 19.8-1.1 3.3-0.6 10.7-2.6 16.5-4.4 5.8-1.8 12.8-4.5 15.5-6 2.8-1.5 7.6-4.6 10.9-6.9 3.2-2.2 6.6-4.5 7.5-5 0.9-0.5 3-2.7 4.8-5 1.7-2.2 4-5 5-6.1 1-1.2 4.3-5 7.3-8.5 3-3.6 5.7-6.7 6-7 0.4-0.3 1.3-1.4 2.1-2.6 0.8-1.1 3.9-4.9 6.9-8.4 3-3.4 6-6.8 6.6-7.4 0.6-0.6 2.6-2.5 4.5-4.1 1.9-1.7 5.7-4.4 8.4-6 2.8-1.6 6.6-3.6 8.5-4.3 2.3-0.9 8.2-1.5 16.7-1.6l13.3-0.1v-45c-5.8-2.9-9.9-4.3-12.8-5.1-2.8-0.8-8.2-1.3-11.9-1.3-3.8 0.1-8.8 0.6-11.3 1.1zm-442 387.8v31l56.5-0.5c0.8-9.4 0.9-23.3 0.9-36.8l-0.1-24.7h-57.3z"/><path class="b" d="m761.8 192.3l4.2 2.2v45.5c-4.4 0.1-4.4 0.2-2.5 0.9 1.1 0.5 2.3 0.7 2.8 0.5 0.4-0.2 0.7-11 0.7-23.9v-23.5c-6.2-3.1-8.3-4-8.7-3.9-0.5 0 1.1 1 3.5 2.2zm-72.8 16c-2.5 2.4-4.3 4.6-4.2 5 0.1 0.4 2.2-1.3 4.7-3.8 2.5-2.5 4.4-4.7 4.2-5-0.2-0.2-2.3 1.5-4.7 3.8zm-137.5 55.4c5.5 0.2 14.7 0.2 20.5 0 5.8-0.1 1.3-0.3-10-0.3-11.3 0-16 0.2-10.5 0.3zm311 21.3c0.3 4.1 0.8 12 1.1 17.5 0.5 8.2 0.2 11.8-1.7 20.5-1.9 9-2.3 13.5-2.3 31.5-0.1 14.4 0.3 22.9 1.3 27 0.7 3.3 2.3 9.1 3.4 13 1.1 3.9 3.1 9.2 4.5 12 1.4 2.7 4.4 7.5 6.7 10.5 2.4 3 9.7 10.9 16.2 17.5 6.6 6.6 13.8 14.5 16.1 17.5 2.3 3 4.2 5.8 4.2 6.2 0 0.5 0.8 1.7 1.8 2.7 1.6 1.9 1.7 1.6 2.9-9.2 0.7-6.2 1.7-16.2 2.3-22.2 0.5-6 1-13.7 1-17 0-3.3-0.4-8.7-1-12-0.5-3.3-1.5-9.1-2.2-12.9-0.7-3.7-1.6-7-2-7.2-0.5-0.2-0.8-1.1-0.8-1.9 0-0.8-4.1-9.9-9.1-20.3-5-10.3-9.5-19.5-10-20.5-0.7-1.2-0.5-1.7 0.6-1.7 0.8 0 5 3.5 9.3 7.7 4.2 4.3 9.8 10.7 12.4 14.3 2.5 3.6 6.9 11 9.6 16.5 2.7 5.5 5.4 11.9 6 14.2 0.7 2.4 1.7 6 2.2 8 0.6 2.1 1.5 6.7 2 10.3 0.5 3.6 1 9.1 1 12.2 0 3.2 0.3 5.8 0.8 5.8 0.4 0 1.3-2.6 2.1-5.7 0.7-3.2 1.7-6.9 2.1-8.3 0.4-1.4 1.4-6.5 2.1-11.5 0.7-5 1.3-17.3 1.3-27.5 0-16.8-0.2-19.2-2.4-26-1.3-4.1-3.8-9.8-5.4-12.5-1.7-2.8-5.8-7.6-9.1-10.9-3.3-3.2-8.6-7.4-11.7-9.2-3.2-1.9-6.3-3.4-6.8-3.4-0.5 0-1-0.5-1-1 0-0.5-1-1-2.2-1-1.3 0-2.8-0.3-3.3-0.8-0.5-0.4-2.8-1.4-5-2.1-2.2-0.7-4.9-1.6-6-2.1-1.1-0.5-5.4-2.4-9.5-4.3-4.1-1.8-8.8-4.6-10.4-6.3-1.6-1.6-3.6-4-4.5-5.4-0.9-1.4-1.9-3-2.3-3.5-0.5-0.5-1.7-2.1-2.8-3.5l-2.1-2.5zm155.5-0.7c-1.3 3.1-2.8 5.7-3.2 5.7-0.4 0-0.8 0.7-0.8 1.5 0 0.8-6.1 7.7-13.7 15.3-7.6 7.5-16.6 17.2-20 21.5-3.4 4.2-6.3 8.2-6.3 8.7 0 0.5-0.3 1-0.7 1-0.4-0.1-1.4 1.3-2.3 3-0.8 1.7-1.8 3.1-2.2 3-0.4 0-0.8 0.9-0.8 2 0 1.1-0.3 2.1-0.7 2.2-0.4 0.2-1.7 2.3-2.9 4.8-1.2 2.5-3.1 7-4.2 10-1.1 3-2.4 7.3-3 9.5-0.6 2.2-1.5 5.8-2.1 8-0.5 2.2-1 9.9-1 17 0 12 0.2 13.6 3 21.5 1.7 4.7 3.8 10.7 4.6 13.5 1 3.4 1.3 7.4 1 12.5-0.3 4.1-1.2 9.1-1.9 11-0.7 1.9-1.6 4.1-2 4.7-0.4 0.7-0.3 1.3 0.2 1.3 0.6 0 1-0.5 1-1 0-0.5 0.6-1 1.3-1 0.7 0 2.3-1.3 3.6-2.8 1.2-1.5 4.6-5.2 7.5-8.2 2.9-3 6.3-7.1 7.7-9 1.3-1.9 3-4.1 3.7-4.8 0.7-0.6 1.2-1.7 1.2-2.2 0-0.5 0.6-1.6 1.4-2.3 0.7-0.6 2.5-3.2 4-5.7 1.4-2.5 4.1-7.6 6-11.5 1.9-3.9 4.3-9.7 5.4-13 1.1-3.3 2.5-8.3 3.2-11 0.6-2.8 1.6-6.6 2.1-8.5 0.4-1.9 1.1-5.3 1.5-7.5 0.3-2.2 1-6 1.4-8.5 0.5-2.5 1.3-7.3 1.9-10.8 0.6-3.4 1.5-6 1.9-5.8 0.4 0.2 1.6 3.7 2.7 7.7 1.5 5.8 1.9 10.8 1.9 22.9 0 12.3-0.5 17.7-2.3 26-1.2 5.8-2.7 11.3-3.2 12.2-0.5 1-0.9 2.6-0.9 3.5 0 1-1.4 4.7-3.2 8.3-1.7 3.6-4 7.8-5.2 9.5-1.1 1.6-3 3.8-4.1 4.8-1.1 1-1.5 1.7-1 1.7 0.6 0 0 0.7-1.2 1.5-1.2 0.8-2.3 2-2.3 2.5 0 0.6 1.2 0.4 2.8-0.4 1.5-0.8 3.4-2.2 4.2-3.1 0.9-0.9 2.1-1.6 2.8-1.5 0.7 0 1.4-0.3 1.5-0.8 0.1-0.4 2.3-2.3 4.7-4.2 2.5-1.9 7.4-6.4 10.9-10 3.5-3.6 8.3-9 10.6-12 2.4-3 5.4-8 6.8-11 1.4-3 3.3-7.8 4.2-10.5 1-2.8 2.2-9.3 2.8-14.5 0.8-6.9 0.8-11.7-0.1-17.5-0.6-4.4-1.3-9.7-1.6-11.8-0.3-2-1-3.7-1.6-3.7-0.5 0-1-0.9-1-2 0-1.1-0.4-2.8-0.8-3.8-0.5-0.9-1.5-3.1-2.2-4.7-0.6-1.6-1.5-3.7-1.9-4.5-0.4-0.8-1.4-2.6-2.2-4-0.7-1.4-1.6-2.7-1.9-3-0.3-0.3-1.9-3.4-3.7-7-1.7-3.6-4.1-9.4-5.3-13-1.5-4.3-2.5-10.1-2.9-17l-0.6-10.5zm-401-3.3l-6.5 0.7c9.3 0.2 12.9-0.2 14-0.7 1.2-0.4 1.4-0.8 0.5-0.7-0.8 0-4.4 0.4-8 0.7zm-15.5 43.8c2.2 0.2 6.1 0.2 8.5 0 2.5-0.2 0.7-0.4-4-0.4-4.6 0-6.7 0.2-4.5 0.4zm-208.1 28.5c0.6 0.4 2.7 0.7 4.6 0.7 2-0.1 4.3-0.4 5.2-0.8 1-0.3-1.1-0.7-4.6-0.7-3.5 0-5.8 0.4-5.2 0.8zm678.6 54.1c-2.4 0.7-7.8 3-12 5.1-4.1 2-7.7 4.1-8 4.4-0.2 0.4-2 1.8-4 3.1-1.9 1.4-7.1 6.1-11.5 10.5-4.5 4.4-9.9 10.7-12.1 14-2.2 3.3-5.1 8.1-6.5 10.5-1.5 2.5-4.4 6.4-6.5 8.7-2.1 2.2-6.6 5.7-9.9 7.7l-6 3.6c13.6 4.1 17.4 4.5 27.5 4.5 9.2 0 14-0.4 18-1.7 3.1-1 7.3-2.3 9.5-2.9 2.2-0.6 7.6-2.5 12-4.2 4.4-1.7 11.4-4.8 15.5-7 4.2-2.2 10.2-5.8 13.5-8 3.3-2.2 6.3-4.3 6.5-4.6 0.3-0.4 2.2-1.7 4.3-2.9 3.4-1.9 3.7-2 3.7-0.4 0 1-0.9 2.9-2 4.2-1 1.4-1.9 2.9-1.9 3.3-0.1 0.4-1.5 2.9-3.3 5.5-1.7 2.6-4.8 6.5-6.7 8.7-2 2.1-4.3 4.6-5.1 5.5-0.9 0.8-3.3 2.9-5.4 4.5-2.1 1.7-4.6 3.5-5.4 4-0.9 0.5-1.9 1.1-2.2 1.5-0.2 0.3-1.6 1.2-3 2-1.3 0.8-6.7 3.5-12 6.1-5.2 2.6-11.9 5.3-15 6-3 0.6-8.7 1-12.6 0.8l-7.1-0.4c4.8 3.2 7.8 4.7 9.7 5.4 2 0.8 8.5 2.7 14.5 4.3 8.6 2.2 13.3 2.8 21 2.8 7.6 0 11.8-0.5 17-2.2 3.9-1.2 9.3-3.6 12-5.3 2.8-1.7 7.3-5.4 10-8.1 2.8-2.7 6-6.3 7.1-7.9 1.2-1.6 3.3-5.2 4.7-8 1.4-2.7 3.2-6.5 4.1-8.5 0.8-1.9 4.5-12.5 8.2-23.5 3.6-11 7.3-21.3 8.2-23 0.9-1.6 5-6.2 9-10.2l7.2-7.3c-16.6 1-27.5 0.7-35 0-7.4-0.6-20.7-1.3-29.5-1.5-11-0.3-17.3 0-20.5 0.9zm-447.5 11.4c1.7 0.2 4.8 0.2 7 0 2.2-0.2 0.9-0.4-3-0.4-3.8 0-5.6 0.1-4 0.4zm-28.1 34.2c0 4.2 0.2 6 0.4 4 0.2-1.9 0.2-5.3 0-7.5-0.2-2.2-0.4-0.6-0.4 3.5zm448.6 68.2c-5.2 0.5-11.3 1.4-13.5 2-2.2 0.7-4.7 1.2-5.6 1.3-0.9 0-1.9 0.3-2.2 0.5-0.3 0.3 2.9 1.6 7.1 2.9 4.3 1.3 10.9 3.9 14.7 5.7 3.9 1.7 7.7 4 8.5 4.9 0.9 0.9 1.9 1.6 2.3 1.6 0.4 0 2 1 3.5 2.2 1.5 1.2 5 4.5 7.7 7.2 2.8 2.8 6.2 6.4 7.5 8 1.4 1.7 3.9 4.8 5.7 7 1.7 2.2 4.9 7.6 7.1 12 2.2 4.4 4.3 9.7 4.6 11.8 0.5 2.7 0.3 3.7-0.6 3.7-0.7 0-2.8-2.1-4.8-4.6-1.9-2.6-6.6-7.9-10.5-11.8-3.8-3.9-11-9.8-16-13.1-4.9-3.3-10.6-6.8-12.7-7.7-2.1-1-5.2-2.4-7-3.1-1.8-0.8-4.6-1.9-6.3-2.4-1.6-0.6-4.8-1.5-7-2.1-2.2-0.6-5.3-1.3-7-1.7-1.6-0.3-7.7-1-13.5-1.5-5.7-0.5-11.9-1.2-13.7-1.4-2.5-0.4-3.3-0.2-3.3 0.9 0 0.9 1.2 2.7 2.5 4 1.4 1.4 2.5 2.9 2.5 3.3 0 0.4 1.1 1.9 2.3 3.2 1.3 1.4 3.8 5.1 5.5 8.3 1.8 3.2 3.2 6.6 3.2 7.7 0 1.1 0.4 2.2 0.8 2.3 0.4 0.1 2.2 3.2 4 6.7 1.8 3.6 3.3 7.1 3.3 7.8-0.1 0.7 0.3 1.2 0.7 1.2 0.4 0 1.3 1.3 2 3 0.7 1.7 1.6 2.9 2 2.6 0.4-0.2 1.4 1 2.2 2.8 0.8 1.7 2.6 4.5 4 6.1 1.4 1.6 4.8 5.2 7.5 8 2.8 2.8 6.3 6.1 7.8 7.3 1.5 1.2 6 3.9 10 5.9 4 2 8.6 4.1 10.2 4.6 1.7 0.5 4.8 1.4 7 2 2.2 0.5 13.3 1.4 24.5 1.8 11.3 0.4 23.2 1.3 26.5 1.9 3.3 0.6 8.5 1.5 11.5 2 3.1 0.4 5.6 0.8 5.7 0.7 0.1-0.1-1.9-2.9-4.5-6.2-2.6-3.3-6-8.7-7.6-12-1.6-3.3-3.5-8.4-4.2-11.5-0.7-3-1.3-7.7-1.3-10.5 0-2.7-0.7-9.9-1.5-16-0.8-6-2.2-13.7-3-17-0.9-3.3-2.1-7.3-2.7-9-0.6-1.6-1.6-4.1-2.2-5.5-0.6-1.3-2.8-5-4.9-8.2-2.1-3.2-6.3-7.8-9.5-10.3-3.2-2.4-6.3-4.5-7-4.5-0.7 0-1.3-0.3-1.3-0.7 0.1-0.4-2.5-1.3-5.7-2-3.2-0.7-9.2-1.7-13.5-2.2-4.3-0.6-8.8-1-10-0.9-1.2 0.1-6.5 0.5-11.8 1zm-728.2 24.6l28.2 0.2 0.6 46.5-0.1-47h-57zm28.1 56.3c-0.2 3.3 0 6 0.4 6 0.5 0 0.8-2.7 0.8-6 0-3.3-0.2-6-0.4-6-0.3 0-0.6 2.7-0.8 6zm574.5 14.7c-0.6 0.4 1.9 0.8 5.7 0.8 3.7 0 6.6-0.4 6.4-0.8-0.2-0.4-2.8-0.7-5.7-0.7-2.8 0-5.7 0.3-6.4 0.7z"/><path class="d" d="m706.5 195c-3.3 1.6-7.6 4.4-9.5 6.1l-3.5 3.1c6.2-4.3 11.1-7.1 15-8.9 3.9-1.8 6.3-3.2 5.5-3.2-0.8 0-4.2 1.3-7.5 2.9zm60.7 22.3c-0.1 12.5-0.5 23.5-0.8 24.4-0.5 1.3-0.4 1.5 0.4 0.8 0.9-0.7 1.1-7.8 0.9-24.5l-0.2-23.5zm-91.6 7.1c-1.5 2.3-3.4 5.3-4.3 6.7l-1.6 2.5c3.3-3.9 5.5-6.7 7-8.8 1.5-2.1 2.5-4 2.2-4.2-0.4-0.2-1.8 1.4-3.3 3.8zm-17.6 24.4c0 0.4-2.4 3.9-5.2 7.8-2.9 3.8-7.8 9.3-10.8 12.2-3.1 2.9-8.3 6.7-11.6 8.3-3.3 1.7-4.8 2.8-3.5 2.4 1.4-0.4 4.6-1.8 7-3.3 2.5-1.4 7-5 10-8.1 3.1-3.1 6.5-6.7 7.6-8 1.1-1.4 3.4-4.7 5.1-7.3 1.7-2.6 2.7-4.7 2.2-4.7-0.5 0-0.9 0.3-0.8 0.7zm54.9 9.3c-1.9 2.2-3.7 4.6-3.9 5.3-0.2 0.6 0.2 0.4 1-0.4 0.8-0.9 3-3.2 4.9-5.3 1.8-2 3-3.6 2.5-3.6-0.6 0-2.5 1.8-4.5 4zm-175.5 5.2c-0.3 0.7-0.4 2.6-0.2 4.3 0.4 2.6 0.4 2.5 0.6-0.8l0.1-3.7 56.4 0.5c1.5 4.8 1.5 4.7 1.3 2l-0.2-3c-51.2-0.5-57.6-0.3-58 0.7zm165.6 6.5c-2.2 2.6-4.1 5.1-4.1 5.5 0 0.4 0.6 0.2 1.3-0.5 0.7-0.7 2.7-3.2 4.5-5.5 1.8-2.3 3.1-4.2 2.8-4.2-0.2 0-2.3 2.1-4.5 4.7zm157.6 5.2c-0.3 0.6-0.3 3 0 5.3l0.8 4.3 1.1-7c3.4 5.4 4.4 6.5 4.4 6 0-0.6-1.2-3-2.8-5.4-1.6-2.6-3-3.9-3.5-3.2zm158.9 4.1c-0.9 1.6-1.4 3.3-1.1 3.7 0.2 0.4 0.8-0.4 1.2-1.7 0.6-1.9 1-0.1 1.4 6.5l0.6 9c0.2-15.9 0.1-20.5-0.1-20.5-0.3 0-1.2 1.3-2 3zm-324.7 0.7c-1.3 1.5-4.4 5.2-6.8 8.3-2.5 3-6.5 7.4-9 9.9-2.5 2.4-8.6 7.1-13.6 10.3-4.9 3.1-8.6 5.8-8.2 5.8 0.4 0 3.1-1.4 6-3.1 2.9-1.8 7.7-5 10.7-7.2 3.1-2.3 6-4.6 6.5-5.2 0.6-0.6 2.7-3.1 4.7-5.6 2-2.4 4.8-5.8 6.3-7.4 1.4-1.7 3.5-4.3 4.6-5.8 1-1.5 1.8-2.7 1.6-2.7-0.2 0-1.4 1.2-2.8 2.7zm-82.4 1c1.7 0.2 4.8 0.2 7 0 2.2-0.2 0.9-0.4-3-0.4-3.8 0-5.6 0.2-4 0.4zm256.3 5.8c0.5 1.1 2.7 3.7 4.9 5.7 2.1 2.1 3.9 3.6 4.1 3.3 0.1-0.3-2.1-2.9-4.9-5.8-2.9-2.9-4.7-4.4-4.1-3.2zm144.7 3.3c-1 1-1.7 2.3-1.6 3 0 0.6-0.2 1.1-0.6 1.1-0.4 0-1.4 1.2-2.1 2.8-1.2 2.5-1 2.4 1.8-0.7 1.7-2 3-4.1 3-4.8 0-0.7 0.6-1.4 1.3-1.6 0.7-0.2 1-0.7 0.6-1-0.3-0.4-1.4 0.2-2.4 1.2zm-150.7 8.7c0.3 4.9 0.7 9.2 0.9 9.5 0.2 0.2 0.3-2.5 0.2-6 0-3.6-0.4-7.9-0.9-9.5-0.4-1.7-0.5 1-0.2 6zm-318.7-6.3c0 0.4 0.9 2.2 2.1 4 1.3 1.8 5.2 6.1 8.8 9.6 3.6 3.5 7.3 6.8 8.3 7.3 0.9 0.4-2.2-3.1-7.1-7.9-4.9-4.8-9.6-9.9-10.4-11.2-0.9-1.4-1.7-2.2-1.7-1.8zm450.7 18.5c-4.8 4.8-8.6 8.9-8.3 9 0.3 0.1 4.7-3.8 9.7-8.7 5-5 8.7-9 8.2-9-0.5 0-4.8 3.9-9.6 8.7zm-84.7-1.8c0 0.6 0.4 1.1 0.9 1.1 0.6 0 3.3 1.3 6 3 2.8 1.6 5 2.6 5 2.2 0-0.4-2.7-2.2-5.9-4-3.3-1.8-6-2.9-6-2.3zm-341 7.5c-0.1 0.3 2.2 1.7 4.9 3.1 2.8 1.3 5.8 2.4 6.8 2.4 0.9-0.1 0.2-0.7-1.8-1.4-1.9-0.7-4.9-2-6.7-2.9-1.7-0.9-3.2-1.5-3.2-1.2zm360 5.6c3.6 3.6 7.9 8.6 9.5 11.2 1.6 2.7 3 4.6 3.2 4.3 0.1-0.3-0.3-1.6-1-2.8-0.7-1.2-1.5-2.5-1.9-2.7-0.3-0.3-1-1.3-1.5-2.2-0.5-1-3.1-4.1-5.9-6.9-2.7-2.9-5.9-5.7-7-6.2-1.1-0.6 1 1.8 4.6 5.3zm-530.6 0.1c1.7 1.3 4.3 3.7 5.8 5.3 1.5 1.7 3 2.7 3.3 2.3 0.2-0.4-1.9-2.8-4.8-5.3-2.9-2.4-5.7-4.5-6.3-4.5-0.5 0 0.4 1 2 2.2zm-23.9 3.4c-0.3 0.8-0.6 3.1-0.6 5.2 0 2.1 1.1 6 2.4 8.8 1.3 2.7 3.4 5.8 4.6 7 1.5 1.3 1.1 0.2-1.4-3.5-2-3.1-3.9-7.1-4.2-9-0.4-2-0.4-5-0.1-6.8 0.3-1.8 0.4-3.2 0.2-3.2-0.2 0-0.6 0.6-0.9 1.5zm484.1 12.7c-0.4 3.4-0.6 12.5-0.6 20.3 0.1 7.7 0.5 15.3 0.8 16.9 0.3 1.6 0.6-7.5 0.6-20.3 0-12.7 0-23.2-0.1-23.2-0.1 0-0.4 2.9-0.7 6.3zm36.1-1c0.7 0.7 1.3 2 1.2 3 0 1 0.6 2.1 1.2 2.5 0.9 0.6 1 0 0.5-2.2-0.7-2.9-0.5-2.8 4.3 2.2 2.8 2.9 5.4 5 5.8 4.8 0.4-0.3-2-3-5.3-6.1-3.3-3-6.6-5.5-7.5-5.5-1.2 0-1.2 0.3-0.2 1.3zm47.2 2.8c0.1 0.2 0.9 2.9 2 6 1 3 1.9 4.8 2 4 0-0.9-0.5-3.1-1.1-5-0.6-2-1.5-4-2-4.5-0.5-0.6-0.9-0.8-0.9-0.5zm-531.4 4.5c-0.3 1.3-1.1 3-1.8 3.8-0.7 0.7-2.2 1.8-3.3 2.4-1.1 0.7-1.4 1.2-0.6 1.2 0.7 0 2.6-1.3 4.2-2.9 1.6-1.7 2.9-3.9 2.9-5 0-1.2-0.2-2-0.4-2-0.2 0-0.7 1.1-1 2.5zm602 7c-0.4 2.2-0.4 4.2-0.1 4.5 0.3 0.2 0.6-0.7 0.6-2 0-2.5 0-2.5 1.6-0.5 1.5 1.9 1.5 1.8 0.9-1-0.4-1.7-1.1-3.5-1.6-4-0.4-0.6-1.1 0.6-1.4 3zm-102.5-0.8c0 0.4 0.8 1.4 1.8 2.3 1 0.8 4.2 5.1 7 9.5 2.9 4.3 5.2 8.3 5.2 8.7-0.1 0.4 0.4 0.8 0.9 0.8 0.6 0-0.4-2.4-2.1-5.3-1.7-2.9-4.7-7.8-6.8-11-2-3.2-4.2-5.7-4.8-5.7-0.7 0-1.3 0.3-1.2 0.7zm36.4 22.3c0 11.3 0.3 17.4 0.7 14.5 0.3-2.8 0.6-10.2 0.6-16.5 0-6.4-0.3-12.9-0.6-14.5-0.4-1.6-0.7 5.8-0.7 16.5zm100-0.6c0 8.2 0.3 12.3 0.7 9.9 0.4-2.1 0.7-7 0.7-10.8-0.1-3.9-0.4-8.4-0.7-10-0.4-1.6-0.7 3.3-0.7 10.9zm-28.1 6.6c0 4.1 0.1 5.9 0.4 4 0.2-2 0.2-5.3 0-7.5-0.3-2.3-0.4-0.7-0.4 3.5zm-92.4-4.5c0 0.2 0.9 2.4 2 4.7 1 2.3 2.2 5.1 2.6 6.3 0.4 1.1 0.8 1.5 1.1 1 0.2-0.6-0.7-3.6-2-6.8-1.3-3.2-2.6-5.7-3-5.7-0.4 0-0.7 0.2-0.7 0.5zm26.5 19.7c-0.4 3.5-0.3 8 0.3 10.3 0.9 3.5 1 2.7 1.1-6.3 0.1-5.6-0.1-10.2-0.3-10.2-0.2 0-0.7 2.8-1.1 6.2zm-34.3-0.2c0 1.3 0.3 4.2 0.8 6.5l0.8 4c0-6.3-0.3-9.2-0.8-10.5l-0.8-2.5zm26.5 7.5c-0.4 3.2-0.5 6.2-0.2 6.5 0.3 0.2 0.8-1.6 1.1-4 0.4-2.5 0.5-5.4 0.3-6.5-0.3-1.2-0.8 0.7-1.2 4zm-8.1 8.5c0.3 3.5 0.5 9.6 0.4 13.5 0 6.3 0.1 6.8 1.6 5.5 0.8-0.9 1.5-2.1 1.5-2.8 0-0.7-0.5-1.2-1-1.2-0.6 0-1.1-2.8-1.1-6.3 0-3.4-0.5-8.3-1-10.7-0.7-4.1-0.8-3.9-0.4 2zm147-4.3c3.3 0.2 8.9 0.2 12.5 0 3.5-0.2 0.8-0.4-6-0.4-6.9 0-9.8 0.2-6.5 0.4zm21.5 0.6c0.2 0.2 3.4 0.6 7 1 4 0.3 5.5 0.2 4-0.3-1.4-0.5-4.6-0.9-7-1-2.5 0-4.3 0.1-4 0.3zm-108.3 6.4c-1.5 3.2-2.4 5.9-2.2 6 0.3 0.1 1.6-2 3-4.7 1.3-2.8 2.3-5.5 2.1-6-0.1-0.6-1.5 1.6-2.9 4.7zm158.5-5.1c1.4 0.3 0.2 1.9-5 7-3.7 3.6-4.7 4.9-2.2 2.7 2.5-2.1 6-5 7.8-6.3 1.8-1.4 3.2-2.9 3.2-3.3 0-0.4-1.3-0.7-2.8-0.6-1.5 0-1.9 0.3-1 0.5zm-22.2 1.1c3 0.2 8.2 0.2 11.5 0 3.3-0.2 0.8-0.4-5.5-0.4-6.4 0-9.1 0.2-6 0.4zm-179 4.3c0 0.5 0.5 2.8 1.2 5 0.7 2.2 1.6 4 2 4 0.4 0 0.5-0.8 0.2-1.8-0.4-1-1-3.2-1.4-5-0.5-1.8-1.1-3.2-1.4-3.2-0.4 0-0.6 0.4-0.6 1zm-330.5 6.7c2.2 0.2 6 0.2 8.5 0 2.4-0.2 0.6-0.4-4-0.4-4.7 0-6.7 0.2-4.5 0.4zm18 2.5c2.2 1.1 4.9 3 6 4.2 1.1 1.1 2.9 3.7 4 5.8 1.1 2 2.1 3.5 2.2 3.2 0.2-0.2-0.5-1.9-1.3-3.7-0.9-1.8-2.6-4.3-3.8-5.6-1.2-1.3-3.8-3.2-5.9-4.2-2-1.1-4.1-1.9-4.5-1.9-0.4 0 1.1 1 3.3 2.2zm401.9 0c-1.6 1.2-5.2 4.5-7.9 7.3-2.8 2.7-6.6 7-8.5 9.5-1.9 2.4-3.9 4.7-4.4 5-0.4 0.2-0.7 1.1-0.5 1.8 0.2 0.8 1.6-0.4 3.3-3 1.5-2.4 7.1-8.5 12.2-13.6 5.2-5.1 9.2-9.2 9-9.2-0.2 0-1.6 1-3.2 2.2zm-164.7 0.3c0.6 1.1 3.7 4.4 6.9 7.5 3.2 3 6.4 5.8 7.1 6.2 0.7 0.4 1.3 0.6 1.3 0.5 0-0.1-3.7-3.9-8.2-8.2-4.4-4.4-7.6-7.2-7.1-6zm39.8 9.5c-0.4 5.2-0.6 10.1-0.3 11 0.3 0.8 0.8-2.4 1.2-7 0.4-4.7 0.6-9.7 0.4-11-0.3-1.4-0.8 1.7-1.3 7zm39.6-6.3c-0.1 1.2 0.3 2.3 0.9 2.3 0.5 0 1.3 1.6 1.6 3.7 0.4 2.1 0.9 3 1 2 0.2-1-0.5-3.7-1.5-6-1.5-3.2-2-3.7-2-2zm-357.7 8.8c-1.3 3-2.3 6-2.1 6.7 0.3 0.7 0.8-0.1 1.2-1.7 0.4-1.7 1.6-4.7 2.5-6.8 1-2.1 1.6-3.8 1.3-3.8-0.2 0.1-1.5 2.5-2.9 5.5zm417.6-1.6c-1.4 1.5-4.8 4.4-7.5 6.5-2.8 2-4.6 3.7-4 3.7 0.5 0 2.3-1 3.9-2.3 1.7-1.2 5-4.2 7.5-6.5 2.5-2.3 4.1-4.2 3.6-4.2-0.6 0-2.2 1.3-3.5 2.8zm-14.5 3.9c-1.1 1.5-2.5 3.3-3.2 4-0.7 0.7-1.3 1.7-1.3 2.3 0 0.5 0.5 0.4 1.2-0.3 0.7-0.7 2.3-2.8 3.5-4.5 1.3-1.8 2.1-3.5 1.9-3.8-0.1-0.3-1.1 0.7-2.1 2.3zm-41.2 5.8c0 3.8 0.2 5.2 0.4 3 0.2-2.3 0.2-5.4 0-7-0.2-1.7-0.4 0.1-0.4 4zm18.1-3.3c-1 1.8-4.6 6.2-8.1 9.8-3.4 3.5-6 6.7-5.8 6.9 0.2 0.3 3.1-2.4 6.5-6 3.3-3.5 6.8-7.7 7.8-9.2 0.9-1.5 2-2.8 2.4-2.8 0.4 0 0.8-0.4 0.8-1 0-0.5-0.4-1-0.9-1-0.4 0-1.6 1.5-2.7 3.3zm-86.4-0.8c0 0.3 2.6 3.1 5.7 6.3 3.2 3.2 7.1 7.7 8.8 10 1.6 2.4 3.2 4.1 3.5 3.8 0.2-0.3-1.5-3.1-4-6.3-2.5-3.2-6.3-7.7-8.5-10-2.2-2.4-4.4-4.3-4.8-4.3-0.4 0-0.7 0.3-0.7 0.5zm-296.7 14.5c0 5.3 0.2 7.3 0.4 4.5 0.2-2.7 0.2-7 0-9.5-0.2-2.4-0.4-0.2-0.4 5zm404.6-7.4c-0.8 0.9-2.7 2.3-4.2 3-1.5 0.8-2.7 1.1-2.7 0.7 0-0.4 0.8-1.6 1.7-2.8 0.9-1.1 0.1-0.5-1.8 1.3-1.9 1.7-3.1 3.4-2.7 3.7 0.4 0.3 2.7-0.4 5-1.6 2.4-1.2 4.8-2.8 5.5-3.5 0.7-0.7 1.1-1.6 0.9-1.9-0.1-0.3-0.9 0.2-1.7 1.1zm100 2.7c-1.9 1.2-4.2 3-5.1 4-0.9 1-1.4 1.7-1 1.7 0.4 0 2.2-1.3 4.2-2.9 3.1-2.7 3.5-2.8 4.1-1.3 0.6 1.5 0.8 1.5 1.4 0.2 0.3-0.8 0.5-2 0.3-2.7-0.3-0.8-1.5-0.5-3.9 1zm-185.4 7.2c-0.7 7.2-0.9 7.8-2.1 6-0.8-1.1-1.6-1.7-1.9-1.5-0.3 0.3 0.2 1.6 1 2.8 0.8 1.2 1.9 2 2.5 1.7 0.5-0.2 1.2-3.3 1.6-6.7 0.3-3.4 0.4-7.1 0.1-8.3-0.2-1.1-0.7 1.7-1.2 6zm102.3-4.4c-0.7 1.7-1.7 3-2.1 3-0.4 0-0.7 0.6-0.7 1.4 0 0.9-2.4 4-5.3 7-2.9 3-7.7 6.7-10.6 8.2-3 1.6-5.4 3.3-5.4 3.9-0.1 0.5 0.8 1.1 1.8 1.2 1.1 0.1 1.4 0 0.7-0.3-0.7-0.2 1.4-2.1 4.5-4.1 3.2-1.9 7.6-5.5 9.8-7.9 2.2-2.3 5.3-6.8 7-9.9 1.7-3 2.7-5.5 2.3-5.5-0.3 0-1.2 1.3-2 3zm64.2 9.7c-2.9 1.7-4 2.8-3 3 0.8 0.3 1.7 0.1 2-0.4 0.2-0.5 1.7-1.5 3.3-2.4 1.5-0.8 2.7-1.8 2.7-2.2 0-0.4-0.1-0.7-0.3-0.6-0.1 0-2.3 1.2-4.7 2.6zm-83.7 16c0.5 0.4 2.5 1.3 4.5 2 2 0.7 4.8 1.2 6.2 1.2 1.4-0.1-0.4-0.9-4-2-3.6-1-6.8-1.9-7-1.9-0.3-0.1-0.1 0.2 0.3 0.7zm82.1 1.5c-1.6 1.2-3.5 2.8-4.2 3.5-0.7 0.7-2.1 1.5-3.2 1.8-1.1 0.2-2 0.9-2 1.5 0 0.5 0.4 1 1 1 0.5 0 1-0.5 1-1 0-0.6 0.8-1.3 1.7-1.6 1-0.2 3.6-2 5.8-4 2.2-1.9 3.7-3.5 3.4-3.5-0.4 0-1.9 1.1-3.5 2.3zm-62.4 2.5c1.9 0.2 5.3 0.2 7.5 0 2.2-0.2 0.6-0.4-3.5-0.4-4.2 0-6 0.2-4 0.4zm-397.3 4.6c3.2 0.6 6.5 0.6 8.4 0 2.4-0.7 1.3-0.9-5.3-0.9-8.2 0-8.2 0-3.1 0.9zm434.3 8.1c-1.4 0.8-4.8 2.2-7.5 3.2-3.7 1.3-8 1.8-15.8 1.8-6.7 0-10.6 0.4-10.4 1.1 0.2 0.5 1.9 1.8 3.8 2.7 1.8 1 3.5 1.7 3.7 1.5 0.1-0.1-1.2-1.2-3-2.4l-3.3-2.2c12.1 0.9 17.1 0.6 20.5-0.2 3-0.7 7.8-2.3 10.7-3.6 2.9-1.3 5.3-2.6 5.3-2.8 0-0.3-0.4-0.5-0.8-0.5-0.4 0-1.9 0.6-3.2 1.4zm51.7 3.7c-2.6 2.7-4.4 4.9-4 4.9 0.4 0 2.8-2 5.3-4.5 2.4-2.5 4.2-4.7 3.9-4.9-0.3-0.2-2.7 1.9-5.2 4.5zm-22.2 12.9c-2.8 1-4.2 1.8-3.3 1.9 1 0 3.6-0.5 5.8-1.2 2.2-0.7 4-1.6 4-2 0-0.4-0.4-0.7-0.8-0.6-0.4 0-3 0.9-5.7 1.9zm-19 3c2.8 0.5 7 0.5 9.5 0 3.8-0.7 3.1-0.8-5-0.8-8.5 0-9 0.1-4.5 0.8zm-29 8c-1.2 0.5 1.5 0.6 7 0.3 4.9-0.4 9.2-0.8 9.4-1 0.2-0.2-2.9-0.3-7-0.3-4.1 0.1-8.3 0.5-9.4 1zm32.5 0.4c4.6 0.7 9.8 1.6 11.5 2 1.6 0.5 2.7 0.5 2.5 0.2-0.3-0.3-3-1.3-6-2.1-3.1-0.9-8-1.5-11-1.4-5.3 0.1-5.2 0.2 3 1.3zm21.5 6.8c1.6 1.2 4.8 3.8 7 5.6 2.2 1.9 1.3 0.8-2-2.3-3.3-3.1-6.5-5.6-7-5.6-0.6 0.1 0.3 1.1 2 2.3zm-49.5 4.8c0 0.5 0.6 1 1.5 1 0.8 0 2.8 0.8 4.5 2 1.6 1.1 3.5 1.8 4.2 1.6 0.7-0.1-1.1-1.5-4-3-2.9-1.4-5.5-2.6-5.7-2.6-0.3 0-0.5 0.4-0.5 1zm16.9 9.8c1.8 1.4 5.8 5.1 8.9 8.2 3 3 5 4.6 4.4 3.5-0.5-1.2-3-3.8-5.4-6-2.5-2.3-5.7-5.1-7.1-6.3-1.5-1.2-3.1-2.2-3.5-2.2-0.4 0 0.8 1.3 2.7 2.8zm-60.9 0.2c2.4 0.4 6 0.8 8 0.8l3.5-0.1c-6.2-1.3-9.8-1.6-12-1.6l-4 0.1zm-682 1.7c25.7 0.2 28.6 0.4 29.9 2 1.3 1.7 1.3 1.7 0.7 0-0.3-1-0.6-2-0.6-2.3 0-0.2-13.2-0.3-29.3-0.2l-29.2 0.2zm674 1.8c0 0.3 1.3 1.9 3 3.7 1.7 1.8 3 3.6 3 4 0 0.4 0.4 0.8 1 0.8 0.5 0 0-1.5-1.3-3.2-1.2-1.8-2.8-3.8-3.5-4.5-0.7-0.7-1.5-1.3-1.7-1.3-0.3 0-0.5 0.2-0.5 0.5zm120 5.7c0 0.2 0.9 2.8 1.9 5.8 1.1 3 2 4.9 2 4.2 0-0.7-0.4-3.2-0.9-5.7-0.5-2.5-1.4-4.5-2-4.5-0.6 0-1 0.1-1 0.2zm-58 4.3c0 0.3 3.2 2.6 7.2 5.2 4 2.6 7.9 5.2 8.8 5.7 0.8 0.4 0.6 0-0.5-1.1-1.1-1-4.2-3.4-6.8-5.1-2.6-1.8-5.2-3.2-5.7-3.2-0.6 0-1-0.5-1-1 0-0.6-0.5-1-1-1-0.6 0-1 0.2-1 0.5zm22 1c0 0.5 1.2 2.3 2.8 4 1.5 1.6 4.1 4.9 5.7 7.3 1.7 2.3 3.1 4.2 3.2 4.2 0.2 0-0.2-1-0.9-2.3-0.6-1.2-2.5-4-4.2-6.2-1.7-2.2-3.9-4.9-4.9-6-1-1.1-1.8-1.6-1.7-1zm-4.1 10.7c0.1 0.4 2.5 3.3 5.6 6.3 3 3 5.5 5.1 5.4 4.7 0-0.4-1.2-2.1-2.8-3.7-1.5-1.7-4-4.1-5.5-5.5-1.5-1.4-2.7-2.2-2.7-1.8zm16.1 5.8c0 0.3 1.3 3.4 2.9 7 1.6 3.6 3 5.8 3 5 0-0.8-1.3-4-2.9-7-1.6-3-3-5.3-3-5zm2.1 14.9c1.3 1.6 2.9 3 3.6 3 0.7 0.1 1.3-0.9 1.3-2.2-0.1-1.8-0.2-1.9-1-0.7-0.8 1.3-1.2 1.1-2.7-0.7-1-1.2-2.2-2.3-2.7-2.3-0.5 0 0.2 1.3 1.5 2.9zm-71.8 2.8c1.1 2.1 2.9 4.7 3.9 5.8 1 1.1 1.8 1.5 1.8 1 0-0.6-1.2-2.4-2.6-4-1.4-1.7-2.7-3.8-3-4.8-0.2-0.9-0.9-1.7-1.4-1.7-0.5 0 0.1 1.7 1.3 3.7zm6.6 10c0.8 1 5.2 5.6 9.8 10.3 4.6 4.7 8.7 8.1 9.1 7.7 0.3-0.4-0.5-1.5-1.8-2.4-1.4-0.9-4.8-4-7.6-6.7-2.7-2.8-5.9-6.4-7-7.9-1-1.5-2.4-2.7-2.9-2.7-0.6 0-0.3 0.8 0.4 1.7zm-676.8 4l-0.1 2.3c-48.7-0.4-58.6-0.2-58.4 0.5 0.3 0.6 10.7 0.9 29.1 0.8 15.8-0.2 29.1-0.6 29.5-1 0.5-0.5 0.7-1.7 0.5-2.8-0.4-1.8-0.5-1.8-0.6 0.2zm773.8 3.3c0 0.8 0.7 3.3 1.6 5.5 0.9 2.2 1.7 3.8 2 3.5 0.2-0.3-0.3-2.5-1.2-5-0.8-2.5-1.7-4.7-1.9-5-0.3-0.3-0.5 0.2-0.5 1zm-179.2 12.9c1.3 1.1 2.6 2.1 3 2.1 0.4 0 2.1 1.2 3.8 2.7l3 2.8c-4.7-5.2-7.4-7.4-9-8.2l-3-1.6zm164.7 11.2c2.2 0.5 5.1 0.8 6.5 0.8h2.5c-3.9-1.3-6.8-1.6-9-1.6h-4zm-153.1 5.6c0.1 3.4 0.5 5.6 0.9 5 0.4-0.6 0.7-2.5 0.6-4.2 0-1.6-0.4-3.9-0.8-5-0.5-1.2-0.7 0.3-0.7 4.2z"/></svg>