<svg width="73" height="74" viewBox="0 0 73 74" fill="none" xmlns="http://www.w3.org/2000/svg">
<path fill-rule="evenodd" clip-rule="evenodd" d="M72.0095 72.1665L1.50236 72.1905L0.812527 24.6955C0.623732 11.697 9.47755 1.56732 17.9767 1.44388C21.6333 0.724031 30.2739 1.16526 35.5837 8.68894C45.3721 -5.95479 68.9785 1.20314 70.7398 19.1795C71.3489 33.5721 71.84 60.5011 72.0095 72.1665ZM19.6274 36.2061C21.1127 36.3625 23.4363 36.985 25.5149 38.337C27.583 39.6821 29.3814 41.7285 29.9175 44.7443L31.034 44.5458C30.4299 41.1477 28.3943 38.857 26.1332 37.3864C23.8827 35.9225 21.382 35.2505 19.7461 35.0783L19.6274 36.2061ZM50.7427 47.6226L50.0957 47.5868L40.1198 47.035L39.4728 46.9992L39.4012 48.2932L40.0483 48.329L50.0241 48.8808L50.6711 48.9166L50.7427 47.6226ZM56.3956 38.3577C56.2941 40.1932 57.6998 41.7635 59.5353 41.865C61.3708 41.9666 62.9411 40.5609 63.0427 38.7254C63.1442 36.8898 61.7385 35.3195 59.903 35.218C58.0675 35.1165 56.4972 36.5222 56.3956 38.3577ZM54.3987 38.2472C54.2361 41.1856 56.4864 43.6994 59.4248 43.862C62.3633 44.0245 64.8771 41.7742 65.0396 38.8358C65.2021 35.8974 62.9519 33.3836 60.0134 33.2211C57.075 33.0585 54.5612 35.3088 54.3987 38.2472ZM46.2491 42.1571C44.4136 42.0555 43.0079 40.4852 43.1094 38.6497C43.211 36.8142 44.7813 35.4085 46.6168 35.5101C48.4523 35.6116 49.858 37.1819 49.7564 39.0174C49.6549 40.8529 48.0846 42.2586 46.2491 42.1571ZM46.1386 44.154C43.2002 43.9915 40.9499 41.4777 41.1125 38.5393C41.275 35.6009 43.7888 33.3506 46.7272 33.5131C49.6656 33.6756 51.9159 36.1895 51.7534 39.1279C51.5909 42.0663 49.077 44.3166 46.1386 44.154ZM22.3188 41.5479C22.8246 41.5406 23.2286 41.1246 23.2213 40.6189C23.214 40.1131 22.798 39.7091 22.2922 39.7164C21.7865 39.7237 21.3824 40.1397 21.3898 40.6455C21.3971 41.1512 21.8131 41.5553 22.3188 41.5479ZM25.7984 43.6592C25.8058 44.165 25.4017 44.5809 24.896 44.5883C24.3902 44.5956 23.9743 44.1916 23.9669 43.6858C23.9596 43.18 24.3636 42.7641 24.8694 42.7567C25.3751 42.7494 25.7911 43.1534 25.7984 43.6592ZM21.7446 45.4668C22.2503 45.4594 22.6544 45.0435 22.647 44.5377C22.6397 44.0319 22.2237 43.6279 21.718 43.6352C21.2122 43.6426 20.8082 44.0585 20.8155 44.5643C20.8229 45.0701 21.2388 45.4741 21.7446 45.4668Z" fill="black"/>
</svg>
