<svg width="71" height="72" viewBox="0 0 71 72" fill="none" xmlns="http://www.w3.org/2000/svg">
<path fill-rule="evenodd" clip-rule="evenodd" d="M0 0L70.5 1V48.5C70.5 61.4999 61.5 71.4999 53 71.4999C49.3333 72.1666 40.7 71.5999 35.5 63.9999C25.5 78.4999 1.99999 70.9999 0.499996 52.9999C0.0999968 38.5999 0 11.6666 0 0ZM51.8544 36.7174C50.3715 36.5395 48.0571 35.8833 45.9983 34.5012C43.95 33.1262 42.1816 31.0538 41.6893 28.0307L40.57 28.213C41.1247 31.6194 43.1268 33.9394 45.3663 35.4428C47.5953 36.9391 50.0861 37.6474 51.7193 37.8433L51.8544 36.7174ZM20.9984 23.5574L21.6448 23.6026L31.6116 24.2992L32.258 24.3444L32.1677 25.6372L31.5212 25.592L21.5544 24.8954L20.908 24.8503L20.9984 23.5574ZM48.3248 32.2529C48.3248 31.747 48.7348 31.337 49.2406 31.337C49.7465 31.337 50.1565 31.747 50.1565 32.2529C50.1565 32.7587 49.7465 33.1687 49.2406 33.1687C48.7348 33.1687 48.3248 32.7587 48.3248 32.2529ZM46.7079 28.2596C46.2021 28.2596 45.7921 28.6696 45.7921 29.1755C45.7921 29.6813 46.2021 30.0913 46.7079 30.0913C47.2137 30.0913 47.6238 29.6813 47.6238 29.1755C47.6238 28.6696 47.2137 28.2596 46.7079 28.2596ZM48.9559 28.3428C48.9559 27.837 49.3659 27.427 49.8717 27.427C50.3776 27.427 50.7876 27.837 50.7876 28.3428C50.7876 28.8486 50.3776 29.2587 49.8717 29.2587C49.3659 29.2587 48.9559 28.8486 48.9559 28.3428ZM19.7741 33.3294C19.9793 30.3937 22.5254 28.18 25.4612 28.3852C28.3969 28.5904 30.6106 31.1367 30.4054 34.0724C30.2002 37.0082 27.6539 39.2217 24.7182 39.0165C21.7825 38.8112 19.5689 36.2651 19.7741 33.3294ZM25.3218 30.3804C23.488 30.2522 21.8975 31.6349 21.7693 33.4688C21.6411 35.3027 23.0238 36.8931 24.8576 37.0213C26.6915 37.1495 28.282 35.7668 28.4102 33.933C28.5384 32.0991 27.1557 30.5085 25.3218 30.3804ZM12.1702 28.3852C9.23445 28.18 6.68836 30.3937 6.48315 33.3294C6.27794 36.2651 8.49146 38.8112 11.4272 39.0165C14.3629 39.2217 16.9092 37.0082 17.1144 34.0724C17.3196 31.1367 15.106 28.5904 12.1702 28.3852ZM8.47828 33.4688C8.60647 31.6349 10.197 30.2522 12.0308 30.3804C13.8647 30.5085 15.2474 32.0991 15.1193 33.933C14.9911 35.7668 13.4005 37.1495 11.5666 37.0213C9.73277 36.8931 8.35009 35.3027 8.47828 33.4688Z" fill="black"/>
</svg>
