<svg width="490" height="885" viewBox="0 0 490 885" fill="none" xmlns="http://www.w3.org/2000/svg">
<g clip-path="url(#clip0_203_319)">
<rect width="489.6" height="884.8" rx="32" fill="#A20100"/>
<path d="M88.9558 415.445C87.5542 416.731 85.7398 417.374 83.5126 417.374C81.2854 417.374 79.4614 416.731 78.0406 415.445C76.639 414.139 75.9382 412.402 75.9382 410.232V396.84H78.6166V410.117C78.6166 411.538 79.039 412.67 79.8838 413.515C80.7286 414.341 81.9382 414.754 83.5126 414.754C85.087 414.754 86.2966 414.341 87.1414 413.515C87.9862 412.67 88.4086 411.538 88.4086 410.117V396.84H91.0582V410.232C91.0582 412.402 90.3574 414.139 88.9558 415.445ZM107.682 396.84H110.36V417H108.2L97.832 401.938V417H95.1536V396.84H97.3136L107.682 411.874V396.84ZM127.949 417L126.308 412.478H117.236L115.594 417H112.743L120.26 396.84H123.284L130.8 417H127.949ZM118.157 409.973H125.386L121.757 400.037L118.157 409.973ZM144.699 406.546C145.62 406.987 146.35 407.621 146.887 408.446C147.444 409.272 147.723 410.222 147.723 411.298C147.723 412.91 147.156 414.264 146.023 415.358C144.891 416.453 143.508 417 141.876 417H133.179V396.84H141.243C142.817 396.84 144.151 397.368 145.246 398.424C146.34 399.48 146.887 400.786 146.887 402.341C146.887 404.126 146.158 405.528 144.699 406.546ZM141.243 399.346H135.857V405.509H141.243C142.087 405.509 142.798 405.211 143.374 404.616C143.95 404.021 144.238 403.291 144.238 402.427C144.238 401.582 143.94 400.862 143.345 400.267C142.769 399.653 142.068 399.346 141.243 399.346ZM141.876 414.494C142.779 414.494 143.537 414.178 144.151 413.544C144.766 412.91 145.073 412.133 145.073 411.211C145.073 410.309 144.756 409.541 144.123 408.907C143.508 408.274 142.759 407.957 141.876 407.957H135.857V414.494H141.876ZM153.576 414.466H162.273V417H150.897V396.84H153.576V414.466ZM167.638 414.466H176.998V417H164.96V396.84H176.854V399.374H167.638V405.566H176.134V408.072H167.638V414.466ZM200.334 396.84V399.374H194.373V417H191.723V399.374H185.79V396.84H200.334ZM218.593 414.322C216.577 416.357 214.11 417.374 211.192 417.374C208.273 417.374 205.806 416.357 203.79 414.322C201.774 412.286 200.766 409.819 200.766 406.92C200.766 404.002 201.774 401.534 203.79 399.518C205.806 397.483 208.273 396.466 211.192 396.466C214.11 396.466 216.577 397.483 218.593 399.518C220.629 401.534 221.646 404.002 221.646 406.92C221.646 409.819 220.629 412.286 218.593 414.322ZM205.633 412.507C207.131 414.005 208.984 414.754 211.192 414.754C213.4 414.754 215.243 414.005 216.721 412.507C218.219 410.99 218.968 409.128 218.968 406.92C218.968 404.693 218.219 402.83 216.721 401.333C215.243 399.816 213.4 399.058 211.192 399.058C208.984 399.058 207.131 399.816 205.633 401.333C204.155 402.83 203.416 404.693 203.416 406.92C203.416 409.128 204.155 410.99 205.633 412.507ZM239.381 396.84C241.244 396.84 242.789 397.464 244.018 398.712C245.266 399.941 245.89 401.477 245.89 403.32C245.89 405.144 245.266 406.68 244.018 407.928C242.789 409.176 241.244 409.8 239.381 409.8H234.745V417H232.066V396.84H239.381ZM239.381 407.294C240.495 407.294 241.417 406.92 242.146 406.171C242.876 405.403 243.241 404.453 243.241 403.32C243.241 402.168 242.876 401.218 242.146 400.469C241.417 399.72 240.495 399.346 239.381 399.346H234.745V407.294H239.381ZM251.732 414.466H260.43V417H249.054V396.84H251.732V414.466ZM276.955 417L275.314 412.478H266.242L264.6 417H261.749L269.266 396.84H272.29L279.807 417H276.955ZM267.163 409.973H274.392L270.763 400.037L267.163 409.973ZM290.929 417.374C287.876 417.374 285.351 416.366 283.354 414.35C281.377 412.334 280.388 409.858 280.388 406.92C280.388 403.982 281.377 401.506 283.354 399.49C285.351 397.474 287.876 396.466 290.929 396.466C292.772 396.466 294.462 396.907 295.998 397.79C297.553 398.674 298.762 399.864 299.626 401.362L297.294 402.715C296.718 401.602 295.854 400.718 294.702 400.066C293.569 399.394 292.311 399.058 290.929 399.058C288.606 399.058 286.705 399.806 285.226 401.304C283.767 402.802 283.038 404.674 283.038 406.92C283.038 409.147 283.767 411.01 285.226 412.507C286.705 414.005 288.606 414.754 290.929 414.754C292.311 414.754 293.569 414.427 294.702 413.774C295.854 413.102 296.718 412.219 297.294 411.125L299.626 412.45C298.782 413.947 297.582 415.147 296.026 416.05C294.471 416.933 292.772 417.374 290.929 417.374ZM305.338 414.466H314.698V417H302.66V396.84H314.554V399.374H305.338V405.566H313.834V408.072H305.338V414.466ZM341.893 414.322C339.877 416.357 337.41 417.374 334.492 417.374C331.573 417.374 329.106 416.357 327.09 414.322C325.074 412.286 324.066 409.819 324.066 406.92C324.066 404.002 325.074 401.534 327.09 399.518C329.106 397.483 331.573 396.466 334.492 396.466C337.41 396.466 339.877 397.483 341.893 399.518C343.929 401.534 344.946 404.002 344.946 406.92C344.946 409.819 343.929 412.286 341.893 414.322ZM328.933 412.507C330.431 414.005 332.284 414.754 334.492 414.754C336.7 414.754 338.543 414.005 340.021 412.507C341.519 410.99 342.268 409.128 342.268 406.92C342.268 404.693 341.519 402.83 340.021 401.333C338.543 399.816 336.7 399.058 334.492 399.058C332.284 399.058 330.431 399.816 328.933 401.333C327.455 402.83 326.716 404.693 326.716 406.92C326.716 409.128 327.455 410.99 328.933 412.507ZM360.118 417L355.597 409.282H350.845V417H348.166V396.84H356.23C357.958 396.84 359.437 397.454 360.665 398.683C361.894 399.893 362.509 401.362 362.509 403.09C362.509 404.395 362.115 405.586 361.328 406.661C360.56 407.736 359.561 408.494 358.333 408.936L363.085 417H360.118ZM350.845 399.346V406.862H356.23C357.229 406.862 358.073 406.498 358.765 405.768C359.475 405.019 359.83 404.126 359.83 403.09C359.83 402.053 359.475 401.17 358.765 400.44C358.073 399.71 357.229 399.346 356.23 399.346H350.845ZM373.635 396.84C376.38 396.84 378.656 397.819 380.46 399.778C382.284 401.717 383.196 404.098 383.196 406.92C383.196 409.742 382.284 412.133 380.46 414.091C378.656 416.03 376.38 417 373.635 417H365.772V396.84H373.635ZM373.635 414.466C375.689 414.466 377.369 413.746 378.675 412.306C379.98 410.866 380.633 409.07 380.633 406.92C380.633 404.77 379.98 402.974 378.675 401.534C377.369 400.094 375.689 399.374 373.635 399.374H368.451V414.466H373.635ZM389.123 414.466H398.483V417H386.444V396.84H398.339V399.374H389.123V405.566H397.619V408.072H389.123V414.466ZM413.668 417L409.147 409.282H404.395V417H401.716V396.84H409.78C411.508 396.84 412.987 397.454 414.215 398.683C415.444 399.893 416.059 401.362 416.059 403.09C416.059 404.395 415.665 405.586 414.878 406.661C414.11 407.736 413.111 408.494 411.883 408.936L416.635 417H413.668ZM404.395 399.346V406.862H409.78C410.779 406.862 411.623 406.498 412.315 405.768C413.025 405.019 413.38 404.126 413.38 403.09C413.38 402.053 413.025 401.17 412.315 400.44C411.623 399.71 410.779 399.346 409.78 399.346H404.395Z" fill="white"/>
<path d="M133.867 242.491C136.862 244.392 138.82 247.502 138.82 251.592C138.82 258.734 133.003 263.4 125.803 263.4H108.868V223.08H124.651C131.678 223.08 137.38 227.63 137.38 234.6C137.38 237.941 136.055 240.59 133.867 242.491ZM124.651 231.72H118.084V238.862H124.651C126.724 238.862 128.164 237.365 128.164 235.291C128.164 233.218 126.782 231.72 124.651 231.72ZM125.803 254.76C128.107 254.76 129.604 253.147 129.604 250.901C129.604 248.654 128.107 247.042 125.803 247.042H118.084V254.76H125.803ZM159.995 233.794C165.812 233.794 170.766 237.941 170.766 245.717V263.4H162.126V246.984C162.126 243.413 159.879 241.742 157.115 241.742C153.947 241.742 151.758 243.586 151.758 247.675V263.4H143.118V223.08H151.758V237.307C153.313 235.176 156.193 233.794 159.995 233.794ZM184.417 252.456C185.512 255.451 188.161 256.488 191.329 256.488C193.691 256.488 195.707 255.566 196.859 254.299L203.771 258.274C200.949 262.19 196.686 264.206 191.214 264.206C181.365 264.206 175.259 257.582 175.259 249C175.259 240.418 181.48 233.794 190.581 233.794C198.99 233.794 205.211 240.302 205.211 249C205.211 250.21 205.096 251.362 204.865 252.456H184.417ZM184.245 246.005H196.629C195.707 242.664 193.115 241.454 190.523 241.454C187.24 241.454 185.051 243.067 184.245 246.005ZM217.549 252.456C218.643 255.451 221.293 256.488 224.461 256.488C226.822 256.488 228.838 255.566 229.99 254.299L236.902 258.274C234.08 262.19 229.817 264.206 224.345 264.206C214.496 264.206 208.39 257.582 208.39 249C208.39 240.418 214.611 233.794 223.712 233.794C232.121 233.794 238.342 240.302 238.342 249C238.342 250.21 238.227 251.362 237.997 252.456H217.549ZM217.376 246.005H229.76C228.838 242.664 226.246 241.454 223.654 241.454C220.371 241.454 218.182 243.067 217.376 246.005ZM250.297 243.01C250.297 246.293 264.467 244.104 264.467 254.76C264.467 261.384 258.707 264.206 252.486 264.206C246.726 264.206 242.348 262.018 240.102 257.352L247.59 253.09C248.339 255.278 249.951 256.488 252.486 256.488C254.559 256.488 255.596 255.854 255.596 254.702C255.596 251.534 241.427 253.205 241.427 243.24C241.427 236.962 246.726 233.794 252.716 233.794C257.382 233.794 261.529 235.867 263.948 239.957L256.575 243.931C255.769 242.434 254.617 241.397 252.716 241.397C251.219 241.397 250.297 241.973 250.297 243.01ZM285.657 233.794C291.475 233.794 296.428 237.941 296.428 245.717V263.4H287.788V246.984C287.788 243.413 285.542 241.742 282.777 241.742C279.609 241.742 277.42 243.586 277.42 247.675V263.4H268.78V223.08H277.42V237.307C278.975 235.176 281.855 233.794 285.657 233.794ZM334.618 233.794C341.242 233.794 345.562 238.517 345.562 245.717V263.4H336.922V246.466C336.922 243.586 335.539 241.742 332.774 241.742C329.894 241.742 328.282 243.758 328.282 247.157V263.4H319.642V246.466C319.642 243.586 318.259 241.742 315.494 241.742C312.614 241.742 311.002 243.758 311.002 247.157V263.4H302.362V234.6H311.002V237.25C312.326 235.291 314.861 233.794 318.72 233.794C322.118 233.794 324.653 235.176 326.266 237.595C327.878 235.291 330.528 233.794 334.618 233.794ZM372.377 234.6H381.017V263.4H372.377V260.693C370.476 262.882 367.653 264.206 363.794 264.206C356.249 264.206 350.028 257.582 350.028 249C350.028 240.418 356.249 233.794 363.794 233.794C367.653 233.794 370.476 235.118 372.377 237.307V234.6ZM365.522 256.027C369.497 256.027 372.377 253.32 372.377 249C372.377 244.68 369.497 241.973 365.522 241.973C361.548 241.973 358.668 244.68 358.668 249C358.668 253.32 361.548 256.027 365.522 256.027ZM87.8798 273.72H104.264V345.4H91.9758L64.3278 306.488V345.4H47.9438V273.72H60.2318L87.8798 312.632V273.72ZM153.203 294.2H168.563V345.4H153.203V340.587C149.824 344.478 144.806 346.834 137.945 346.834C124.531 346.834 113.472 335.058 113.472 319.8C113.472 304.542 124.531 292.766 137.945 292.766C144.806 292.766 149.824 295.122 153.203 299.013V294.2ZM141.017 332.293C148.083 332.293 153.203 327.48 153.203 319.8C153.203 312.12 148.083 307.307 141.017 307.307C133.952 307.307 128.832 312.12 128.832 319.8C128.832 327.48 133.952 332.293 141.017 332.293ZM209.835 308.946H199.288V327.07C199.288 331.474 203.077 331.883 209.835 331.474V345.4C189.765 347.448 183.928 341.406 183.928 327.07V308.946H175.736V294.2H183.928V284.472L199.288 279.864V294.2H209.835V308.946ZM252.607 294.2H267.967V345.4H252.607V340.587C249.842 344.376 244.722 346.834 237.964 346.834C227.621 346.834 218.815 339.461 218.815 325.637V294.2H234.175V323.384C234.175 329.733 238.169 332.702 243.084 332.702C248.716 332.702 252.607 329.426 252.607 322.155V294.2ZM294.592 303.314C296.64 296.453 303.501 293.176 309.952 293.176V310.584C303.603 309.56 294.592 312.12 294.592 322.258V345.4H279.232V294.2H294.592V303.314ZM352.803 294.2H368.163V345.4H352.803V340.587C349.424 344.478 344.406 346.834 337.545 346.834C324.131 346.834 313.072 335.058 313.072 319.8C313.072 304.542 324.131 292.766 337.545 292.766C344.406 292.766 349.424 295.122 352.803 299.013V294.2ZM340.617 332.293C347.683 332.293 352.803 327.48 352.803 319.8C352.803 312.12 347.683 307.307 340.617 307.307C333.552 307.307 328.432 312.12 328.432 319.8C328.432 327.48 333.552 332.293 340.617 332.293ZM379.432 345.4V270.648H394.792V345.4H379.432ZM420.073 309.15C420.073 314.987 445.263 311.096 445.263 330.04C445.263 341.816 435.023 346.834 423.964 346.834C413.724 346.834 405.941 342.942 401.948 334.648L415.26 327.07C416.591 330.962 419.458 333.112 423.964 333.112C427.65 333.112 429.493 331.986 429.493 329.938C429.493 324.306 404.303 327.275 404.303 309.56C404.303 298.398 413.724 292.766 424.373 292.766C432.668 292.766 440.041 296.453 444.341 303.723L431.234 310.789C429.801 308.126 427.753 306.283 424.373 306.283C421.711 306.283 420.073 307.307 420.073 309.15Z" fill="white"/>
<path d="M403.62 807.308L399.997 886.566L330.274 885.771C330.111 881.225 328.164 872.897 339.418 871.552C345.044 870.879 343.515 867.637 343.607 863.631L341.176 838.745L403.62 807.308Z" fill="#FBFBFB"/>
<path d="M482.258 802.41L480.822 900.174L411.1 899.38C410.936 894.834 408.989 886.506 420.243 885.16C425.87 884.487 424.34 881.246 424.432 877.24L421.526 829.076L482.258 802.41Z" fill="#FBFBFB"/>
<path d="M544.31 836.755L270.975 843.283C270.536 798.044 269.911 693.603 270.921 637.75C276.061 567.896 366.903 537.93 406.225 593.78C426.103 564.115 459.558 561.593 473.801 564.04C506.761 563.721 542.036 602.159 542.525 652.567L544.31 836.755Z" fill="black"/>
<path d="M470.384 696.777C458.314 698.344 433.221 707.72 429.403 732.691" stroke="white" stroke-width="4.06425"/>
<path d="M397.583 743.177C385.514 744.744 360.421 754.12 356.603 779.091" stroke="white" stroke-width="4.06425"/>
<circle cx="315.463" cy="711.776" r="17.0793" transform="rotate(-4.55368 315.463 711.776)" stroke="white" stroke-width="7.168"/>
<circle cx="366.996" cy="711.66" r="17.0793" transform="rotate(-4.55368 366.996 711.66)" stroke="white" stroke-width="7.168"/>
<circle cx="3.55205" cy="3.55205" r="3.55205" transform="matrix(-0.999953 0.00969468 0.00969468 0.999953 464.216 712.781)" fill="white"/>
<circle cx="3.55205" cy="3.55205" r="3.55205" transform="matrix(-0.999953 0.00969468 0.00969468 0.999953 454.511 724.81)" fill="white"/>
<circle cx="3.55205" cy="3.55205" r="3.55205" transform="matrix(-0.999953 0.00969468 0.00969468 0.999953 466.811 727.919)" fill="white"/>
<path d="M67.9995 818.4C84.9328 818 119.679 806.4 123.199 763.2C85.1995 763.2 65.1995 799.6 67.9995 818.4Z" fill="#8E0403"/>
<path d="M55.9995 884.8V707.2H-0.000488281V762C-0.000488281 803.92 31.4662 815.467 47.1995 816H-0.000488281V884.8H55.9995Z" fill="#8E0403"/>
<path d="M123.2 884.8H67.5996V832C109.6 832 121.733 868.133 123.2 884.8Z" fill="#8E0403"/>
<path d="M421.6 66.4C404.667 66.8 369.92 78.4 366.4 121.6C404.4 121.6 424.4 85.2 421.6 66.4Z" fill="#8E0403"/>
<path d="M433.6 -3.54133e-05L433.6 177.6L489.6 177.6L489.6 122.8C489.6 80.88 458.133 69.3333 442.4 68.8L489.6 68.8L489.6 -3.05176e-05L433.6 -3.54133e-05Z" fill="#8E0403"/>
<path d="M366.4 -7.734e-05L422 -7.24792e-05L422 52.7999C380 52.7999 367.867 16.6666 366.4 -7.734e-05Z" fill="#8E0403"/>
<path d="M389.6 263.2C402.933 260.533 429.28 248 428 219.2C389.6 230.4 393.6 248.533 389.6 263.2Z" fill="white"/>
<path d="M0.687926 -2.40008L69.9519 -2.40006L89.2959 46.2719L73.0719 48.7679L78.0639 72.4799L64.9599 69.3599L59.3439 98.0639L45.6159 81.2159L38.1279 101.184L29.3919 91.8239L21.9039 107.424L8.1759 72.4799L-1.8081 86.2079L-1.80809 60.6239L-12.4161 69.3599L-5.55208 45.0239L-22.4001 46.2719L-15.5361 32.5439L-22.4001 26.3039L0.687926 -2.40008Z" fill="black"/>
<path d="M16.9121 23.808L43.1201 23.7614" stroke="white" stroke-width="1.61741" stroke-linecap="square"/>
<path d="M17.8025 35.3371C13.1436 35.5329 9.52541 39.4684 9.72116 44.1274C9.91692 48.7864 13.8525 52.4045 18.5114 52.2088C23.1704 52.013 26.7885 48.0775 26.5928 43.4185C26.397 38.7595 22.4615 35.1414 17.8025 35.3371Z" stroke="white" stroke-width="2.496"/>
<path d="M42.7625 35.3371C38.1035 35.5329 34.4854 39.4684 34.6811 44.1274C34.8769 48.7864 38.8124 52.4045 43.4714 52.2088C48.1304 52.013 51.7485 48.0775 51.5527 43.4185C51.357 38.7595 47.4215 35.1414 42.7625 35.3371Z" stroke="white" stroke-width="2.496"/>
<rect x="99.1997" y="452" width="291.2" height="50.4" rx="25.2" fill="white"/>
<path d="M218.266 483.2L214.75 477.197H211.054V483.2H208.97V467.52H215.242C216.586 467.52 217.736 467.998 218.692 468.954C219.648 469.894 220.126 471.037 220.126 472.381C220.126 473.396 219.819 474.322 219.207 475.158C218.61 475.995 217.833 476.584 216.878 476.928L220.574 483.2H218.266ZM211.054 469.469V475.315H215.242C216.019 475.315 216.676 475.031 217.214 474.464C217.766 473.882 218.042 473.187 218.042 472.381C218.042 471.574 217.766 470.887 217.214 470.32C216.676 469.752 216.019 469.469 215.242 469.469H211.054ZM224.747 481.229H232.027V483.2H222.664V467.52H231.915V469.491H224.747V474.307H231.355V476.256H224.747V481.229ZM244.577 467.52V469.491H239.941V483.2H237.88V469.491H233.265V467.52H244.577ZM255.935 483.2L252.418 477.197H248.722V483.2H246.639V467.52H252.911C254.255 467.52 255.405 467.998 256.361 468.954C257.316 469.894 257.794 471.037 257.794 472.381C257.794 473.396 257.488 474.322 256.876 475.158C256.279 475.995 255.502 476.584 254.546 476.928L258.242 483.2H255.935ZM248.722 469.469V475.315H252.911C253.688 475.315 254.345 475.031 254.882 474.464C255.435 473.882 255.711 473.187 255.711 472.381C255.711 471.574 255.435 470.887 254.882 470.32C254.345 469.752 253.688 469.469 252.911 469.469H248.722ZM271.566 467.52L266.011 476.861V483.2H263.927V476.838L258.395 467.52H260.724L264.98 474.867L269.236 467.52H271.566ZM275.626 478.608C275.626 477.951 275.768 477.339 276.052 476.771C276.335 476.204 276.679 475.718 277.082 475.315C277.485 474.912 277.888 474.531 278.292 474.173C278.695 473.799 279.038 473.396 279.322 472.963C279.606 472.515 279.748 472.045 279.748 471.552C279.748 470.805 279.486 470.238 278.964 469.85C278.456 469.446 277.791 469.245 276.97 469.245C275.327 469.245 274.275 469.969 273.812 471.418L272.042 470.432C272.415 469.387 273.05 468.595 273.946 468.058C274.842 467.505 275.858 467.229 276.992 467.229C278.322 467.229 279.456 467.602 280.397 468.349C281.353 469.095 281.831 470.133 281.831 471.462C281.831 472.09 281.689 472.679 281.405 473.232C281.122 473.784 280.778 474.262 280.375 474.666C279.972 475.069 279.568 475.464 279.165 475.853C278.762 476.226 278.419 476.652 278.135 477.13C277.851 477.592 277.709 478.085 277.709 478.608H275.626ZM276.656 483.446C276.253 483.446 275.91 483.304 275.626 483.021C275.342 482.737 275.2 482.394 275.2 481.99C275.2 481.587 275.342 481.244 275.626 480.96C275.91 480.676 276.253 480.534 276.656 480.534C277.075 480.534 277.418 480.676 277.687 480.96C277.971 481.244 278.112 481.587 278.112 481.99C278.112 482.394 277.971 482.737 277.687 483.021C277.418 483.304 277.075 483.446 276.656 483.446Z" fill="black"/>
</g>
<defs>
<clipPath id="clip0_203_319">
<rect width="489.6" height="884.8" rx="32" fill="white"/>
</clipPath>
</defs>
</svg>
