<svg width="90" height="102" viewBox="0 0 90 102" fill="none" xmlns="http://www.w3.org/2000/svg">
<rect x="0.164429" y="76.5276" width="89" height="4" fill="black" fill-opacity="0.5"/>
<path d="M38.0133 76.4581L27.6644 96.0276L10.1644 87.5276C10.6644 86.3609 11.1644 84.0276 14.1644 85.0276C15.6644 85.5276 15.6644 84.5276 16.1644 83.5276L18.5133 76.9581L38.0133 76.4581Z" fill="#FBFBFB"/>
<path d="M61.6644 77.0276L49.6644 101.528L32.1644 93.0276C32.6644 91.8609 33.1644 89.5276 36.1644 90.5276C37.6644 91.0276 37.6644 90.0276 38.1644 89.0276L43.1644 76.5276L61.6644 77.0276Z" fill="#FBFBFB"/>
<path fill-rule="evenodd" clip-rule="evenodd" d="M83.274 78.1073L6.99381 77.0694C7.34455 64.4512 8.2624 35.3242 9.12793 19.7617C11.2914 0.338699 36.9336 -7.06654 47.3133 8.91678C53.1659 0.853228 62.5204 0.499886 66.4661 1.33116C75.6594 1.5867 85.0928 12.6729 84.702 26.7331L83.274 78.1073ZM57.7563 41.0978C60.0316 39.6604 62.5617 39.0184 64.1771 38.87L64.0734 37.7407C62.3072 37.903 59.5993 38.5922 57.1506 40.1391C54.6913 41.6927 52.466 44.1318 51.7666 47.7838L52.8804 47.9971C53.5067 44.7265 55.4915 42.5284 57.7563 41.0978ZM41.5068 54.5383L41.5067 54.5381L41.5062 54.5376L41.505 54.5362L41.5009 54.5313L41.4862 54.5143L41.4637 54.4884L41.4321 54.4524C41.3855 54.3995 41.318 54.324 41.2327 54.2311C41.0623 54.0456 40.8195 53.7898 40.528 53.5066C39.9532 52.9483 39.1567 52.2512 38.3356 51.7904C36.9404 51.0076 35.5511 50.9002 34.5239 50.9839C34.0096 51.0257 33.5804 51.1157 33.2769 51.1963C33.1248 51.2366 33.0034 51.2748 32.9176 51.3039C32.8917 51.3127 32.869 51.3206 32.8496 51.3276L32.816 51.3399L32.7861 51.3512L32.7767 51.3549L32.7733 51.3563L32.772 51.3568L32.7714 51.357C32.7711 51.3571 32.7709 51.3572 33.0133 51.9582L32.7709 51.3572L32.1699 51.5996L32.6547 52.8015L33.2541 52.5598L33.2549 52.5595L33.268 52.5545C33.2812 52.5496 33.3033 52.5416 33.3336 52.5313C33.3943 52.5107 33.4878 52.4812 33.6092 52.4489C33.8527 52.3843 34.2051 52.3101 34.629 52.2756C35.4781 52.2065 36.5914 52.2978 37.7014 52.9207C38.3751 53.2987 39.076 53.9029 39.6249 54.4362C39.8953 54.6988 40.1208 54.9365 40.2784 55.1079C40.357 55.1935 40.4184 55.2623 40.4597 55.3091C40.4803 55.3325 40.4958 55.3504 40.506 55.3621L40.517 55.3749L40.5194 55.3777L40.5196 55.378L40.5197 55.3781L40.5198 55.3782L40.9394 55.8717L41.9267 55.0321L41.5069 54.5384L41.02 54.9526C41.5069 54.5384 41.5069 54.5384 41.5068 54.5383ZM20.9312 44.6295C23.009 44.5422 24.6225 42.7871 24.5352 40.7093C24.4479 38.6316 22.6928 37.018 20.6151 37.1053C18.5373 37.1926 16.9237 38.9477 17.011 41.0255C17.0983 43.1033 18.8535 44.7168 20.9312 44.6295ZM21.0152 46.6278C24.1965 46.4941 26.6672 43.8067 26.5335 40.6254C26.3998 37.444 23.7124 34.9734 20.5311 35.1071C17.3497 35.2407 14.8791 37.9281 15.0128 41.1095C15.1465 44.2908 17.8338 46.7614 21.0152 46.6278ZM38.9052 41.216C38.9925 43.2938 37.3789 45.0489 35.3011 45.1362C33.2234 45.2235 31.4683 43.6099 31.381 41.5321C31.2937 39.4544 32.9072 37.6993 34.985 37.612C37.0627 37.5247 38.8179 39.1382 38.9052 41.216ZM40.9034 41.132C41.0371 44.3134 38.5665 47.0007 35.3851 47.1344C32.2038 47.2681 29.5164 44.7975 29.3827 41.6161C29.249 38.4348 31.7197 35.7474 34.901 35.6137C38.0824 35.4801 40.7697 37.9507 40.9034 41.132ZM60.2295 43.6389C60.2142 44.186 60.6455 44.6419 61.1926 44.6571C61.7398 44.6723 62.1957 44.2411 62.2109 43.6939C62.2261 43.1468 61.7948 42.6909 61.2477 42.6757C60.7005 42.6605 60.2447 43.0917 60.2295 43.6389ZM58.3609 47.9094C57.8137 47.8942 57.3825 47.4383 57.3977 46.8912C57.4129 46.344 57.8688 45.9128 58.416 45.928C58.9631 45.9432 59.3943 46.3991 59.3791 46.9463C59.3639 47.4934 58.908 47.9246 58.3609 47.9094ZM60.7945 47.8868C60.7793 48.4339 61.2105 48.8898 61.7577 48.905C62.3048 48.9202 62.7607 48.489 62.7759 47.9419C62.7911 47.3947 62.3599 46.9388 61.8128 46.9236C61.2656 46.9084 60.8097 47.3396 60.7945 47.8868ZM46.4539 55.1094C42.937 57.0151 41.4547 49.581 41.3635 46.1463C41.4352 46.2014 41.508 46.2574 41.5819 46.3142C44.91 48.8721 50.308 53.021 46.4539 55.1094Z" fill="black"/>
</svg>
