<svg width="612" height="1106" viewBox="0 0 612 1106" fill="none" xmlns="http://www.w3.org/2000/svg">
<g clip-path="url(#clip0_203_288)">
<rect width="612" height="1106" rx="40" fill="#F7E505"/>
<path d="M190.74 518.652C188.22 521.196 185.136 522.468 181.488 522.468C177.84 522.468 174.756 521.196 172.236 518.652C169.716 516.108 168.456 513.024 168.456 509.4C168.456 505.752 169.716 502.668 172.236 500.148C174.756 497.604 177.84 496.332 181.488 496.332C185.136 496.332 188.22 497.604 190.74 500.148C193.284 502.668 194.556 505.752 194.556 509.4C194.556 513.024 193.284 516.108 190.74 518.652ZM174.54 516.384C176.412 518.256 178.728 519.192 181.488 519.192C184.248 519.192 186.552 518.256 188.4 516.384C190.272 514.488 191.208 512.16 191.208 509.4C191.208 506.616 190.272 504.288 188.4 502.416C186.552 500.52 184.248 499.572 181.488 499.572C178.728 499.572 176.412 500.52 174.54 502.416C172.692 504.288 171.768 506.616 171.768 509.4C171.768 512.16 172.692 514.488 174.54 516.384ZM213.521 522L207.869 512.352H201.929V522H198.581V496.8H208.661C210.821 496.8 212.669 497.568 214.205 499.104C215.741 500.616 216.509 502.452 216.509 504.612C216.509 506.244 216.017 507.732 215.033 509.076C214.073 510.42 212.825 511.368 211.289 511.92L217.229 522H213.521ZM201.929 499.932V509.328H208.661C209.909 509.328 210.965 508.872 211.829 507.96C212.717 507.024 213.161 505.908 213.161 504.612C213.161 503.316 212.717 502.212 211.829 501.3C210.965 500.388 209.909 499.932 208.661 499.932H201.929ZM230.417 496.8C233.849 496.8 236.693 498.024 238.949 500.472C241.229 502.896 242.369 505.872 242.369 509.4C242.369 512.928 241.229 515.916 238.949 518.364C236.693 520.788 233.849 522 230.417 522H220.589V496.8H230.417ZM230.417 518.832C232.985 518.832 235.085 517.932 236.717 516.132C238.349 514.332 239.165 512.088 239.165 509.4C239.165 506.712 238.349 504.468 236.717 502.668C235.085 500.868 232.985 499.968 230.417 499.968H223.937V518.832H230.417ZM249.777 518.832H261.477V522H246.429V496.8H261.297V499.968H249.777V507.708H260.397V510.84H249.777V518.832ZM280.458 522L274.806 512.352H268.866V522H265.518V496.8H275.598C277.758 496.8 279.606 497.568 281.142 499.104C282.678 500.616 283.446 502.452 283.446 504.612C283.446 506.244 282.954 507.732 281.97 509.076C281.01 510.42 279.762 511.368 278.226 511.92L284.166 522H280.458ZM268.866 499.932V509.328H275.598C276.846 509.328 277.902 508.872 278.766 507.96C279.654 507.024 280.098 505.908 280.098 504.612C280.098 503.316 279.654 502.212 278.766 501.3C277.902 500.388 276.846 499.932 275.598 499.932H268.866ZM305.67 496.8C307.998 496.8 309.93 497.58 311.466 499.14C313.026 500.676 313.806 502.596 313.806 504.9C313.806 507.18 313.026 509.1 311.466 510.66C309.93 512.22 307.998 513 305.67 513H299.874V522H296.526V496.8H305.67ZM305.67 509.868C307.062 509.868 308.214 509.4 309.126 508.464C310.038 507.504 310.494 506.316 310.494 504.9C310.494 503.46 310.038 502.272 309.126 501.336C308.214 500.4 307.062 499.932 305.67 499.932H299.874V509.868H305.67ZM321.109 518.832H332.809V522H317.761V496.8H332.629V499.968H321.109V507.708H331.729V510.84H321.109V518.832ZM352.51 496.8H355.858V522H353.158L340.198 503.172V522H336.85V496.8H339.55L352.51 515.592V496.8ZM371.077 496.8C374.509 496.8 377.353 498.024 379.609 500.472C381.889 502.896 383.029 505.872 383.029 509.4C383.029 512.928 381.889 515.916 379.609 518.364C377.353 520.788 374.509 522 371.077 522H361.249V496.8H371.077ZM371.077 518.832C373.645 518.832 375.745 517.932 377.377 516.132C379.009 514.332 379.825 512.088 379.825 509.4C379.825 506.712 379.009 504.468 377.377 502.668C375.745 500.868 373.645 499.968 371.077 499.968H364.597V518.832H371.077ZM387.089 496.8H390.437V522H387.089V496.8ZM411.503 496.8H414.851V522H412.151L399.191 503.172V522H395.843V496.8H398.543L411.503 515.592V496.8ZM444.541 509.508V511.02C444.541 514.308 443.413 517.044 441.157 519.228C438.901 521.388 435.913 522.468 432.193 522.468C428.353 522.468 425.173 521.208 422.653 518.688C420.157 516.144 418.909 513.048 418.909 509.4C418.909 505.752 420.157 502.668 422.653 500.148C425.173 497.604 428.329 496.332 432.121 496.332C434.449 496.332 436.585 496.896 438.529 498.024C440.473 499.128 441.973 500.592 443.029 502.416L440.149 504.108C439.429 502.74 438.337 501.648 436.873 500.832C435.433 499.992 433.837 499.572 432.085 499.572C429.205 499.572 426.841 500.52 424.993 502.416C423.145 504.288 422.221 506.616 422.221 509.4C422.221 512.184 423.145 514.512 424.993 516.384C426.865 518.256 429.277 519.192 432.229 519.192C434.749 519.192 436.789 518.58 438.349 517.356C439.909 516.108 440.857 514.5 441.193 512.532H431.941V509.508H444.541Z" fill="black"/>
<path d="M167.334 302.864C171.078 305.24 173.526 309.128 173.526 314.24C173.526 323.168 166.254 329 157.254 329H136.086V278.6H155.814C164.598 278.6 171.726 284.288 171.726 293C171.726 297.176 170.07 300.488 167.334 302.864ZM155.814 289.4H147.606V298.328H155.814C158.406 298.328 160.206 296.456 160.206 293.864C160.206 291.272 158.478 289.4 155.814 289.4ZM157.254 318.2C160.134 318.2 162.006 316.184 162.006 313.376C162.006 310.568 160.134 308.552 157.254 308.552H147.606V318.2H157.254ZM199.994 291.992C207.266 291.992 213.458 297.176 213.458 306.896V329H202.658V308.48C202.658 304.016 199.85 301.928 196.394 301.928C192.434 301.928 189.698 304.232 189.698 309.344V329H178.898V278.6H189.698V296.384C191.642 293.72 195.242 291.992 199.994 291.992ZM230.522 315.32C231.89 319.064 235.202 320.36 239.162 320.36C242.114 320.36 244.634 319.208 246.074 317.624L254.714 322.592C251.186 327.488 245.858 330.008 239.018 330.008C226.706 330.008 219.074 321.728 219.074 311C219.074 300.272 226.85 291.992 238.226 291.992C248.738 291.992 256.514 300.128 256.514 311C256.514 312.512 256.37 313.952 256.082 315.32H230.522ZM230.306 307.256H245.786C244.634 303.08 241.394 301.568 238.154 301.568C234.05 301.568 231.314 303.584 230.306 307.256ZM271.936 315.32C273.304 319.064 276.616 320.36 280.576 320.36C283.528 320.36 286.048 319.208 287.488 317.624L296.128 322.592C292.6 327.488 287.272 330.008 280.432 330.008C268.12 330.008 260.488 321.728 260.488 311C260.488 300.272 268.264 291.992 279.64 291.992C290.152 291.992 297.928 300.128 297.928 311C297.928 312.512 297.784 313.952 297.496 315.32H271.936ZM271.72 307.256H287.2C286.048 303.08 282.808 301.568 279.568 301.568C275.464 301.568 272.728 303.584 271.72 307.256ZM312.872 303.512C312.872 307.616 330.584 304.88 330.584 318.2C330.584 326.48 323.384 330.008 315.608 330.008C308.408 330.008 302.936 327.272 300.128 321.44L309.488 316.112C310.424 318.848 312.44 320.36 315.608 320.36C318.2 320.36 319.496 319.568 319.496 318.128C319.496 314.168 301.784 316.256 301.784 303.8C301.784 295.952 308.408 291.992 315.896 291.992C321.728 291.992 326.912 294.584 329.936 299.696L320.72 304.664C319.712 302.792 318.272 301.496 315.896 301.496C314.024 301.496 312.872 302.216 312.872 303.512ZM357.072 291.992C364.344 291.992 370.536 297.176 370.536 306.896V329H359.736V308.48C359.736 304.016 356.928 301.928 353.472 301.928C349.512 301.928 346.776 304.232 346.776 309.344V329H335.976V278.6H346.776V296.384C348.72 293.72 352.32 291.992 357.072 291.992ZM418.272 291.992C426.552 291.992 431.952 297.896 431.952 306.896V329H421.152V307.832C421.152 304.232 419.424 301.928 415.968 301.928C412.368 301.928 410.352 304.448 410.352 308.696V329H399.552V307.832C399.552 304.232 397.824 301.928 394.368 301.928C390.768 301.928 388.752 304.448 388.752 308.696V329H377.952V293H388.752V296.312C390.408 293.864 393.576 291.992 398.4 291.992C402.648 291.992 405.816 293.72 407.832 296.744C409.848 293.864 413.16 291.992 418.272 291.992ZM465.471 293H476.271V329H465.471V325.616C463.095 328.352 459.567 330.008 454.743 330.008C445.311 330.008 437.535 321.728 437.535 311C437.535 300.272 445.311 291.992 454.743 291.992C459.567 291.992 463.095 293.648 465.471 296.384V293ZM456.903 319.784C461.871 319.784 465.471 316.4 465.471 311C465.471 305.6 461.871 302.216 456.903 302.216C451.935 302.216 448.335 305.6 448.335 311C448.335 316.4 451.935 319.784 456.903 319.784ZM109.85 341.4H130.33V431H114.97L80.41 382.36V431H59.93V341.4H75.29L109.85 390.04V341.4ZM191.504 367H210.704V431H191.504V424.984C187.28 429.848 181.008 432.792 172.432 432.792C155.664 432.792 141.84 418.072 141.84 399C141.84 379.928 155.664 365.208 172.432 365.208C181.008 365.208 187.28 368.152 191.504 373.016V367ZM176.272 414.616C185.104 414.616 191.504 408.6 191.504 399C191.504 389.4 185.104 383.384 176.272 383.384C167.44 383.384 161.04 389.4 161.04 399C161.04 408.6 167.44 414.616 176.272 414.616ZM262.294 385.432H249.11V408.088C249.11 413.592 253.846 414.104 262.294 413.592V431C237.206 433.56 229.91 426.008 229.91 408.088V385.432H219.67V367H229.91V354.84L249.11 349.08V367H262.294V385.432ZM315.759 367H334.959V431H315.759V424.984C312.303 429.72 305.903 432.792 297.455 432.792C284.527 432.792 273.519 423.576 273.519 406.296V367H292.719V403.48C292.719 411.416 297.711 415.128 303.855 415.128C310.895 415.128 315.759 411.032 315.759 401.944V367ZM368.24 378.392C370.8 369.816 379.376 365.72 387.44 365.72V387.48C379.504 386.2 368.24 389.4 368.24 402.072V431H349.04V367H368.24V378.392ZM441.004 367H460.204V431H441.004V424.984C436.78 429.848 430.508 432.792 421.932 432.792C405.164 432.792 391.34 418.072 391.34 399C391.34 379.928 405.164 365.208 421.932 365.208C430.508 365.208 436.78 368.152 441.004 373.016V367ZM425.772 414.616C434.604 414.616 441.004 408.6 441.004 399C441.004 389.4 434.604 383.384 425.772 383.384C416.94 383.384 410.54 389.4 410.54 399C410.54 408.6 416.94 414.616 425.772 414.616ZM474.29 431V337.56H493.49V431H474.29ZM525.091 385.688C525.091 392.984 556.579 388.12 556.579 411.8C556.579 426.52 543.779 432.792 529.955 432.792C517.155 432.792 507.427 427.928 502.435 417.56L519.075 408.088C520.739 412.952 524.323 415.64 529.955 415.64C534.563 415.64 536.867 414.232 536.867 411.672C536.867 404.632 505.379 408.344 505.379 386.2C505.379 372.248 517.155 365.208 530.467 365.208C540.835 365.208 550.051 369.816 555.427 378.904L539.043 387.736C537.251 384.408 534.691 382.104 530.467 382.104C527.139 382.104 525.091 383.384 525.091 385.688Z" fill="black"/>
<path d="M504.526 1011.14L499.997 1110.21L412.844 1109.21C412.64 1103.53 410.206 1093.12 424.273 1091.44C431.306 1090.6 429.395 1086.55 429.509 1081.54L426.471 1050.43L504.526 1011.14Z" fill="#FBFBFB"/>
<path d="M602.823 1005.01L601.028 1127.22L513.875 1126.22C513.671 1120.54 511.237 1110.13 525.304 1108.45C532.338 1107.61 530.426 1103.56 530.541 1098.55L526.909 1038.35L602.823 1005.01Z" fill="#FBFBFB"/>
<path d="M680.389 1047.94L338.719 1056.1C338.171 999.555 337.39 869.004 338.652 799.187C345.077 711.87 458.63 674.413 507.782 744.225C532.629 707.143 574.449 703.991 592.252 707.05C633.452 706.651 677.546 754.698 678.156 817.709L680.389 1047.94Z" fill="black"/>
<path d="M587.98 872.971C572.894 874.929 541.527 886.65 536.755 917.864" stroke="white" stroke-width="5.08032"/>
<path d="M490.551 933.708L442.274 937.553" stroke="white" stroke-width="5.80608" stroke-linecap="square"/>
<circle cx="394.329" cy="891.72" r="21.3491" transform="rotate(-4.55368 394.329 891.72)" stroke="white" stroke-width="8.96"/>
<circle cx="458.746" cy="891.575" r="21.3491" transform="rotate(-4.55368 458.746 891.575)" stroke="white" stroke-width="8.96"/>
<circle cx="4.44006" cy="4.44006" r="4.44006" transform="matrix(-0.999953 0.00969468 0.00969468 0.999953 580.271 892.977)" fill="white"/>
<circle cx="4.44006" cy="4.44006" r="4.44006" transform="matrix(-0.999953 0.00969468 0.00969468 0.999953 568.14 908.012)" fill="white"/>
<circle cx="4.44006" cy="4.44006" r="4.44006" transform="matrix(-0.999953 0.00969468 0.00969468 0.999953 583.514 911.899)" fill="white"/>
<path d="M85 1023C106.167 1022.5 149.6 1008 154 954C106.5 954 81.5 999.5 85 1023Z" fill="#F7D005"/>
<path d="M70 1106V884H0V952.5C0 1004.9 39.3333 1019.33 59 1020H0V1106H70Z" fill="#F7D005"/>
<path d="M154 1106H84.5V1040C137 1040 152.167 1085.17 154 1106Z" fill="#F7D005"/>
<path d="M527 83C505.833 83.5 462.4 98 458 152C505.5 152 530.5 106.5 527 83Z" fill="#F7D005"/>
<path d="M542 -6.11959e-06L542 222L612 222L612 153.5C612 101.1 572.667 86.6667 553 86L612 86L612 0L542 -6.11959e-06Z" fill="#F7D005"/>
<path d="M458 -6.07588e-06L527.5 0L527.5 66C475 66 459.833 20.8333 458 -6.07588e-06Z" fill="#F7D005"/>
<path d="M487 329C503.667 325.667 536.6 310 535 274C487 288 492 310.667 487 329Z" fill="black"/>
<path d="M0.860159 -3L87.4402 -2.99998L111.62 57.84L91.3401 60.96L97.5801 90.6L81.2001 86.7L74.1801 122.58L57.0201 101.52L47.6601 126.48L36.7401 114.78L27.3801 134.28L10.2201 90.6L-2.25987 107.76L-2.25986 75.78L-15.5199 86.7L-6.93986 56.28L-27.9999 57.84L-19.4199 40.68L-27.9999 32.88L0.860159 -3Z" fill="black"/>
<path d="M21.1402 29.7601L53.9001 29.7018" stroke="white" stroke-width="2.02176" stroke-linecap="square"/>
<path d="M22.2533 44.1715C16.4296 44.4162 11.9069 49.3356 12.1516 55.1593C12.3963 60.983 17.3157 65.5057 23.1394 65.261C28.9631 65.0163 33.4858 60.0969 33.2411 54.2732C32.9964 48.4495 28.077 43.9268 22.2533 44.1715Z" stroke="white" stroke-width="3.12"/>
<path d="M53.4535 44.1715C47.6298 44.4162 43.1071 49.3356 43.3518 55.1593C43.5965 60.983 48.5159 65.5057 54.3396 65.261C60.1633 65.0163 64.686 60.0969 64.4413 54.2732C64.1966 48.4495 59.2772 43.9268 53.4535 44.1715Z" stroke="white" stroke-width="3.12"/>
<rect x="124" y="565" width="364" height="63" rx="31.5" fill="black"/>
<path d="M191.416 604.364C188.448 604.364 185.993 603.384 184.052 601.424C182.129 599.464 181.168 597.056 181.168 594.2C181.168 591.344 182.129 588.936 184.052 586.976C185.993 585.016 188.448 584.036 191.416 584.036C193.208 584.036 194.85 584.465 196.344 585.324C197.856 586.183 199.032 587.34 199.872 588.796L197.604 590.112C197.044 589.029 196.204 588.171 195.084 587.536C193.982 586.883 192.76 586.556 191.416 586.556C189.157 586.556 187.309 587.284 185.872 588.74C184.453 590.196 183.744 592.016 183.744 594.2C183.744 596.365 184.453 598.176 185.872 599.632C187.309 601.088 189.157 601.816 191.416 601.816C192.76 601.816 193.982 601.499 195.084 600.864C196.204 600.211 197.044 599.352 197.604 598.288L199.872 599.576C199.05 601.032 197.884 602.199 196.372 603.076C194.86 603.935 193.208 604.364 191.416 604.364ZM214.945 584.4H217.521V604H214.945V595.18H205.425V604H202.821V584.4H205.425V592.716H214.945V584.4ZM224.319 601.536H233.419V604H221.715V584.4H233.279V586.864H224.319V592.884H232.579V595.32H224.319V601.536ZM245.638 604.364C242.67 604.364 240.216 603.384 238.274 601.424C236.352 599.464 235.39 597.056 235.39 594.2C235.39 591.344 236.352 588.936 238.274 586.976C240.216 585.016 242.67 584.036 245.638 584.036C247.43 584.036 249.073 584.465 250.566 585.324C252.078 586.183 253.254 587.34 254.094 588.796L251.826 590.112C251.266 589.029 250.426 588.171 249.306 587.536C248.205 586.883 246.982 586.556 245.638 586.556C243.38 586.556 241.532 587.284 240.094 588.74C238.676 590.196 237.966 592.016 237.966 594.2C237.966 596.365 238.676 598.176 240.094 599.632C241.532 601.088 243.38 601.816 245.638 601.816C246.982 601.816 248.205 601.499 249.306 600.864C250.426 600.211 251.266 599.352 251.826 598.288L254.094 599.576C253.273 601.032 252.106 602.199 250.594 603.076C249.082 603.935 247.43 604.364 245.638 604.364ZM271.295 604H268.103L259.647 594.592V604H257.043V584.4H259.647V593.248L267.823 584.4H271.015L262.363 593.92L271.295 604ZM296.91 601.396C294.95 603.375 292.551 604.364 289.714 604.364C286.876 604.364 284.478 603.375 282.518 601.396C280.558 599.417 279.578 597.019 279.578 594.2C279.578 591.363 280.558 588.964 282.518 587.004C284.478 585.025 286.876 584.036 289.714 584.036C292.551 584.036 294.95 585.025 296.91 587.004C298.888 588.964 299.878 591.363 299.878 594.2C299.878 597.019 298.888 599.417 296.91 601.396ZM284.31 599.632C285.766 601.088 287.567 601.816 289.714 601.816C291.86 601.816 293.652 601.088 295.09 599.632C296.546 598.157 297.274 596.347 297.274 594.2C297.274 592.035 296.546 590.224 295.09 588.768C293.652 587.293 291.86 586.556 289.714 586.556C287.567 586.556 285.766 587.293 284.31 588.768C282.872 590.224 282.154 592.035 282.154 594.2C282.154 596.347 282.872 598.157 284.31 599.632ZM315.275 602.488C313.913 603.739 312.149 604.364 309.983 604.364C307.818 604.364 306.045 603.739 304.663 602.488C303.301 601.219 302.619 599.529 302.619 597.42V584.4H305.223V597.308C305.223 598.689 305.634 599.791 306.455 600.612C307.277 601.415 308.453 601.816 309.983 601.816C311.514 601.816 312.69 601.415 313.511 600.612C314.333 599.791 314.743 598.689 314.743 597.308V584.4H317.319V597.42C317.319 599.529 316.638 601.219 315.275 602.488ZM333.845 584.4V586.864H328.049V604H325.473V586.864H319.705V584.4H333.845ZM359.718 601.396C357.758 603.375 355.36 604.364 352.522 604.364C349.685 604.364 347.286 603.375 345.326 601.396C343.366 599.417 342.386 597.019 342.386 594.2C342.386 591.363 343.366 588.964 345.326 587.004C347.286 585.025 349.685 584.036 352.522 584.036C355.36 584.036 357.758 585.025 359.718 587.004C361.697 588.964 362.686 591.363 362.686 594.2C362.686 597.019 361.697 599.417 359.718 601.396ZM347.118 599.632C348.574 601.088 350.376 601.816 352.522 601.816C354.669 601.816 356.461 601.088 357.898 599.632C359.354 598.157 360.082 596.347 360.082 594.2C360.082 592.035 359.354 590.224 357.898 588.768C356.461 587.293 354.669 586.556 352.522 586.556C350.376 586.556 348.574 587.293 347.118 588.768C345.681 590.224 344.962 592.035 344.962 594.2C344.962 596.347 345.681 598.157 347.118 599.632ZM377.437 604L373.041 596.496H368.421V604H365.817V584.4H373.657C375.337 584.4 376.774 584.997 377.969 586.192C379.163 587.368 379.761 588.796 379.761 590.476C379.761 591.745 379.378 592.903 378.613 593.948C377.866 594.993 376.895 595.731 375.701 596.16L380.321 604H377.437ZM368.421 586.836V594.144H373.657C374.627 594.144 375.449 593.789 376.121 593.08C376.811 592.352 377.157 591.484 377.157 590.476C377.157 589.468 376.811 588.609 376.121 587.9C375.449 587.191 374.627 586.836 373.657 586.836H368.421ZM390.578 584.4C393.247 584.4 395.459 585.352 397.214 587.256C398.987 589.141 399.874 591.456 399.874 594.2C399.874 596.944 398.987 599.268 397.214 601.172C395.459 603.057 393.247 604 390.578 604H382.934V584.4H390.578ZM390.578 601.536C392.575 601.536 394.209 600.836 395.478 599.436C396.747 598.036 397.382 596.291 397.382 594.2C397.382 592.109 396.747 590.364 395.478 588.964C394.209 587.564 392.575 586.864 390.578 586.864H385.538V601.536H390.578ZM405.636 601.536H414.736V604H403.032V584.4H414.596V586.864H405.636V592.884H413.896V595.32H405.636V601.536ZM429.499 604L425.103 596.496H420.483V604H417.879V584.4H425.719C427.399 584.4 428.837 584.997 430.031 586.192C431.226 587.368 431.823 588.796 431.823 590.476C431.823 591.745 431.441 592.903 430.675 593.948C429.929 594.993 428.958 595.731 427.763 596.16L432.383 604H429.499ZM420.483 586.836V594.144H425.719C426.69 594.144 427.511 593.789 428.183 593.08C428.874 592.352 429.219 591.484 429.219 590.476C429.219 589.468 428.874 588.609 428.183 587.9C427.511 587.191 426.69 586.836 425.719 586.836H420.483Z" fill="white"/>
</g>
<defs>
<clipPath id="clip0_203_288">
<rect width="612" height="1106" rx="40" fill="white"/>
</clipPath>
</defs>
</svg>
