<svg width="612" height="1106" viewBox="0 0 612 1106" fill="none" xmlns="http://www.w3.org/2000/svg">
<g clip-path="url(#clip0_203_350)">
<rect width="612" height="1106" rx="40" fill="#52AF7C"/>
<path d="M68.7047 518.652C66.1847 521.196 63.1007 522.468 59.4527 522.468C55.8047 522.468 52.7207 521.196 50.2007 518.652C47.6807 516.108 46.4207 513.024 46.4207 509.4C46.4207 505.752 47.6807 502.668 50.2007 500.148C52.7207 497.604 55.8047 496.332 59.4527 496.332C63.1007 496.332 66.1847 497.604 68.7047 500.148C71.2487 502.668 72.5207 505.752 72.5207 509.4C72.5207 513.024 71.2487 516.108 68.7047 518.652ZM52.5047 516.384C54.3767 518.256 56.6927 519.192 59.4527 519.192C62.2127 519.192 64.5167 518.256 66.3647 516.384C68.2367 514.488 69.1727 512.16 69.1727 509.4C69.1727 506.616 68.2367 504.288 66.3647 502.416C64.5167 500.52 62.2127 499.572 59.4527 499.572C56.6927 499.572 54.3767 500.52 52.5047 502.416C50.6567 504.288 49.7327 506.616 49.7327 509.4C49.7327 512.16 50.6567 514.488 52.5047 516.384ZM91.4857 522L85.8337 512.352H79.8937V522H76.5457V496.8H86.6257C88.7857 496.8 90.6337 497.568 92.1697 499.104C93.7057 500.616 94.4737 502.452 94.4737 504.612C94.4737 506.244 93.9817 507.732 92.9977 509.076C92.0377 510.42 90.7897 511.368 89.2537 511.92L95.1937 522H91.4857ZM79.8937 499.932V509.328H86.6257C87.8737 509.328 88.9297 508.872 89.7937 507.96C90.6817 507.024 91.1257 505.908 91.1257 504.612C91.1257 503.316 90.6817 502.212 89.7937 501.3C88.9297 500.388 87.8737 499.932 86.6257 499.932H79.8937ZM108.382 496.8C111.814 496.8 114.658 498.024 116.914 500.472C119.194 502.896 120.334 505.872 120.334 509.4C120.334 512.928 119.194 515.916 116.914 518.364C114.658 520.788 111.814 522 108.382 522H98.5535V496.8H108.382ZM108.382 518.832C110.95 518.832 113.05 517.932 114.682 516.132C116.314 514.332 117.13 512.088 117.13 509.4C117.13 506.712 116.314 504.468 114.682 502.668C113.05 500.868 110.95 499.968 108.382 499.968H101.902V518.832H108.382ZM127.741 518.832H139.441V522H124.393V496.8H139.261V499.968H127.741V507.708H138.361V510.84H127.741V518.832ZM158.423 522L152.771 512.352H146.831V522H143.483V496.8H153.563C155.723 496.8 157.571 497.568 159.107 499.104C160.643 500.616 161.411 502.452 161.411 504.612C161.411 506.244 160.919 507.732 159.935 509.076C158.975 510.42 157.727 511.368 156.191 511.92L162.131 522H158.423ZM146.831 499.932V509.328H153.563C154.811 509.328 155.867 508.872 156.731 507.96C157.619 507.024 158.063 505.908 158.063 504.612C158.063 503.316 157.619 502.212 156.731 501.3C155.867 500.388 154.811 499.932 153.563 499.932H146.831ZM183.635 496.8C185.963 496.8 187.895 497.58 189.431 499.14C190.991 500.676 191.771 502.596 191.771 504.9C191.771 507.18 190.991 509.1 189.431 510.66C187.895 512.22 185.963 513 183.635 513H177.839V522H174.491V496.8H183.635ZM183.635 509.868C185.027 509.868 186.179 509.4 187.091 508.464C188.003 507.504 188.459 506.316 188.459 504.9C188.459 503.46 188.003 502.272 187.091 501.336C186.179 500.4 185.027 499.932 183.635 499.932H177.839V509.868H183.635ZM199.073 518.832H209.945V522H195.725V496.8H199.073V518.832ZM230.603 522L228.551 516.348H217.211L215.159 522H211.595L220.991 496.8H224.771L234.167 522H230.603ZM218.363 513.216H227.399L222.863 500.796L218.363 513.216ZM248.069 522.468C244.253 522.468 241.097 521.208 238.601 518.688C236.129 516.168 234.893 513.072 234.893 509.4C234.893 505.728 236.129 502.632 238.601 500.112C241.097 497.592 244.253 496.332 248.069 496.332C250.373 496.332 252.485 496.884 254.405 497.988C256.349 499.092 257.861 500.58 258.941 502.452L256.025 504.144C255.305 502.752 254.225 501.648 252.785 500.832C251.369 499.992 249.797 499.572 248.069 499.572C245.165 499.572 242.789 500.508 240.941 502.38C239.117 504.252 238.205 506.592 238.205 509.4C238.205 512.184 239.117 514.512 240.941 516.384C242.789 518.256 245.165 519.192 248.069 519.192C249.797 519.192 251.369 518.784 252.785 517.968C254.225 517.128 255.305 516.024 256.025 514.656L258.941 516.312C257.885 518.184 256.385 519.684 254.441 520.812C252.497 521.916 250.373 522.468 248.069 522.468ZM266.081 518.832H277.781V522H262.733V496.8H277.601V499.968H266.081V507.708H276.701V510.84H266.081V518.832ZM291.651 496.8C295.083 496.8 297.927 498.024 300.183 500.472C302.463 502.896 303.603 505.872 303.603 509.4C303.603 512.928 302.463 515.916 300.183 518.364C297.927 520.788 295.083 522 291.651 522H281.823V496.8H291.651ZM291.651 518.832C294.219 518.832 296.319 517.932 297.951 516.132C299.583 514.332 300.399 512.088 300.399 509.4C300.399 506.712 299.583 504.468 297.951 502.668C296.319 500.868 294.219 499.968 291.651 499.968H285.171V518.832H291.651ZM324.799 522.468C322.447 522.468 320.431 521.916 318.751 520.812C317.095 519.708 315.931 518.196 315.259 516.276L318.139 514.62C319.123 517.668 321.367 519.192 324.871 519.192C326.599 519.192 327.919 518.844 328.831 518.148C329.743 517.428 330.199 516.48 330.199 515.304C330.199 514.104 329.743 513.204 328.831 512.604C327.919 512.004 326.395 511.368 324.259 510.696C323.203 510.36 322.399 510.096 321.847 509.904C321.295 509.688 320.599 509.376 319.759 508.968C318.943 508.536 318.331 508.104 317.923 507.672C317.515 507.216 317.143 506.628 316.807 505.908C316.495 505.188 316.339 504.372 316.339 503.46C316.339 501.276 317.107 499.548 318.643 498.276C320.179 496.98 322.051 496.332 324.259 496.332C326.251 496.332 327.979 496.836 329.443 497.844C330.931 498.852 332.047 500.184 332.791 501.84L329.983 503.46C328.903 500.868 326.995 499.572 324.259 499.572C322.891 499.572 321.787 499.908 320.947 500.58C320.107 501.252 319.687 502.164 319.687 503.316C319.687 504.42 320.083 505.26 320.875 505.836C321.667 506.412 323.035 507.012 324.979 507.636C325.675 507.852 326.167 508.008 326.455 508.104C326.743 508.2 327.187 508.368 327.787 508.608C328.411 508.848 328.867 509.04 329.155 509.184C329.443 509.328 329.827 509.532 330.307 509.796C330.811 510.06 331.183 510.312 331.423 510.552C331.663 510.792 331.939 511.092 332.251 511.452C332.587 511.788 332.827 512.136 332.971 512.496C333.115 512.856 333.235 513.276 333.331 513.756C333.451 514.212 333.511 514.704 333.511 515.232C333.511 517.44 332.707 519.204 331.099 520.524C329.491 521.82 327.391 522.468 324.799 522.468ZM353.423 520.056C351.671 521.664 349.403 522.468 346.619 522.468C343.835 522.468 341.555 521.664 339.779 520.056C338.027 518.424 337.151 516.252 337.151 513.54V496.8H340.499V513.396C340.499 515.172 341.027 516.588 342.083 517.644C343.139 518.676 344.651 519.192 346.619 519.192C348.587 519.192 350.099 518.676 351.155 517.644C352.211 516.588 352.739 515.172 352.739 513.396V496.8H356.051V513.54C356.051 516.252 355.175 518.424 353.423 520.056ZM373.015 522.468C369.199 522.468 366.043 521.208 363.547 518.688C361.075 516.168 359.839 513.072 359.839 509.4C359.839 505.728 361.075 502.632 363.547 500.112C366.043 497.592 369.199 496.332 373.015 496.332C375.319 496.332 377.431 496.884 379.351 497.988C381.295 499.092 382.807 500.58 383.887 502.452L380.971 504.144C380.251 502.752 379.171 501.648 377.731 500.832C376.315 499.992 374.743 499.572 373.015 499.572C370.111 499.572 367.735 500.508 365.887 502.38C364.063 504.252 363.151 506.592 363.151 509.4C363.151 512.184 364.063 514.512 365.887 516.384C367.735 518.256 370.111 519.192 373.015 519.192C374.743 519.192 376.315 518.784 377.731 517.968C379.171 517.128 380.251 516.024 380.971 514.656L383.887 516.312C382.831 518.184 381.331 519.684 379.387 520.812C377.443 521.916 375.319 522.468 373.015 522.468ZM399.452 522.468C395.636 522.468 392.48 521.208 389.984 518.688C387.512 516.168 386.276 513.072 386.276 509.4C386.276 505.728 387.512 502.632 389.984 500.112C392.48 497.592 395.636 496.332 399.452 496.332C401.756 496.332 403.868 496.884 405.788 497.988C407.732 499.092 409.244 500.58 410.324 502.452L407.408 504.144C406.688 502.752 405.608 501.648 404.168 500.832C402.752 499.992 401.18 499.572 399.452 499.572C396.548 499.572 394.172 500.508 392.324 502.38C390.5 504.252 389.588 506.592 389.588 509.4C389.588 512.184 390.5 514.512 392.324 516.384C394.172 518.256 396.548 519.192 399.452 519.192C401.18 519.192 402.752 518.784 404.168 517.968C405.608 517.128 406.688 516.024 407.408 514.656L410.324 516.312C409.268 518.184 407.768 519.684 405.824 520.812C403.88 521.916 401.756 522.468 399.452 522.468ZM417.464 518.832H429.164V522H414.116V496.8H428.984V499.968H417.464V507.708H428.084V510.84H417.464V518.832ZM441.342 522.468C438.99 522.468 436.974 521.916 435.294 520.812C433.638 519.708 432.474 518.196 431.802 516.276L434.682 514.62C435.666 517.668 437.91 519.192 441.414 519.192C443.142 519.192 444.462 518.844 445.374 518.148C446.286 517.428 446.742 516.48 446.742 515.304C446.742 514.104 446.286 513.204 445.374 512.604C444.462 512.004 442.938 511.368 440.802 510.696C439.746 510.36 438.942 510.096 438.39 509.904C437.838 509.688 437.142 509.376 436.302 508.968C435.486 508.536 434.874 508.104 434.466 507.672C434.058 507.216 433.686 506.628 433.35 505.908C433.038 505.188 432.882 504.372 432.882 503.46C432.882 501.276 433.65 499.548 435.186 498.276C436.722 496.98 438.594 496.332 440.802 496.332C442.794 496.332 444.522 496.836 445.986 497.844C447.474 498.852 448.59 500.184 449.334 501.84L446.526 503.46C445.446 500.868 443.538 499.572 440.802 499.572C439.434 499.572 438.33 499.908 437.49 500.58C436.65 501.252 436.23 502.164 436.23 503.316C436.23 504.42 436.626 505.26 437.418 505.836C438.21 506.412 439.578 507.012 441.522 507.636C442.218 507.852 442.71 508.008 442.998 508.104C443.286 508.2 443.73 508.368 444.33 508.608C444.954 508.848 445.41 509.04 445.698 509.184C445.986 509.328 446.37 509.532 446.85 509.796C447.354 510.06 447.726 510.312 447.966 510.552C448.206 510.792 448.482 511.092 448.794 511.452C449.13 511.788 449.37 512.136 449.514 512.496C449.658 512.856 449.778 513.276 449.874 513.756C449.994 514.212 450.054 514.704 450.054 515.232C450.054 517.44 449.25 519.204 447.642 520.524C446.034 521.82 443.934 522.468 441.342 522.468ZM461.275 522.468C458.923 522.468 456.907 521.916 455.227 520.812C453.571 519.708 452.407 518.196 451.735 516.276L454.615 514.62C455.599 517.668 457.843 519.192 461.347 519.192C463.075 519.192 464.395 518.844 465.307 518.148C466.219 517.428 466.675 516.48 466.675 515.304C466.675 514.104 466.219 513.204 465.307 512.604C464.395 512.004 462.871 511.368 460.735 510.696C459.679 510.36 458.875 510.096 458.323 509.904C457.771 509.688 457.075 509.376 456.235 508.968C455.419 508.536 454.807 508.104 454.399 507.672C453.991 507.216 453.619 506.628 453.283 505.908C452.971 505.188 452.815 504.372 452.815 503.46C452.815 501.276 453.583 499.548 455.119 498.276C456.655 496.98 458.527 496.332 460.735 496.332C462.727 496.332 464.455 496.836 465.919 497.844C467.407 498.852 468.523 500.184 469.267 501.84L466.459 503.46C465.379 500.868 463.471 499.572 460.735 499.572C459.367 499.572 458.263 499.908 457.423 500.58C456.583 501.252 456.163 502.164 456.163 503.316C456.163 504.42 456.559 505.26 457.351 505.836C458.143 506.412 459.511 507.012 461.455 507.636C462.151 507.852 462.643 508.008 462.931 508.104C463.219 508.2 463.663 508.368 464.263 508.608C464.887 508.848 465.343 509.04 465.631 509.184C465.919 509.328 466.303 509.532 466.783 509.796C467.287 510.06 467.659 510.312 467.899 510.552C468.139 510.792 468.415 511.092 468.727 511.452C469.063 511.788 469.303 512.136 469.447 512.496C469.591 512.856 469.711 513.276 469.807 513.756C469.927 514.212 469.987 514.704 469.987 515.232C469.987 517.44 469.183 519.204 467.575 520.524C465.967 521.82 463.867 522.468 461.275 522.468ZM488.284 499.968H477.124V508.14H487.816V511.308H477.124V522H473.776V496.8H488.284V499.968ZM508.287 520.056C506.535 521.664 504.267 522.468 501.483 522.468C498.699 522.468 496.419 521.664 494.643 520.056C492.891 518.424 492.015 516.252 492.015 513.54V496.8H495.363V513.396C495.363 515.172 495.891 516.588 496.947 517.644C498.003 518.676 499.515 519.192 501.483 519.192C503.451 519.192 504.963 518.676 506.019 517.644C507.075 516.588 507.603 515.172 507.603 513.396V496.8H510.915V513.54C510.915 516.252 510.039 518.424 508.287 520.056ZM519.382 518.832H530.254V522H516.034V496.8H519.382V518.832ZM536.96 518.832H547.832V522H533.612V496.8H536.96V518.832ZM566.677 496.8L557.749 511.812V522H554.401V511.776L545.509 496.8H549.253L556.093 508.608L562.933 496.8H566.677Z" fill="white"/>
<path d="M167.334 302.864C171.078 305.24 173.526 309.128 173.526 314.24C173.526 323.168 166.254 329 157.254 329H136.086V278.6H155.814C164.598 278.6 171.726 284.288 171.726 293C171.726 297.176 170.07 300.488 167.334 302.864ZM155.814 289.4H147.606V298.328H155.814C158.406 298.328 160.206 296.456 160.206 293.864C160.206 291.272 158.478 289.4 155.814 289.4ZM157.254 318.2C160.134 318.2 162.006 316.184 162.006 313.376C162.006 310.568 160.134 308.552 157.254 308.552H147.606V318.2H157.254ZM199.994 291.992C207.266 291.992 213.458 297.176 213.458 306.896V329H202.658V308.48C202.658 304.016 199.85 301.928 196.394 301.928C192.434 301.928 189.698 304.232 189.698 309.344V329H178.898V278.6H189.698V296.384C191.642 293.72 195.242 291.992 199.994 291.992ZM230.522 315.32C231.89 319.064 235.202 320.36 239.162 320.36C242.114 320.36 244.634 319.208 246.074 317.624L254.714 322.592C251.186 327.488 245.858 330.008 239.018 330.008C226.706 330.008 219.074 321.728 219.074 311C219.074 300.272 226.85 291.992 238.226 291.992C248.738 291.992 256.514 300.128 256.514 311C256.514 312.512 256.37 313.952 256.082 315.32H230.522ZM230.306 307.256H245.786C244.634 303.08 241.394 301.568 238.154 301.568C234.05 301.568 231.314 303.584 230.306 307.256ZM271.936 315.32C273.304 319.064 276.616 320.36 280.576 320.36C283.528 320.36 286.048 319.208 287.488 317.624L296.128 322.592C292.6 327.488 287.272 330.008 280.432 330.008C268.12 330.008 260.488 321.728 260.488 311C260.488 300.272 268.264 291.992 279.64 291.992C290.152 291.992 297.928 300.128 297.928 311C297.928 312.512 297.784 313.952 297.496 315.32H271.936ZM271.72 307.256H287.2C286.048 303.08 282.808 301.568 279.568 301.568C275.464 301.568 272.728 303.584 271.72 307.256ZM312.872 303.512C312.872 307.616 330.584 304.88 330.584 318.2C330.584 326.48 323.384 330.008 315.608 330.008C308.408 330.008 302.936 327.272 300.128 321.44L309.488 316.112C310.424 318.848 312.44 320.36 315.608 320.36C318.2 320.36 319.496 319.568 319.496 318.128C319.496 314.168 301.784 316.256 301.784 303.8C301.784 295.952 308.408 291.992 315.896 291.992C321.728 291.992 326.912 294.584 329.936 299.696L320.72 304.664C319.712 302.792 318.272 301.496 315.896 301.496C314.024 301.496 312.872 302.216 312.872 303.512ZM357.072 291.992C364.344 291.992 370.536 297.176 370.536 306.896V329H359.736V308.48C359.736 304.016 356.928 301.928 353.472 301.928C349.512 301.928 346.776 304.232 346.776 309.344V329H335.976V278.6H346.776V296.384C348.72 293.72 352.32 291.992 357.072 291.992ZM418.272 291.992C426.552 291.992 431.952 297.896 431.952 306.896V329H421.152V307.832C421.152 304.232 419.424 301.928 415.968 301.928C412.368 301.928 410.352 304.448 410.352 308.696V329H399.552V307.832C399.552 304.232 397.824 301.928 394.368 301.928C390.768 301.928 388.752 304.448 388.752 308.696V329H377.952V293H388.752V296.312C390.408 293.864 393.576 291.992 398.4 291.992C402.648 291.992 405.816 293.72 407.832 296.744C409.848 293.864 413.16 291.992 418.272 291.992ZM465.471 293H476.271V329H465.471V325.616C463.095 328.352 459.567 330.008 454.743 330.008C445.311 330.008 437.535 321.728 437.535 311C437.535 300.272 445.311 291.992 454.743 291.992C459.567 291.992 463.095 293.648 465.471 296.384V293ZM456.903 319.784C461.871 319.784 465.471 316.4 465.471 311C465.471 305.6 461.871 302.216 456.903 302.216C451.935 302.216 448.335 305.6 448.335 311C448.335 316.4 451.935 319.784 456.903 319.784ZM109.85 341.4H130.33V431H114.97L80.41 382.36V431H59.93V341.4H75.29L109.85 390.04V341.4ZM191.504 367H210.704V431H191.504V424.984C187.28 429.848 181.008 432.792 172.432 432.792C155.664 432.792 141.84 418.072 141.84 399C141.84 379.928 155.664 365.208 172.432 365.208C181.008 365.208 187.28 368.152 191.504 373.016V367ZM176.272 414.616C185.104 414.616 191.504 408.6 191.504 399C191.504 389.4 185.104 383.384 176.272 383.384C167.44 383.384 161.04 389.4 161.04 399C161.04 408.6 167.44 414.616 176.272 414.616ZM262.294 385.432H249.11V408.088C249.11 413.592 253.846 414.104 262.294 413.592V431C237.206 433.56 229.91 426.008 229.91 408.088V385.432H219.67V367H229.91V354.84L249.11 349.08V367H262.294V385.432ZM315.759 367H334.959V431H315.759V424.984C312.303 429.72 305.903 432.792 297.455 432.792C284.527 432.792 273.519 423.576 273.519 406.296V367H292.719V403.48C292.719 411.416 297.711 415.128 303.855 415.128C310.895 415.128 315.759 411.032 315.759 401.944V367ZM368.24 378.392C370.8 369.816 379.376 365.72 387.44 365.72V387.48C379.504 386.2 368.24 389.4 368.24 402.072V431H349.04V367H368.24V378.392ZM441.004 367H460.204V431H441.004V424.984C436.78 429.848 430.508 432.792 421.932 432.792C405.164 432.792 391.34 418.072 391.34 399C391.34 379.928 405.164 365.208 421.932 365.208C430.508 365.208 436.78 368.152 441.004 373.016V367ZM425.772 414.616C434.604 414.616 441.004 408.6 441.004 399C441.004 389.4 434.604 383.384 425.772 383.384C416.94 383.384 410.54 389.4 410.54 399C410.54 408.6 416.94 414.616 425.772 414.616ZM474.29 431V337.56H493.49V431H474.29ZM525.091 385.688C525.091 392.984 556.579 388.12 556.579 411.8C556.579 426.52 543.779 432.792 529.955 432.792C517.155 432.792 507.427 427.928 502.435 417.56L519.075 408.088C520.739 412.952 524.323 415.64 529.955 415.64C534.563 415.64 536.867 414.232 536.867 411.672C536.867 404.632 505.379 408.344 505.379 386.2C505.379 372.248 517.155 365.208 530.467 365.208C540.835 365.208 550.051 369.816 555.427 378.904L539.043 387.736C537.251 384.408 534.691 382.104 530.467 382.104C527.139 382.104 525.091 383.384 525.091 385.688Z" fill="white"/>
<path d="M529.312 1010.99L524.566 1110.07L434.919 1109.15C434.714 1103.47 432.22 1093.06 446.691 1091.36C453.926 1090.52 451.964 1086.47 452.086 1081.46L448.988 1050.35L529.312 1010.99Z" fill="#FBFBFB"/>
<path d="M630.428 1004.78L628.474 1126.99L538.827 1126.07C538.622 1120.39 536.128 1109.98 550.599 1108.29C557.834 1107.44 555.872 1103.39 555.994 1098.38L552.311 1038.18L630.428 1004.78Z" fill="#FBFBFB"/>
<path d="M710.176 1047.64L358.719 1056.1C358.205 999.554 357.517 869 358.877 799.18C365.563 711.855 482.4 674.297 532.897 744.067C558.488 706.963 601.508 703.773 619.818 706.817C662.198 706.381 707.511 754.391 708.084 817.403L710.176 1047.64Z" fill="black"/>
<path d="M615.277 872.746C599.757 874.718 567.482 886.466 562.545 917.685" stroke="white" stroke-width="5.08032"/>
<path d="M515.005 933.571C515.005 933.571 504.146 940.872 489.23 941.885C474.314 942.898 465.343 937.458 465.343 937.458" stroke="white" stroke-width="5.80608" stroke-linecap="square"/>
<path d="M438.086 889.942C439.029 901.578 430.071 911.986 417.791 912.947C405.51 913.908 394.989 905.025 394.046 893.39C393.103 881.754 402.061 871.346 414.341 870.385C426.622 869.423 437.143 878.306 438.086 889.942Z" stroke="white" stroke-width="8.96"/>
<path d="M504.347 889.741C505.29 901.376 496.332 911.784 484.052 912.746C471.771 913.707 461.25 904.824 460.307 893.188C459.364 881.553 468.322 871.145 480.602 870.183C492.883 869.222 503.404 878.105 504.347 889.741Z" stroke="white" stroke-width="8.96"/>
<ellipse cx="4.56723" cy="4.44012" rx="4.56723" ry="4.44012" transform="matrix(-0.999947 0.0102838 0.00908872 0.999959 607.33 892.759)" fill="white"/>
<ellipse cx="4.56723" cy="4.44012" rx="4.56723" ry="4.44012" transform="matrix(-0.999947 0.0102838 0.00908872 0.999959 594.838 907.805)" fill="white"/>
<ellipse cx="4.56723" cy="4.44012" rx="4.56723" ry="4.44012" transform="matrix(-0.999947 0.0102838 0.00908872 0.999959 610.649 911.679)" fill="white"/>
<path d="M85 1023C106.167 1022.5 149.6 1008 154 954C106.5 954 81.5 999.5 85 1023Z" fill="#45A16E"/>
<path d="M70 1106V884H0V952.5C0 1004.9 39.3333 1019.33 59 1020H0V1106H70Z" fill="#45A16E"/>
<path d="M154 1106H84.5V1040C137 1040 152.167 1085.17 154 1106Z" fill="#45A16E"/>
<path d="M527 83C505.833 83.5 462.4 98 458 152C505.5 152 530.5 106.5 527 83Z" fill="#45A16E"/>
<path d="M542 -6.11959e-06L542 222L612 222L612 153.5C612 101.1 572.667 86.6667 553 86L612 86L612 0L542 -6.11959e-06Z" fill="#45A16E"/>
<path d="M458 -6.07588e-06L527.5 0L527.5 66C475 66 459.833 20.8333 458 -6.07588e-06Z" fill="#45A16E"/>
<path d="M487 329C503.667 325.667 536.6 310 535 274C487 288 492 310.667 487 329Z" fill="white"/>
<path d="M0.860159 -3L87.4402 -2.99998L111.62 57.84L91.3401 60.96L97.5801 90.6L81.2001 86.7L74.1801 122.58L57.0201 101.52L47.6601 126.48L36.7401 114.78L27.3801 134.28L10.2201 90.6L-2.25987 107.76L-2.25986 75.78L-15.5199 86.7L-6.93986 56.28L-27.9999 57.84L-19.4199 40.68L-27.9999 32.88L0.860159 -3Z" fill="black"/>
<path d="M21.1402 29.7601L53.9001 29.7018" stroke="white" stroke-width="2.02176" stroke-linecap="square"/>
<path d="M22.2533 44.1715C16.4296 44.4162 11.9069 49.3356 12.1516 55.1593C12.3963 60.983 17.3157 65.5057 23.1394 65.261C28.9631 65.0163 33.4858 60.0969 33.2411 54.2732C32.9964 48.4495 28.077 43.9268 22.2533 44.1715Z" stroke="white" stroke-width="3.12"/>
<path d="M53.4535 44.1715C47.6298 44.4162 43.1071 49.3356 43.3518 55.1593C43.5965 60.983 48.5159 65.5057 54.3396 65.261C60.1633 65.0163 64.686 60.0969 64.4413 54.2732C64.1966 48.4495 59.2772 43.9268 53.4535 44.1715Z" stroke="white" stroke-width="3.12"/>
<rect x="124" y="565" width="364" height="63" rx="31.5" fill="white"/>
<path d="M191.416 604.364C188.448 604.364 185.993 603.384 184.052 601.424C182.129 599.464 181.168 597.056 181.168 594.2C181.168 591.344 182.129 588.936 184.052 586.976C185.993 585.016 188.448 584.036 191.416 584.036C193.208 584.036 194.85 584.465 196.344 585.324C197.856 586.183 199.032 587.34 199.872 588.796L197.604 590.112C197.044 589.029 196.204 588.171 195.084 587.536C193.982 586.883 192.76 586.556 191.416 586.556C189.157 586.556 187.309 587.284 185.872 588.74C184.453 590.196 183.744 592.016 183.744 594.2C183.744 596.365 184.453 598.176 185.872 599.632C187.309 601.088 189.157 601.816 191.416 601.816C192.76 601.816 193.982 601.499 195.084 600.864C196.204 600.211 197.044 599.352 197.604 598.288L199.872 599.576C199.05 601.032 197.884 602.199 196.372 603.076C194.86 603.935 193.208 604.364 191.416 604.364ZM214.945 584.4H217.521V604H214.945V595.18H205.425V604H202.821V584.4H205.425V592.716H214.945V584.4ZM224.319 601.536H233.419V604H221.715V584.4H233.279V586.864H224.319V592.884H232.579V595.32H224.319V601.536ZM245.638 604.364C242.67 604.364 240.216 603.384 238.274 601.424C236.352 599.464 235.39 597.056 235.39 594.2C235.39 591.344 236.352 588.936 238.274 586.976C240.216 585.016 242.67 584.036 245.638 584.036C247.43 584.036 249.073 584.465 250.566 585.324C252.078 586.183 253.254 587.34 254.094 588.796L251.826 590.112C251.266 589.029 250.426 588.171 249.306 587.536C248.205 586.883 246.982 586.556 245.638 586.556C243.38 586.556 241.532 587.284 240.094 588.74C238.676 590.196 237.966 592.016 237.966 594.2C237.966 596.365 238.676 598.176 240.094 599.632C241.532 601.088 243.38 601.816 245.638 601.816C246.982 601.816 248.205 601.499 249.306 600.864C250.426 600.211 251.266 599.352 251.826 598.288L254.094 599.576C253.273 601.032 252.106 602.199 250.594 603.076C249.082 603.935 247.43 604.364 245.638 604.364ZM271.295 604H268.103L259.647 594.592V604H257.043V584.4H259.647V593.248L267.823 584.4H271.015L262.363 593.92L271.295 604ZM296.91 601.396C294.95 603.375 292.551 604.364 289.714 604.364C286.876 604.364 284.478 603.375 282.518 601.396C280.558 599.417 279.578 597.019 279.578 594.2C279.578 591.363 280.558 588.964 282.518 587.004C284.478 585.025 286.876 584.036 289.714 584.036C292.551 584.036 294.95 585.025 296.91 587.004C298.888 588.964 299.878 591.363 299.878 594.2C299.878 597.019 298.888 599.417 296.91 601.396ZM284.31 599.632C285.766 601.088 287.567 601.816 289.714 601.816C291.86 601.816 293.652 601.088 295.09 599.632C296.546 598.157 297.274 596.347 297.274 594.2C297.274 592.035 296.546 590.224 295.09 588.768C293.652 587.293 291.86 586.556 289.714 586.556C287.567 586.556 285.766 587.293 284.31 588.768C282.872 590.224 282.154 592.035 282.154 594.2C282.154 596.347 282.872 598.157 284.31 599.632ZM315.275 602.488C313.913 603.739 312.149 604.364 309.983 604.364C307.818 604.364 306.045 603.739 304.663 602.488C303.301 601.219 302.619 599.529 302.619 597.42V584.4H305.223V597.308C305.223 598.689 305.634 599.791 306.455 600.612C307.277 601.415 308.453 601.816 309.983 601.816C311.514 601.816 312.69 601.415 313.511 600.612C314.333 599.791 314.743 598.689 314.743 597.308V584.4H317.319V597.42C317.319 599.529 316.638 601.219 315.275 602.488ZM333.845 584.4V586.864H328.049V604H325.473V586.864H319.705V584.4H333.845ZM359.718 601.396C357.758 603.375 355.36 604.364 352.522 604.364C349.685 604.364 347.286 603.375 345.326 601.396C343.366 599.417 342.386 597.019 342.386 594.2C342.386 591.363 343.366 588.964 345.326 587.004C347.286 585.025 349.685 584.036 352.522 584.036C355.36 584.036 357.758 585.025 359.718 587.004C361.697 588.964 362.686 591.363 362.686 594.2C362.686 597.019 361.697 599.417 359.718 601.396ZM347.118 599.632C348.574 601.088 350.376 601.816 352.522 601.816C354.669 601.816 356.461 601.088 357.898 599.632C359.354 598.157 360.082 596.347 360.082 594.2C360.082 592.035 359.354 590.224 357.898 588.768C356.461 587.293 354.669 586.556 352.522 586.556C350.376 586.556 348.574 587.293 347.118 588.768C345.681 590.224 344.962 592.035 344.962 594.2C344.962 596.347 345.681 598.157 347.118 599.632ZM377.437 604L373.041 596.496H368.421V604H365.817V584.4H373.657C375.337 584.4 376.774 584.997 377.969 586.192C379.163 587.368 379.761 588.796 379.761 590.476C379.761 591.745 379.378 592.903 378.613 593.948C377.866 594.993 376.895 595.731 375.701 596.16L380.321 604H377.437ZM368.421 586.836V594.144H373.657C374.627 594.144 375.449 593.789 376.121 593.08C376.811 592.352 377.157 591.484 377.157 590.476C377.157 589.468 376.811 588.609 376.121 587.9C375.449 587.191 374.627 586.836 373.657 586.836H368.421ZM390.578 584.4C393.247 584.4 395.459 585.352 397.214 587.256C398.987 589.141 399.874 591.456 399.874 594.2C399.874 596.944 398.987 599.268 397.214 601.172C395.459 603.057 393.247 604 390.578 604H382.934V584.4H390.578ZM390.578 601.536C392.575 601.536 394.209 600.836 395.478 599.436C396.747 598.036 397.382 596.291 397.382 594.2C397.382 592.109 396.747 590.364 395.478 588.964C394.209 587.564 392.575 586.864 390.578 586.864H385.538V601.536H390.578ZM405.636 601.536H414.736V604H403.032V584.4H414.596V586.864H405.636V592.884H413.896V595.32H405.636V601.536ZM429.499 604L425.103 596.496H420.483V604H417.879V584.4H425.719C427.399 584.4 428.837 584.997 430.031 586.192C431.226 587.368 431.823 588.796 431.823 590.476C431.823 591.745 431.441 592.903 430.675 593.948C429.929 594.993 428.958 595.731 427.763 596.16L432.383 604H429.499ZM420.483 586.836V594.144H425.719C426.69 594.144 427.511 593.789 428.183 593.08C428.874 592.352 429.219 591.484 429.219 590.476C429.219 589.468 428.874 588.609 428.183 587.9C427.511 587.191 426.69 586.836 425.719 586.836H420.483Z" fill="black"/>
</g>
<defs>
<clipPath id="clip0_203_350">
<rect width="612" height="1106" rx="40" fill="white"/>
</clipPath>
</defs>
</svg>
